{
.appVersion = "1101";
classes = (
{
automatic = 1;

glyphs = (
{
glyphname = A;
lastChange = "2017-12-17 21:48:00 +0000";
layers = (
{
guideLines = (
{
angle = 75.4569;
position = "{553, 420}";
},
{
angle = -75.0952;
position = "{768, 420}";
}
);
layerId = "2087CE79-2284-4DA6-8543-529C0FCE662A";
paths = (
{
closed = 1;
nodes = (
"587 574 LINE",
"660 1009 LINE",
"733 574 LINE"
);
},
{
closed = 1;
nodes = (
"640 0 LINE",
"640 280 LINE",
"520 280 LINE",
"555 420 LINE",
"765 420 LINE",
"800 280 LINE",
"680 280 LINE",
"680 0 LINE",
"1220 0 LINE",
"1220 280 LINE",
"1080 280 LINE",
"869.5 1122 LINE",
"1007 1122 LINE",
"1007 1400 LINE",
"318 1400 LINE",
"318 1122 LINE",
"450.5 1122 LINE",
"240 280 LINE",
"100 280 LINE",
"100 0 LINE"
);
}
);
width = 1320;
}
);
unicode = 0041;
},
{
glyphname = AE;
lastChange = "2017-12-13 06:44:27 +0000";
layers = (
{
layerId = "2087CE79-2284-4DA6-8543-529C0FCE662A";
paths = (
{
closed = 1;
nodes = (
"483 1120 LINE",
"235 1120 LINE",
"235 1400 LINE",
"1771 1400 LINE",
"1771 980 LINE",
"1491 980 LINE",
"1491 1120 LINE",
"1211 1120 LINE",
"1211 840 LINE",
"1491 840 LINE",
"1491 560 LINE",
"1211 560 LINE",
"1211 280 LINE",
"1491 280 LINE",
"1491 420 LINE",
"1771 420 LINE",
"1771 0 LINE",
"931 0 LINE",
"753 0 LINE",
"753 280 LINE",
"931 280 LINE",
"931 560 LINE",
"604 560 LINE",
"533 280 LINE",
"705 280 LINE",
"705 0 LINE",
"100 0 LINE",
"100 280 LINE",
"269 280 LINE"
);
},
{
closed = 1;
nodes = (
"931 840 LINE",
"931 1120 LINE",
"747 1120 LINE",
"675 841 LINE"
);
}
);
width = 1871;
}
);
unicode = 00C6;
},
{
glyphname = B;
lastChange = "2017-12-12 20:07:45 +0000";
layers = (
{
layerId = "2087CE79-2284-4DA6-8543-529C0FCE662A";
paths = (
{
closed = 1;
nodes = (
"1080 224 LINE",
"1080 616 LINE",
"940 700 LINE",
"1080 784 LINE",
"1080 1176 LINE",
"856 1400 LINE",
"100 1400 LINE",
"100 1120 LINE",
"240 1120 LINE",
"240 280 LINE",
"100 280 LINE",
"100 0 LINE",
"856 0 LINE"
);
},
{
closed = 1;
nodes = (
"800 1120 LINE",
"800 840 LINE",
"520 840 LINE",
"520 1120 LINE"
);
},
{
closed = 1;
nodes = (
"800 560 LINE",
"800 280 LINE",
"520 280 LINE",
"520 560 LINE"
);
}
);
width = 1180;
}
);
unicode = 0042;
},
{
glyphname = C;
lastChange = "2017-12-12 20:07:45 +0000";
layers = (
{
layerId = "2087CE79-2284-4DA6-8543-529C0FCE662A";
paths = (
{
closed = 1;
nodes = (
"940 224 LINE",
"940 420 LINE",
"660 420 LINE",
"660 280 LINE",
"380 280 LINE",
"380 1120 LINE",
"660 1120 LINE",
"660 980 LINE",
"940 980 LINE",
"940 1176 LINE",
"716 1400 LINE",
"324 1400 LINE",
"100 1176 LINE",
"100 224 LINE",
"324 0 LINE",
"716 0 LINE"
);
}
);
width = 1040;
}
);
unicode = 0043;
},
{
glyphname = D;
lastChange = "2017-12-12 20:07:45 +0000";
layers = (
{
layerId = "2087CE79-2284-4DA6-8543-529C0FCE662A";
paths = (
{
closed = 1;
nodes = (
"1080 224 LINE",
"1080 1176 LINE",
"856 1400 LINE",
"100 1400 LINE",
"100 1120 LINE",
"240 1120 LINE",
"240 280 LINE",
"100 280 LINE",
"100 0 LINE",
"856 0 LINE"
);
},
{
closed = 1;
nodes = (
"800 1120 LINE",
"800 280 LINE",
"520 280 LINE",
"520 1120 LINE"
);
}
);
width = 1180;
}
);
unicode = 0044;
},
{
glyphname = Dafrican;
lastChange = "2017-12-13 01:37:19 +0000";
layers = (
{
components = (
{
name = strokeshortcomb;
transform = "{0.57673, 0, 0, 1, 261, 129}";
}
);
layerId = "2087CE79-2284-4DA6-8543-529C0FCE662A";
paths = (
{
closed = 1;
nodes = (
"1118 224 LINE",
"1118 1176 LINE",
"894 1400 LINE",
"138 1400 LINE",
"138 1120 LINE",
"278 1120 LINE",
"278 280 LINE",
"138 280 LINE",
"138 0 LINE",
"894 0 LINE"
);
},
{
closed = 1;
nodes = (
"838 1120 LINE",
"838 280 LINE",
"558 280 LINE",
"558 1120 LINE"
);
}
);
width = 1218;
}
);
unicode = 0189;
},
{
glyphname = Eth;
lastChange = "2017-12-13 00:32:17 +0000";
layers = (
{
components = (
{
name = strokeshortcomb;
transform = "{0.46728, 0, 0, 1, 250, 129}";
}
);
layerId = "2087CE79-2284-4DA6-8543-529C0FCE662A";
paths = (
{
closed = 1;
nodes = (
"1118 224 LINE",
"1118 1176 LINE",
"894 1400 LINE",
"138 1400 LINE",
"138 1120 LINE",
"278 1120 LINE",
"278 280 LINE",
"138 280 LINE",
"138 0 LINE",
"894 0 LINE"
);
},
{
closed = 1;
nodes = (
"838 1120 LINE",
"838 280 LINE",
"558 280 LINE",
"558 1120 LINE"
);
}
);
width = 1218;
}
);
unicode = 00D0;
},
{
glyphname = Dcircumflexbelow;
lastChange = "2017-12-13 01:48:18 +0000";
layers = (
{
components = (
{
name = caron;
transform = "{1, 0, 0, -1, 61, 1350}";
}
);
layerId = "2087CE79-2284-4DA6-8543-529C0FCE662A";
paths = (
{
closed = 1;
nodes = (
"1080 224 LINE",
"1080 1176 LINE",
"856 1400 LINE",
"100 1400 LINE",
"100 1120 LINE",
"240 1120 LINE",
"240 280 LINE",
"100 280 LINE",
"100 0 LINE",
"856 0 LINE"
);
},
{
closed = 1;
nodes = (
"800 1120 LINE",
"800 280 LINE",
"520 280 LINE",
"520 1120 LINE"
);
}
);
width = 1180;
}
);
unicode = 1E12;
},
{
glyphname = Dcroat;
lastChange = "2017-12-13 00:25:46 +0000";
layers = (
{
components = (
{
name = strokeshortcomb;
transform = "{0.57673, 0, 0, 1, 223, 129}";
}
);
layerId = "2087CE79-2284-4DA6-8543-529C0FCE662A";
paths = (
{
closed = 1;
nodes = (
"1080 224 LINE",
"1080 1176 LINE",
"856 1400 LINE",
"100 1400 LINE",
"100 1120 LINE",
"240 1120 LINE",
"240 280 LINE",
"100 280 LINE",
"100 0 LINE",
"856 0 LINE"
);
},
{
closed = 1;
nodes = (
"800 1120 LINE",
"800 280 LINE",
"520 280 LINE",
"520 1120 LINE"
);
}
);
width = 1180;
}
);
unicode = 0110;
},
{
glyphname = Dlinebelow;
lastChange = "2017-12-13 01:37:57 +0000";
layers = (
{
components = (
{
name = strokeshortcomb;
transform = "{0.57673, 0, 0, 1, 479, -843}";
}
);
layerId = "2087CE79-2284-4DA6-8543-529C0FCE662A";
paths = (
{
closed = 1;
nodes = (
"1080 224 LINE",
"1080 1176 LINE",
"856 1400 LINE",
"100 1400 LINE",
"100 1120 LINE",
"240 1120 LINE",
"240 280 LINE",
"100 280 LINE",
"100 0 LINE",
"856 0 LINE"
);
},
{
closed = 1;
nodes = (
"800 1120 LINE",
"800 280 LINE",
"520 280 LINE",
"520 1120 LINE"
);
}
);
width = 1180;
}
);
unicode = 1E0E;
},
{
glyphname = E;
lastChange = "2017-12-12 20:07:45 +0000";
layers = (
{
layerId = "2087CE79-2284-4DA6-8543-529C0FCE662A";
paths = (
{
closed = 1;
nodes = (
"1080 420 LINE",
"800 420 LINE",
"800 280 LINE",
"520 280 LINE",
"520 560 LINE",
"800 560 LINE",
"800 840 LINE",
"520 840 LINE",
"520 1120 LINE",
"800 1120 LINE",
"800 980 LINE",
"1080 980 LINE",
"1080 1400 LINE",
"100 1400 LINE",
"100 1120 LINE",
"240 1120 LINE",
"240 280 LINE",
"100 280 LINE",
"100 0 LINE",
"1080 0 LINE"
);
}
);
width = 1180;
}
);
unicode = 0045;
},
{
glyphname = Esh;
lastChange = "2017-12-13 05:22:36 +0000";
layers = (
{
layerId = "2087CE79-2284-4DA6-8543-529C0FCE662A";
paths = (
{
closed = 1;
nodes = (
"1080 420 LINE",
"800 420 LINE",
"800 280 LINE",
"475 280 LINE",
"755 697 LINE",
"475 1120 LINE",
"800 1120 LINE",
"800 980 LINE",
"1080 980 LINE",
"1080 1400 LINE",
"100 1400 LINE",
"100 1120 LINE",
"195 1120 LINE",
"475 694 LINE",
"195 280 LINE",
"100 280 LINE",
"100 0 LINE",
"1080 0 LINE"
);
}
);
width = 1180;
}
);
unicode = 01A9;
},
{
glyphname = F;
lastChange = "2017-12-12 20:07:45 +0000";
layers = (
{
layerId = "2087CE79-2284-4DA6-8543-529C0FCE662A";
paths = (
{
closed = 1;
nodes = (
"660 280 LINE",
"520 280 LINE",
"520 560 LINE",
"800 560 LINE",
"800 840 LINE",
"520 840 LINE",
"520 1120 LINE",
"800 1120 LINE",
"800 980 LINE",
"1080 980 LINE",
"1080 1400 LINE",
"100 1400 LINE",
"100 1120 LINE",
"240 1120 LINE",
"240 280 LINE",
"100 280 LINE",
"100 0 LINE",
"660 0 LINE"
);
}
);
width = 1180;
}
);
unicode = 0046;
},
{
glyphname = G;
lastChange = "2017-12-12 20:07:45 +0000";
layers = (
{
layerId = "2087CE79-2284-4DA6-8543-529C0FCE662A";
paths = (
{
closed = 1;
nodes = (
"940 224 LINE",
"940 840 LINE",
"520 840 LINE",
"520 560 LINE",
"660 560 LINE",
"660 280 LINE",
"380 280 LINE",
"380 1120 LINE",
"660 1120 LINE",
"660 980 LINE",
"940 980 LINE",
"940 1176 LINE",
"716 1400 LINE",
"324 1400 LINE",
"100 1176 LINE",
"100 224 LINE",
"324 0 LINE",
"716 0 LINE"
);
}
);
width = 1040;
}
);
unicode = 0047;
},
{
glyphname = H;
lastChange = "2017-12-12 20:07:45 +0000";
layers = (
{
layerId = "2087CE79-2284-4DA6-8543-529C0FCE662A";
paths = (
{
closed = 1;
nodes = (
"640 280 LINE",
"520 280 LINE",
"520 560 LINE",
"800 560 LINE",
"800 280 LINE",
"680 280 LINE",
"680 0 LINE",
"1220 0 LINE",
"1220 280 LINE",
"1080 280 LINE",
"1080 1120 LINE",
"1220 1120 LINE",
"1220 1400 LINE",
"680 1400 LINE",
"680 1120 LINE",
"800 1120 LINE",
"800 840 LINE",
"520 840 LINE",
"520 1120 LINE",
"640 1120 LINE",
"640 1400 LINE",
"100 1400 LINE",
"100 1120 LINE",
"240 1120 LINE",
"240 280 LINE",
"100 280 LINE",
"100 0 LINE",
"640 0 LINE"
);
}
);
width = 1320;
}
);
unicode = 0048;
},
{
glyphname = I;
lastChange = "2017-12-12 20:07:45 +0000";
layers = (
{
layerId = "2087CE79-2284-4DA6-8543-529C0FCE662A";
paths = (
{
closed = 1;
nodes = (
"640 280 LINE",
"520 280 LINE",
"520 1120 LINE",
"640 1120 LINE",
"640 1400 LINE",
"100 1400 LINE",
"100 1120 LINE",
"240 1120 LINE",
"240 280 LINE",
"100 280 LINE",
"100 0 LINE",
"640 0 LINE"
);
}
);
width = 740;
}
);
unicode = 0049;
},
{
glyphname = IJ;
lastChange = "2017-12-13 07:16:05 +0000";
layers = (
{
layerId = "2087CE79-2284-4DA6-8543-529C0FCE662A";
paths = (
{
closed = 1;
nodes = (
"564 756 LINE",
"564 470 LINE",
"100 470 LINE",
"100 756 LINE",
"201 756 LINE",
"201 1118 LINE",
"100 1118 LINE",
"100 1404 LINE",
"564 1404 LINE",
"564 1118 LINE",
"476 1118 LINE",
"476 756 LINE"
);
},
{
closed = 1;
nodes = (
"479 420 LINE",
"479 280 LINE",
"759 280 LINE",
"759 1120 LINE",
"619 1120 LINE",
"619 1400 LINE",
"1179 1400 LINE",
"1179 1120 LINE",
"1039 1120 LINE",
"1039 224 LINE",
"815 0 LINE",
"423 0 LINE",
"199 224 LINE",
"199 420 LINE"
);
}
);
width = 1279;
}
);
unicode = 0132;
},
{
glyphname = J;
lastChange = "2017-12-12 20:07:45 +0000";
layers = (
{
layerId = "2087CE79-2284-4DA6-8543-529C0FCE662A";
paths = (
{
closed = 1;
nodes = (
"100 224 LINE",
"324 0 LINE",
"716 0 LINE",
"940 224 LINE",
"940 1120 LINE",
"1080 1120 LINE",
"1080 1400 LINE",
"520 1400 LINE",
"520 1120 LINE",
"660 1120 LINE",
"660 280 LINE",
"380 280 LINE",
"380 420 LINE",
"100 420 LINE"
);
}
);
width = 1180;
}
);
unicode = 004A;
},
{
glyphname = K;
lastChange = "2017-12-12 20:07:45 +0000";
layers = (
{
layerId = "2087CE79-2284-4DA6-8543-529C0FCE662A";
paths = (
{
closed = 1;
nodes = (
"640 280 LINE",
"520 280 LINE",
"520 400 LINE",
"604 512 LINE",
"784 280 LINE",
"680 280 LINE",
"680 0 LINE",
"1220 0 LINE",
"1220 280 LINE",
"1108 280 LINE",
"784 704 LINE",
"1108 1120 LINE",
"1220 1120 LINE",
"1220 1400 LINE",
"680 1400 LINE",
"680 1120 LINE",
"800 1120 LINE",
"520 748 LINE",
"520 1120 LINE",
"640 1120 LINE",
"640 1400 LINE",
"100 1400 LINE",
"100 1120 LINE",
"240 1120 LINE",
"240 280 LINE",
"100 280 LINE",
"100 0 LINE",
"640 0 LINE"
);
}
);
width = 1280;
}
);
unicode = 004B;
},
{
glyphname = L;
lastChange = "2017-12-12 20:07:45 +0000";
layers = (
{
layerId = "2087CE79-2284-4DA6-8543-529C0FCE662A";
paths = (
{
closed = 1;
nodes = (
"1080 420 LINE",
"800 420 LINE",
"800 280 LINE",
"520 280 LINE",
"520 1120 LINE",
"660 1120 LINE",
"660 1400 LINE",
"100 1400 LINE",
"100 1120 LINE",
"240 1120 LINE",
"240 280 LINE",
"100 280 LINE",
"100 0 LINE",
"1080 0 LINE"
);
}
);
width = 1180;
}
);
unicode = 004C;
},
{
glyphname = Lslash;
lastChange = "2017-12-14 01:27:04 +0000";
layers = (
{
components = (
{
name = L;
}
);
layerId = "2087CE79-2284-4DA6-8543-529C0FCE662A";
paths = (
{
closed = 1;
nodes = (
"108 413 LINE",
"806 906 LINE",
"705 1027 LINE",
"-14 518 LINE"
);
}
);
width = 1180;
}
);
unicode = 0141;
},
{
glyphname = M;
lastChange = "2017-12-12 20:07:45 +0000";
layers = (
{
layerId = "2087CE79-2284-4DA6-8543-529C0FCE662A";
paths = (
{
closed = 1;
nodes = (
"656 280 LINE",
"520 280 LINE",
"520 680 LINE",
"804 -8 LINE",
"1080 680 LINE",
"1080 280 LINE",
"940 280 LINE",
"940 0 LINE",
"1480 0 LINE",
"1480 280 LINE",
"1340 280 LINE",
"1340 1120 LINE",
"1480 1120 LINE",
"1480 1400 LINE",
"1080 1400 LINE",
"800 720 LINE",
"520 1400 LINE",
"100 1400 LINE",
"100 1120 LINE",
"240 1120 LINE",
"240 280 LINE",
"100 280 LINE",
"100 0 LINE",
"656 0 LINE"
);
}
);
width = 1580;
}
);
unicode = 004D;
},
{
glyphname = N;
lastChange = "2017-12-12 20:07:45 +0000";
layers = (
{
layerId = "2087CE79-2284-4DA6-8543-529C0FCE662A";
paths = (
{
closed = 1;
nodes = (
"660 280 LINE",
"520 280 LINE",
"520 800 LINE",
"940 0 LINE",
"1220 0 LINE",
"1220 1120 LINE",
"1360 1120 LINE",
"1360 1400 LINE",
"800 1400 LINE",
"800 1120 LINE",
"940 1120 LINE",
"940 600 LINE",
"520 1400 LINE",
"100 1400 LINE",
"100 1120 LINE",
"240 1120 LINE",
"240 280 LINE",
"100 280 LINE",
"100 0 LINE",
"660 0 LINE"
);
}
);
width = 1460;
}
);
unicode = 004E;
},
{
glyphname = Eng;
lastChange = "2017-12-13 07:10:19 +0000";
layers = (
{
layerId = "2087CE79-2284-4DA6-8543-529C0FCE662A";
paths = (
{
closed = 1;
nodes = (
"1221 33 LINE",
"1221 -259 LINE",
"1099 -407 LINE",
"679 -407 LINE",
"679 -188 LINE",
"937 -188 LINE",
"937 3 LINE",
"520 795 LINE",
"520 275 LINE",
"660 275 LINE",
"660 -5 LINE",
"100 -5 LINE",
"100 275 LINE",
"240 275 LINE",
"240 1115 LINE",
"100 1115 LINE",
"100 1395 LINE",
"520 1395 LINE",
"940 595 LINE",
"940 1115 LINE",
"800 1115 LINE",
"800 1395 LINE",
"1360 1395 LINE",
"1360 1115 LINE",
"1220 1115 LINE",
"1220 33 LINE"
);
}
);
width = 1460;
}
);
unicode = 014A;
},
{
glyphname = O;
lastChange = "2017-12-12 20:07:45 +0000";
layers = (
{
layerId = "2087CE79-2284-4DA6-8543-529C0FCE662A";
paths = (
{
closed = 1;
nodes = (
"940 224 LINE",
"940 1176 LINE",
"716 1400 LINE",
"324 1400 LINE",
"100 1176 LINE",
"100 224 LINE",
"324 0 LINE",
"716 0 LINE"
);
},
{
closed = 1;
nodes = (
"660 1120 LINE",
"660 280 LINE",
"380 280 LINE",
"380 1120 LINE"
);
}
);
width = 1040;
}
);
unicode = 004F;
},
{
glyphname = Ohorn;
lastChange = "2017-12-13 01:07:03 +0000";
layers = (
{
components = (
{
name = O;
}
);
layerId = "2087CE79-2284-4DA6-8543-529C0FCE662A";
paths = (
{
closed = 1;
nodes = (
"940 1176 LINE",
"940 1006 LINE",
"1098 1006 LINE",
"1150 1176 LINE",
"1207 1376 LINE",
"1057 1376 LINE",
"1012 1176 LINE"
);
}
);
width = 1307;
}
);
unicode = 01A0;
},
{
glyphname = Oslash;
lastChange = "2017-12-13 00:34:22 +0000";
layers = (
{
components = (
{
name = O;
transform = "{1, 0, 0, 1, 296, 0}";
}
);
layerId = "2087CE79-2284-4DA6-8543-529C0FCE662A";
paths = (
{
closed = 1;
nodes = (
"343 0 LINE",
"1532 1395 LINE",
"1293 1396 LINE",
"100 0 LINE"
);
}
);
width = 1632;
}
);
unicode = 00D8;
},
{
glyphname = OE;
lastChange = "2017-12-13 06:48:43 +0000";
layers = (
{
layerId = "2087CE79-2284-4DA6-8543-529C0FCE662A";
paths = (
{
closed = 1;
nodes = (
"1589 422 LINE",
"1309 422 LINE",
"1309 282 LINE",
"1029 282 LINE",
"1029 562 LINE",
"1309 562 LINE",
"1309 842 LINE",
"1029 842 LINE",
"1029 1122 LINE",
"1309 1122 LINE",
"1309 982 LINE",
"1589 982 LINE",
"1589 1402 LINE",
"749 1402 LINE",
"749 1122 LINE",
"749 842 LINE",
"749 562 LINE",
"749 282 LINE",
"749 2 LINE",
"1589 2 LINE"
);
},
{
closed = 1;
nodes = (
"324 1400 LINE",
"100 1176 LINE",
"100 224 LINE",
"324 0 LINE",
"788 0 LINE",
"786 1400 LINE"
);
},
{
closed = 1;
nodes = (
"783 1120 LINE",
"785 280 LINE",
"380 280 LINE",
"380 1120 LINE"
);
}
);
width = 1689;
}
);
unicode = 0152;
},
{
glyphname = P;
lastChange = "2017-12-12 20:07:45 +0000";
layers = (
{
layerId = "2087CE79-2284-4DA6-8543-529C0FCE662A";
paths = (
{
closed = 1;
nodes = (
"660 280 LINE",
"520 280 LINE",
"520 560 LINE",
"856 560 LINE",
"1080 784 LINE",
"1080 1176 LINE",
"856 1400 LINE",
"100 1400 LINE",
"100 1120 LINE",
"240 1120 LINE",
"240 280 LINE",
"100 280 LINE",
"100 0 LINE",
"660 0 LINE"
);
},
{
closed = 1;
nodes = (
"800 1120 LINE",
"800 840 LINE",
"520 840 LINE",
"520 1120 LINE"
);
}
);
width = 1180;
}
);
unicode = 0050;
},
{
glyphname = Thorn;
lastChange = "2017-12-13 06:52:11 +0000";
layers = (
{
layerId = "2087CE79-2284-4DA6-8543-529C0FCE662A";
paths = (
{
closed = 1;
nodes = (
"339 524 LINE",
"746 524 LINE",
"746 843 LINE",
"746 956 LINE",
"339 956 LINE"
);
},
{
closed = 1;
nodes = (
"834 1186 LINE",
"968 1037 LINE",
"968 842 LINE",
"968 433 LINE",
"834 285 LINE",
"339 285 LINE",
"339 1 LINE",
"100 1 LINE",
"100 1401 LINE",
"339 1401 LINE",
"339 1186 LINE"
);
}
);
width = 1068;
}
);
unicode = 00DE;
},
{
glyphname = Q;
lastChange = "2017-12-12 20:07:45 +0000";
layers = (
{
layerId = "2087CE79-2284-4DA6-8543-529C0FCE662A";
paths = (
{
closed = 1;
nodes = (
"380 -280 LINE",
"660 -280 LINE",
"660 0 LINE",
"716 0 LINE",
"940 224 LINE",
"940 1176 LINE",
"716 1400 LINE",
"324 1400 LINE",
"100 1176 LINE",
"100 224 LINE",
"324 0 LINE",
"380 0 LINE"
);
},
{
closed = 1;
nodes = (
"660 1120 LINE",
"660 280 LINE",
"380 280 LINE",
"380 1120 LINE"
);
}
);
width = 1040;
}
);
unicode = 0051;
},
{
glyphname = R;
lastChange = "2017-12-12 20:07:45 +0000";
layers = (
{
layerId = "2087CE79-2284-4DA6-8543-529C0FCE662A";
paths = (
{
closed = 1;
nodes = (
"640 280 LINE",
"520 280 LINE",
"520 560 LINE",
"800 560 LINE",
"800 280 LINE",
"680 280 LINE",
"680 0 LINE",
"1220 0 LINE",
"1220 280 LINE",
"1080 280 LINE",
"1080 616 LINE",
"996 700 LINE",
"1080 784 LINE",
"1080 1176 LINE",
"856 1400 LINE",
"100 1400 LINE",
"100 1120 LINE",
"240 1120 LINE",
"240 280 LINE",
"100 280 LINE",
"100 0 LINE",
"640 0 LINE"
);
},
{
closed = 1;
nodes = (
"800 1120 LINE",
"800 840 LINE",
"520 840 LINE",
"520 1120 LINE"
);
}
);
width = 1320;
}
);
unicode = 0052;
},
{
glyphname = Rstroke;
lastChange = "2017-12-13 01:52:41 +0000";
layers = (
{
layerId = "2087CE79-2284-4DA6-8543-529C0FCE662A";
paths = (
{
closed = 1;
nodes = (
"838 280 LINE",
"718 280 LINE",
"718 560 LINE",
"998 560 LINE",
"998 280 LINE",
"878 280 LINE",
"878 0 LINE",
"1418 0 LINE",
"1418 280 LINE",
"1278 280 LINE",
"1278 616 LINE",
"1194 700 LINE",
"1278 784 LINE",
"1278 1176 LINE",
"1054 1400 LINE",
"298 1400 LINE",
"298 1120 LINE",
"438 1120 LINE",
"438 280 LINE",
"298 280 LINE",
"298 0 LINE",
"838 0 LINE"
);
},
{
closed = 1;
nodes = (
"998 1120 LINE",
"998 840 LINE",
"718 840 LINE",
"718 1120 LINE"
);
},
{
closed = 1;
nodes = (
"95 581 LINE",
"438 581 LINE",
"438 828 LINE",
"95 828 LINE"
);
}
);
width = 1518;
}
);
unicode = 024C;
},
{
glyphname = S;
lastChange = "2017-12-12 20:07:45 +0000";
layers = (
{
layerId = "2087CE79-2284-4DA6-8543-529C0FCE662A";
paths = (
{
closed = 1;
nodes = (
"324 0 LINE",
"716 0 LINE",
"940 224 LINE",
"940 616 LINE",
"712 840 LINE",
"380 840 LINE",
"380 1120 LINE",
"660 1120 LINE",
"660 980 LINE",
"940 980 LINE",
"940 1176 LINE",
"716 1400 LINE",
"324 1400 LINE",
"100 1176 LINE",
"100 784 LINE",
"324 560 LINE",
"660 560 LINE",
"660 280 LINE",
"380 280 LINE",
"380 420 LINE",
"100 420 LINE",
"100 224 LINE"
);
}
);
width = 1040;
}
);
unicode = 0053;
},
{
glyphname = Sdotbelow;
lastChange = "2017-12-14 11:16:22 +0000";
layers = (
{
components = (
{
name = dotbelowcomb;
transform = "{1, 0, 0, 1, 173, 0}";
}
);
layerId = "2087CE79-2284-4DA6-8543-529C0FCE662A";
paths = (
{
closed = 1;
nodes = (
"324 0 LINE",
"716 0 LINE",
"940 224 LINE",
"940 616 LINE",
"712 840 LINE",
"380 840 LINE",
"380 1120 LINE",
"660 1120 LINE",
"660 980 LINE",
"940 980 LINE",
"940 1176 LINE",
"716 1400 LINE",
"324 1400 LINE",
"100 1176 LINE",
"100 784 LINE",
"324 560 LINE",
"660 560 LINE",
"660 280 LINE",
"380 280 LINE",
"380 420 LINE",
"100 420 LINE",
"100 224 LINE"
);
}
);
width = 1040;
}
);
unicode = 1E62;
},
{
glyphname = Germandbls;
lastChange = "2017-12-13 07:08:28 +0000";
layers = (
{
layerId = "2087CE79-2284-4DA6-8543-529C0FCE662A";
paths = (
{
closed = 1;
nodes = (
"388 1125 LINE",
"387.531 0 LINE",
"89 0 LINE",
"89 4 LINE",
"-80 4 LINE",
"-80 224 LINE",
"89 224 LINE",
"89 1182 LINE",
"306 1398 LINE",
"385.807 1404 LINE",
"1067 1404 LINE",
"1072 1120 LINE",
"805 716 LINE",
"846 716 LINE",
"796 716 LINE",
"933 716 LINE",
"1067 559 LINE",
"1067 151 LINE",
"933 3 LINE",
"513 3 LINE",
"513 232 LINE",
"806 232 LINE",
"806 447 LINE",
"505 447 LINE",
"505 716 LINE",
"505 716 LINE",
"766 1125 LINE"
);
}
);
width = 600;
}
);
unicode = 1E9E;
},
{
glyphname = T;
lastChange = "2017-12-12 20:07:45 +0000";
layers = (
{
layerId = "2087CE79-2284-4DA6-8543-529C0FCE662A";
paths = (
{
closed = 1;
nodes = (
"940 280 LINE",
"800 280 LINE",
"800 1120 LINE",
"940 1120 LINE",
"940 980 LINE",
"1220 980 LINE",
"1220 1400 LINE",
"100 1400 LINE",
"100 980 LINE",
"380 980 LINE",
"380 1120 LINE",
"520 1120 LINE",
"520 280 LINE",
"380 280 LINE",
"380 0 LINE",
"940 0 LINE"
);
}
);
width = 1320;
}
);
unicode = 0054;
},
{
glyphname = U;
lastChange = "2017-12-12 20:07:45 +0000";
layers = (
{
layerId = "2087CE79-2284-4DA6-8543-529C0FCE662A";
paths = (
{
closed = 1;
nodes = (
"240 1120 LINE",
"240 224 LINE",
"464 0 LINE",
"856 0 LINE",
"1080 224 LINE",
"1080 1120 LINE",
"1220 1120 LINE",
"1220 1400 LINE",
"680 1400 LINE",
"680 1120 LINE",
"800 1120 LINE",
"800 280 LINE",
"520 280 LINE",
"520 1120 LINE",
"640 1120 LINE",
"640 1400 LINE",
"100 1400 LINE",
"100 1120 LINE"
);
}
);
width = 1320;
}
);
unicode = 0055;
},
{
glyphname = Ubar;
lastChange = "2017-12-13 01:53:29 +0000";
layers = (
{
components = (
{
name = U;
}
);
layerId = "2087CE79-2284-4DA6-8543-529C0FCE662A";
paths = (
{
closed = 1;
nodes = (
"113 573 LINE",
"1217 573 LINE",
"1217 820 LINE",
"113 820 LINE"
);
}
);
width = 1320;
}
);
unicode = 0244;
},
{
glyphname = Ubreve;
lastChange = "2017-12-14 09:57:16 +0000";
layers = (
{
components = (
{
name = brevecomb;
transform = "{1, 0, 0, 1, 11, 0}";
}
);
layerId = "2087CE79-2284-4DA6-8543-529C0FCE662A";
paths = (
{
closed = 1;
nodes = (
"240 1120 LINE",
"240 224 LINE",
"464 0 LINE",
"856 0 LINE",
"1080 224 LINE",
"1080 1120 LINE",
"1220 1120 LINE",
"1220 1400 LINE",
"680 1400 LINE",
"680 1120 LINE",
"800 1120 LINE",
"800 280 LINE",
"520 280 LINE",
"520 1120 LINE",
"640 1120 LINE",
"640 1400 LINE",
"100 1400 LINE",
"100 1120 LINE"
);
}
);
width = 1320;
}
);
unicode = 016C;
},
{
glyphname = Uhorn;
lastChange = "2017-12-13 01:08:32 +0000";
layers = (
{
components = (
{
name = U;
}
);
layerId = "2087CE79-2284-4DA6-8543-529C0FCE662A";
paths = (
{
closed = 1;
nodes = (
"1219 1400 LINE",
"1219 1230 LINE",
"1377 1230 LINE",
"1429 1400 LINE",
"1486 1600 LINE",
"1336 1600 LINE",
"1291 1400 LINE"
);
}
);
width = 1586;
}
);
unicode = 01AF;
},
{
glyphname = V;
lastChange = "2017-12-12 20:07:45 +0000";
layers = (
{
layerId = "2087CE79-2284-4DA6-8543-529C0FCE662A";
paths = (
{
closed = 1;
nodes = (
"240 1120 LINE",
"520 0 LINE",
"800 0 LINE",
"1080 1120 LINE",
"1220 1120 LINE",
"1220 1400 LINE",
"680 1400 LINE",
"680 1120 LINE",
"800 1120 LINE",
"660 560 LINE",
"520 1120 LINE",
"640 1120 LINE",
"640 1400 LINE",
"100 1400 LINE",
"100 1120 LINE"
);
}
);
width = 1320;
}
);
unicode = 0056;
},
{
glyphname = W;
lastChange = "2017-12-12 20:07:45 +0000";
layers = (
{
layerId = "2087CE79-2284-4DA6-8543-529C0FCE662A";
paths = (
{
closed = 1;
nodes = (
"380 280 LINE",
"240 280 LINE",
"240 0 LINE",
"780 0 LINE",
"780 280 LINE",
"660 280 LINE",
"800 560 LINE",
"940 280 LINE",
"820 280 LINE",
"820 0 LINE",
"1360 0 LINE",
"1360 280 LINE",
"1220 280 LINE",
"1360 1120 LINE",
"1500 1120 LINE",
"1500 1400 LINE",
"940 1400 LINE",
"940 1120 LINE",
"1080 1120 LINE",
"1008 700 LINE",
"800 1120 LINE",
"592 700 LINE",
"520 1120 LINE",
"660 1120 LINE",
"660 1400 LINE",
"100 1400 LINE",
"100 1120 LINE",
"240 1120 LINE"
);
}
);
width = 1600;
}
);
unicode = 0057;
},
{
glyphname = X;
lastChange = "2017-12-12 20:07:45 +0000";
layers = (
{
layerId = "2087CE79-2284-4DA6-8543-529C0FCE662A";
paths = (
{
closed = 1;
nodes = (
"520 700 LINE",
"240 280 LINE",
"100 280 LINE",
"100 0 LINE",
"640 0 LINE",
"640 280 LINE",
"520 280 LINE",
"660 490 LINE",
"800 280 LINE",
"680 280 LINE",
"680 0 LINE",
"1220 0 LINE",
"1220 280 LINE",
"1080 280 LINE",
"800 700 LINE",
"1080 1120 LINE",
"1220 1120 LINE",
"1220 1400 LINE",
"680 1400 LINE",
"680 1120 LINE",
"800 1120 LINE",
"660 910 LINE",
"520 1120 LINE",
"640 1120 LINE",
"640 1400 LINE",
"100 1400 LINE",
"100 1120 LINE",
"240 1120 LINE"
);
}
);
width = 1320;
}
);
unicode = 0058;
},
{
glyphname = Y;
lastChange = "2017-12-12 20:07:45 +0000";
layers = (
{
layerId = "2087CE79-2284-4DA6-8543-529C0FCE662A";
paths = (
{
closed = 1;
nodes = (
"520 700 LINE",
"520 280 LINE",
"380 280 LINE",
"380 0 LINE",
"940 0 LINE",
"940 280 LINE",
"800 280 LINE",
"800 700 LINE",
"1080 1120 LINE",
"1220 1120 LINE",
"1220 1400 LINE",
"680 1400 LINE",
"680 1120 LINE",
"800 1120 LINE",
"660 910 LINE",
"520 1120 LINE",
"640 1120 LINE",
"640 1400 LINE",
"100 1400 LINE",
"100 1120 LINE",
"240 1120 LINE"
);
}
);
width = 1320;
}
);
unicode = 0059;
},
{
glyphname = Z;
lastChange = "2017-12-12 20:07:45 +0000";
layers = (
{
layerId = "2087CE79-2284-4DA6-8543-529C0FCE662A";
paths = (
{
closed = 1;
nodes = (
"380 1120 LINE",
"740 1120 LINE",
"100 280 LINE",
"100 0 LINE",
"1080 0 LINE",
"1080 420 LINE",
"800 420 LINE",
"800 280 LINE",
"440 280 LINE",
"1080 1120 LINE",
"1080 1400 LINE",
"100 1400 LINE",
"100 980 LINE",
"380 980 LINE"
);
}
);
width = 1180;
}
);
unicode = 005A;
},
{
glyphname = Iacute_J.loclNLD;
lastChange = "2017-12-14 01:04:31 +0000";
layers = (
{
components = (
{
name = acutecomb;
transform = "{1, 0, 0, 1, -274, 0}";
},
{
name = acutecomb;
transform = "{1, 0, 0, 1, 263, 0}";
}
);
layerId = "2087CE79-2284-4DA6-8543-529C0FCE662A";
paths = (
{
closed = 1;
nodes = (
"564 756 LINE",
"564 470 LINE",
"100 470 LINE",
"100 756 LINE",
"201 756 LINE",
"201 1118 LINE",
"100 1118 LINE",
"100 1404 LINE",
"564 1404 LINE",
"564 1118 LINE",
"476 1118 LINE",
"476 756 LINE"
);
},
{
closed = 1;
nodes = (
"479 420 LINE",
"479 280 LINE",
"759 280 LINE",
"759 1120 LINE",
"619 1120 LINE",
"619 1400 LINE",
"1179 1400 LINE",
"1179 1120 LINE",
"1039 1120 LINE",
"1039 224 LINE",
"815 0 LINE",
"423 0 LINE",
"199 224 LINE",
"199 420 LINE"
);
}
);
width = 1279;
}
);
},
{
glyphname = IJ.loclNLD;
lastChange = "2017-12-14 01:03:18 +0000";
layers = (
{
layerId = "2087CE79-2284-4DA6-8543-529C0FCE662A";
paths = (
{
closed = 1;
nodes = (
"564 756 LINE",
"564 470 LINE",
"100 470 LINE",
"100 756 LINE",
"201 756 LINE",
"201 1118 LINE",
"100 1118 LINE",
"100 1404 LINE",
"564 1404 LINE",
"564 1118 LINE",
"476 1118 LINE",
"476 756 LINE"
);
},
{
closed = 1;
nodes = (
"479 420 LINE",
"479 280 LINE",
"759 280 LINE",
"759 1120 LINE",
"619 1120 LINE",
"619 1400 LINE",
"1179 1400 LINE",
"1179 1120 LINE",
"1039 1120 LINE",
"1039 224 LINE",
"815 0 LINE",
"423 0 LINE",
"199 224 LINE",
"199 420 LINE"
);
}
);
width = 1279;
}
);
},
{
glyphname = a;
lastChange = "2017-12-17 21:48:38 +0000";
layers = (
{
layerId = "2087CE79-2284-4DA6-8543-529C0FCE662A";
paths = (
{
closed = 1;
nodes = (
"587 574 LINE",
"660 1009 LINE",
"733 574 LINE"
);
},
{
closed = 1;
nodes = (
"640 0 LINE",
"640 280 LINE",
"520 280 LINE",
"555 420 LINE",
"765 420 LINE",
"800 280 LINE",
"680 280 LINE",
"680 0 LINE",
"1220 0 LINE",
"1220 280 LINE",
"1080 280 LINE",
"869.5 1122 LINE",
"1007 1122 LINE",
"1007 1400 LINE",
"318 1400 LINE",
"318 1122 LINE",
"450.5 1122 LINE",
"240 280 LINE",
"100 280 LINE",
"100 0 LINE"
);
}
);
width = 1320;
}
);
unicode = 0061;
},
{
glyphname = ae;
lastChange = "2017-12-13 06:44:45 +0000";
layers = (
{
layerId = "2087CE79-2284-4DA6-8543-529C0FCE662A";
paths = (
{
closed = 1;
nodes = (
"483 1120 LINE",
"235 1120 LINE",
"235 1400 LINE",
"1771 1400 LINE",
"1771 980 LINE",
"1491 980 LINE",
"1491 1120 LINE",
"1211 1120 LINE",
"1211 840 LINE",
"1491 840 LINE",
"1491 560 LINE",
"1211 560 LINE",
"1211 280 LINE",
"1491 280 LINE",
"1491 420 LINE",
"1771 420 LINE",
"1771 0 LINE",
"931 0 LINE",
"753 0 LINE",
"753 280 LINE",
"931 280 LINE",
"931 560 LINE",
"604 560 LINE",
"533 280 LINE",
"705 280 LINE",
"705 0 LINE",
"100 0 LINE",
"100 280 LINE",
"269 280 LINE"
);
},
{
closed = 1;
nodes = (
"931 840 LINE",
"931 1120 LINE",
"747 1120 LINE",
"675 841 LINE"
);
}
);
width = 1871;
}
);
unicode = 00E6;
},
{
glyphname = b;
lastChange = "2017-12-12 20:10:19 +0000";
layers = (
{
layerId = "2087CE79-2284-4DA6-8543-529C0FCE662A";
paths = (
{
closed = 1;
nodes = (
"1080 224 LINE",
"1080 616 LINE",
"940 700 LINE",
"1080 784 LINE",
"1080 1176 LINE",
"856 1400 LINE",
"100 1400 LINE",
"100 1120 LINE",
"240 1120 LINE",
"240 280 LINE",
"100 280 LINE",
"100 0 LINE",
"856 0 LINE"
);
},
{
closed = 1;
nodes = (
"800 1120 LINE",
"800 840 LINE",
"520 840 LINE",
"520 1120 LINE"
);
},
{
closed = 1;
nodes = (
"800 560 LINE",
"800 280 LINE",
"520 280 LINE",
"520 560 LINE"
);
}
);
width = 1180;
}
);
unicode = 0062;
},
{
glyphname = c;
lastChange = "2017-12-12 20:10:32 +0000";
layers = (
{
layerId = "2087CE79-2284-4DA6-8543-529C0FCE662A";
paths = (
{
closed = 1;
nodes = (
"940 224 LINE",
"940 420 LINE",
"660 420 LINE",
"660 280 LINE",
"380 280 LINE",
"380 1120 LINE",
"660 1120 LINE",
"660 980 LINE",
"940 980 LINE",
"940 1176 LINE",
"716 1400 LINE",
"324 1400 LINE",
"100 1176 LINE",
"100 224 LINE",
"324 0 LINE",
"716 0 LINE"
);
}
);
width = 1040;
}
);
unicode = 0063;
},
{
glyphname = d;
lastChange = "2017-12-12 20:10:35 +0000";
layers = (
{
layerId = "2087CE79-2284-4DA6-8543-529C0FCE662A";
paths = (
{
closed = 1;
nodes = (
"1080 224 LINE",
"1080 1176 LINE",
"856 1400 LINE",
"100 1400 LINE",
"100 1120 LINE",
"240 1120 LINE",
"240 280 LINE",
"100 280 LINE",
"100 0 LINE",
"856 0 LINE"
);
},
{
closed = 1;
nodes = (
"800 1120 LINE",
"800 280 LINE",
"520 280 LINE",
"520 1120 LINE"
);
}
);
width = 1180;
}
);
unicode = 0064;
},
{
glyphname = eth;
lastChange = "2017-12-13 00:32:34 +0000";
layers = (
{
components = (
{
name = strokeshortcomb;
transform = "{0.46728, 0, 0, 1, 231, 129}";
}
);
layerId = "2087CE79-2284-4DA6-8543-529C0FCE662A";
paths = (
{
closed = 1;
nodes = (
"1099 224 LINE",
"1099 1176 LINE",
"875 1400 LINE",
"119 1400 LINE",
"119 1120 LINE",
"259 1120 LINE",
"259 280 LINE",
"119 280 LINE",
"119 0 LINE",
"875 0 LINE"
);
},
{
closed = 1;
nodes = (
"819 1120 LINE",
"819 280 LINE",
"539 280 LINE",
"539 1120 LINE"
);
}
);
width = 1199;
}
);
unicode = 00F0;
},
{
glyphname = dcircumflexbelow;
lastChange = "2017-12-13 01:48:40 +0000";
layers = (
{
components = (
{
name = caron;
transform = "{1, 0, 0, -1, 61, 1350}";
}
);
layerId = "2087CE79-2284-4DA6-8543-529C0FCE662A";
paths = (
{
closed = 1;
nodes = (
"1080 224 LINE",
"1080 1176 LINE",
"856 1400 LINE",
"100 1400 LINE",
"100 1120 LINE",
"240 1120 LINE",
"240 280 LINE",
"100 280 LINE",
"100 0 LINE",
"856 0 LINE"
);
},
{
closed = 1;
nodes = (
"800 1120 LINE",
"800 280 LINE",
"520 280 LINE",
"520 1120 LINE"
);
}
);
width = 1180;
}
);
unicode = 1E13;
},
{
glyphname = dlinebelow;
lastChange = "2017-12-13 01:38:22 +0000";
layers = (
{
components = (
{
name = strokeshortcomb;
transform = "{0.57673, 0, 0, 1, 479, -843}";
}
);
layerId = "2087CE79-2284-4DA6-8543-529C0FCE662A";
paths = (
{
closed = 1;
nodes = (
"1080 224 LINE",
"1080 1176 LINE",
"856 1400 LINE",
"100 1400 LINE",
"100 1120 LINE",
"240 1120 LINE",
"240 280 LINE",
"100 280 LINE",
"100 0 LINE",
"856 0 LINE"
);
},
{
closed = 1;
nodes = (
"800 1120 LINE",
"800 280 LINE",
"520 280 LINE",
"520 1120 LINE"
);
}
);
width = 1180;
}
);
unicode = 1E0F;
},
{
glyphname = e;
lastChange = "2017-12-14 01:14:32 +0000";
layers = (
{
background = {
paths = (
{
closed = 1;
nodes = (
"1080 420 LINE",
"800 420 LINE",
"800 280 LINE",
"520 280 LINE",
"520 560 LINE",
"800 560 LINE",
"800 840 LINE",
"520 840 LINE",
"520 1120 LINE",
"800 1120 LINE",
"800 980 LINE",
"1080 980 LINE",
"1080 1400 LINE",
"100 1400 LINE",
"100 1120 LINE",
"240 1120 LINE",
"240 280 LINE",
"100 280 LINE",
"100 0 LINE",
"1080 0 LINE"
);
}
);
};
layerId = "2087CE79-2284-4DA6-8543-529C0FCE662A";
paths = (
{
closed = 1;
nodes = (
"1080 420 LINE",
"800 420 LINE",
"800 280 LINE",
"520 280 LINE",
"520 560 LINE",
"800 560 LINE",
"800 840 LINE",
"520 840 LINE",
"520 1120 LINE",
"800 1120 LINE",
"800 980 LINE",
"1080 980 LINE",
"1080 1400 LINE",
"100 1400 LINE",
"100 1120 LINE",
"240 1120 LINE",
"240 280 LINE",
"100 280 LINE",
"100 0 LINE",
"1080 0 LINE"
);
}
);
width = 1180;
}
);
unicode = 0065;
},
{
glyphname = esh;
lastChange = "2017-12-13 05:22:49 +0000";
layers = (
{
layerId = "2087CE79-2284-4DA6-8543-529C0FCE662A";
paths = (
{
closed = 1;
nodes = (
"1080 420 LINE",
"800 420 LINE",
"800 280 LINE",
"475 280 LINE",
"755 697 LINE",
"475 1120 LINE",
"800 1120 LINE",
"800 980 LINE",
"1080 980 LINE",
"1080 1400 LINE",
"100 1400 LINE",
"100 1120 LINE",
"195 1120 LINE",
"475 694 LINE",
"195 280 LINE",
"100 280 LINE",
"100 0 LINE",
"1080 0 LINE"
);
}
);
width = 1180;
}
);
unicode = 0283;
},
{
glyphname = f;
lastChange = "2017-12-12 20:10:38 +0000";
layers = (
{
layerId = "2087CE79-2284-4DA6-8543-529C0FCE662A";
paths = (
{
closed = 1;
nodes = (
"660 280 LINE",
"520 280 LINE",
"520 560 LINE",
"800 560 LINE",
"800 840 LINE",
"520 840 LINE",
"520 1120 LINE",
"800 1120 LINE",
"800 980 LINE",
"1080 980 LINE",
"1080 1400 LINE",
"100 1400 LINE",
"100 1120 LINE",
"240 1120 LINE",
"240 280 LINE",
"100 280 LINE",
"100 0 LINE",
"660 0 LINE"
);
}
);
width = 1180;
}
);
unicode = 0066;
},
{
glyphname = g;
lastChange = "2017-12-12 20:10:46 +0000";
layers = (
{
layerId = "2087CE79-2284-4DA6-8543-529C0FCE662A";
paths = (
{
closed = 1;
nodes = (
"940 224 LINE",
"940 840 LINE",
"520 840 LINE",
"520 560 LINE",
"660 560 LINE",
"660 280 LINE",
"380 280 LINE",
"380 1120 LINE",
"660 1120 LINE",
"660 980 LINE",
"940 980 LINE",
"940 1176 LINE",
"716 1400 LINE",
"324 1400 LINE",
"100 1176 LINE",
"100 224 LINE",
"324 0 LINE",
"716 0 LINE"
);
}
);
width = 1040;
}
);
unicode = 0067;
},
{
glyphname = gcommaaccent;
lastChange = "2017-12-13 00:30:25 +0000";
layers = (
{
components = (
{
name = g;
transform = "{1, 0, 0, 1, 281, 0}";
}
);
layerId = "2087CE79-2284-4DA6-8543-529C0FCE662A";
paths = (
{
closed = 1;
nodes = (
"330 1401 LINE",
"210 1401 LINE",
"100 1201 LINE",
"100 1031 LINE",
"280 1031 LINE",
"280 1201 LINE",
"190 1201 LINE"
);
}
);
width = 1321;
}
);
unicode = 0123;
},
{
glyphname = h;
lastChange = "2017-12-12 20:10:44 +0000";
layers = (
{
layerId = "2087CE79-2284-4DA6-8543-529C0FCE662A";
paths = (
{
closed = 1;
nodes = (
"640 280 LINE",
"520 280 LINE",
"520 560 LINE",
"800 560 LINE",
"800 280 LINE",
"680 280 LINE",
"680 0 LINE",
"1220 0 LINE",
"1220 280 LINE",
"1080 280 LINE",
"1080 1120 LINE",
"1220 1120 LINE",
"1220 1400 LINE",
"680 1400 LINE",
"680 1120 LINE",
"800 1120 LINE",
"800 840 LINE",
"520 840 LINE",
"520 1120 LINE",
"640 1120 LINE",
"640 1400 LINE",
"100 1400 LINE",
"100 1120 LINE",
"240 1120 LINE",
"240 280 LINE",
"100 280 LINE",
"100 0 LINE",
"640 0 LINE"
);
}
);
width = 1320;
}
);
unicode = 0068;
},
{
glyphname = i;
lastChange = "2017-12-12 20:10:49 +0000";
layers = (
{
layerId = "2087CE79-2284-4DA6-8543-529C0FCE662A";
paths = (
{
closed = 1;
nodes = (
"640 280 LINE",
"520 280 LINE",
"520 1120 LINE",
"640 1120 LINE",
"640 1400 LINE",
"100 1400 LINE",
"100 1120 LINE",
"240 1120 LINE",
"240 280 LINE",
"100 280 LINE",
"100 0 LINE",
"640 0 LINE"
);
}
);
width = 740;
}
);
unicode = 0069;
},
{
glyphname = idotless;
lastChange = "2017-12-14 09:09:21 +0000";
layers = (
{
layerId = "2087CE79-2284-4DA6-8543-529C0FCE662A";
paths = (
{
closed = 1;
nodes = (
"640 280 LINE",
"520 280 LINE",
"520 1120 LINE",
"520 1400 LINE",
"240 1400 LINE",
"240 1120 LINE",
"240 280 LINE",
"100 280 LINE",
"100 0 LINE",
"640 0 LINE"
);
}
);
width = 740;
}
);
unicode = 0131;
},
{
glyphname = j;
lastChange = "2017-12-12 20:10:52 +0000";
layers = (
{
layerId = "2087CE79-2284-4DA6-8543-529C0FCE662A";
paths = (
{
closed = 1;
nodes = (
"100 224 LINE",
"324 0 LINE",
"716 0 LINE",
"940 224 LINE",
"940 1120 LINE",
"1080 1120 LINE",
"1080 1400 LINE",
"520 1400 LINE",
"520 1120 LINE",
"660 1120 LINE",
"660 280 LINE",
"380 280 LINE",
"380 420 LINE",
"100 420 LINE"
);
}
);
width = 1180;
}
);
unicode = 006A;
},
{
glyphname = k;
lastChange = "2017-12-12 20:10:55 +0000";
layers = (
{
layerId = "2087CE79-2284-4DA6-8543-529C0FCE662A";
paths = (
{
closed = 1;
nodes = (
"640 280 LINE",
"520 280 LINE",
"520 400 LINE",
"604 512 LINE",
"784 280 LINE",
"680 280 LINE",
"680 0 LINE",
"1220 0 LINE",
"1220 280 LINE",
"1108 280 LINE",
"784 704 LINE",
"1108 1120 LINE",
"1220 1120 LINE",
"1220 1400 LINE",
"680 1400 LINE",
"680 1120 LINE",
"800 1120 LINE",
"520 748 LINE",
"520 1120 LINE",
"640 1120 LINE",
"640 1400 LINE",
"100 1400 LINE",
"100 1120 LINE",
"240 1120 LINE",
"240 280 LINE",
"100 280 LINE",
"100 0 LINE",
"640 0 LINE"
);
}
);
width = 1280;
}
);
unicode = 006B;
},
{
glyphname = l;
lastChange = "2017-12-12 20:11:01 +0000";
layers = (
{
layerId = "2087CE79-2284-4DA6-8543-529C0FCE662A";
paths = (
{
closed = 1;
nodes = (
"1080 420 LINE",
"800 420 LINE",
"800 280 LINE",
"520 280 LINE",
"520 1120 LINE",
"660 1120 LINE",
"660 1400 LINE",
"100 1400 LINE",
"100 1120 LINE",
"240 1120 LINE",
"240 280 LINE",
"100 280 LINE",
"100 0 LINE",
"1080 0 LINE"
);
}
);
width = 1180;
}
);
unicode = 006C;
},
{
glyphname = lslash;
lastChange = "2017-12-13 00:28:10 +0000";
layers = (
{
components = (
{
name = L;
}
);
layerId = "2087CE79-2284-4DA6-8543-529C0FCE662A";
paths = (
{
closed = 1;
nodes = (
"108 413 LINE",
"806 906 LINE",
"705 1027 LINE",
"-14 518 LINE"
);
}
);
width = 1180;
}
);
unicode = 0142;
},
{
glyphname = m;
lastChange = "2017-12-12 20:10:59 +0000";
layers = (
{
layerId = "2087CE79-2284-4DA6-8543-529C0FCE662A";
paths = (
{
closed = 1;
nodes = (
"656 280 LINE",
"520 280 LINE",
"520 680 LINE",
"804 -8 LINE",
"1080 680 LINE",
"1080 280 LINE",
"940 280 LINE",
"940 0 LINE",
"1480 0 LINE",
"1480 280 LINE",
"1340 280 LINE",
"1340 1120 LINE",
"1480 1120 LINE",
"1480 1400 LINE",
"1080 1400 LINE",
"800 720 LINE",
"520 1400 LINE",
"100 1400 LINE",
"100 1120 LINE",
"240 1120 LINE",
"240 280 LINE",
"100 280 LINE",
"100 0 LINE",
"656 0 LINE"
);
}
);
width = 1580;
}
);
unicode = 006D;
},
{
glyphname = n;
lastChange = "2017-12-12 20:11:07 +0000";
layers = (
{
layerId = "2087CE79-2284-4DA6-8543-529C0FCE662A";
paths = (
{
closed = 1;
nodes = (
"660 280 LINE",
"520 280 LINE",
"520 800 LINE",
"940 0 LINE",
"1220 0 LINE",
"1220 1120 LINE",
"1360 1120 LINE",
"1360 1400 LINE",
"800 1400 LINE",
"800 1120 LINE",
"940 1120 LINE",
"940 600 LINE",
"520 1400 LINE",
"100 1400 LINE",
"100 1120 LINE",
"240 1120 LINE",
"240 280 LINE",
"100 280 LINE",
"100 0 LINE",
"660 0 LINE"
);
}
);
width = 1460;
}
);
unicode = 006E;
},
{
glyphname = eng;
lastChange = "2017-12-13 07:10:43 +0000";
layers = (
{
layerId = "2087CE79-2284-4DA6-8543-529C0FCE662A";
paths = (
{
closed = 1;
nodes = (
"1221 33 LINE",
"1221 -259 LINE",
"1099 -407 LINE",
"679 -407 LINE",
"679 -188 LINE",
"937 -188 LINE",
"937 3 LINE",
"520 795 LINE",
"520 275 LINE",
"660 275 LINE",
"660 -5 LINE",
"100 -5 LINE",
"100 275 LINE",
"240 275 LINE",
"240 1115 LINE",
"100 1115 LINE",
"100 1395 LINE",
"520 1395 LINE",
"940 595 LINE",
"940 1115 LINE",
"800 1115 LINE",
"800 1395 LINE",
"1360 1395 LINE",
"1360 1115 LINE",
"1220 1115 LINE",
"1220 33 LINE"
);
}
);
width = 1460;
}
);
unicode = 014B;
},
{
glyphname = o;
lastChange = "2017-12-12 20:11:04 +0000";
layers = (
{
layerId = "2087CE79-2284-4DA6-8543-529C0FCE662A";
paths = (
{
closed = 1;
nodes = (
"940 224 LINE",
"940 1176 LINE",
"716 1400 LINE",
"324 1400 LINE",
"100 1176 LINE",
"100 224 LINE",
"324 0 LINE",
"716 0 LINE"
);
},
{
closed = 1;
nodes = (
"660 1120 LINE",
"660 280 LINE",
"380 280 LINE",
"380 1120 LINE"
);
}
);
width = 1040;
}
);
unicode = 006F;
},
{
glyphname = ohorn;
lastChange = "2017-12-13 01:14:25 +0000";
layers = (
{
components = (
{
name = o;
}
);
layerId = "2087CE79-2284-4DA6-8543-529C0FCE662A";
paths = (
{
closed = 1;
nodes = (
"940 1176 LINE",
"940 1006 LINE",
"1098 1006 LINE",
"1150 1176 LINE",
"1207 1376 LINE",
"1057 1376 LINE",
"1012 1176 LINE"
);
}
);
width = 1307;
}
);
unicode = 01A1;
},
{
glyphname = oslash;
lastChange = "2017-12-13 00:34:32 +0000";
layers = (
{
components = (
{
name = O;
transform = "{1, 0, 0, 1, 296, 0}";
}
);
layerId = "2087CE79-2284-4DA6-8543-529C0FCE662A";
paths = (
{
closed = 1;
nodes = (
"343 0 LINE",
"1532 1395 LINE",
"1293 1396 LINE",
"100 0 LINE"
);
}
);
width = 1632;
}
);
unicode = 00F8;
},
{
glyphname = oe;
lastChange = "2017-12-13 06:48:51 +0000";
layers = (
{
layerId = "2087CE79-2284-4DA6-8543-529C0FCE662A";
paths = (
{
closed = 1;
nodes = (
"1589 422 LINE",
"1309 422 LINE",
"1309 282 LINE",
"1029 282 LINE",
"1029 562 LINE",
"1309 562 LINE",
"1309 842 LINE",
"1029 842 LINE",
"1029 1122 LINE",
"1309 1122 LINE",
"1309 982 LINE",
"1589 982 LINE",
"1589 1402 LINE",
"749 1402 LINE",
"749 1122 LINE",
"749 842 LINE",
"749 562 LINE",
"749 282 LINE",
"749 2 LINE",
"1589 2 LINE"
);
},
{
closed = 1;
nodes = (
"324 1400 LINE",
"100 1176 LINE",
"100 224 LINE",
"324 0 LINE",
"788 0 LINE",
"786 1400 LINE"
);
},
{
closed = 1;
nodes = (
"783 1120 LINE",
"785 280 LINE",
"380 280 LINE",
"380 1120 LINE"
);
}
);
width = 1689;
}
);
unicode = 0153;
},
{
glyphname = p;
lastChange = "2017-12-12 20:11:13 +0000";
layers = (
{
layerId = "2087CE79-2284-4DA6-8543-529C0FCE662A";
paths = (
{
closed = 1;
nodes = (
"660 280 LINE",
"520 280 LINE",
"520 560 LINE",
"856 560 LINE",
"1080 784 LINE",
"1080 1176 LINE",
"856 1400 LINE",
"100 1400 LINE",
"100 1120 LINE",
"240 1120 LINE",
"240 280 LINE",
"100 280 LINE",
"100 0 LINE",
"660 0 LINE"
);
},
{
closed = 1;
nodes = (
"800 1120 LINE",
"800 840 LINE",
"520 840 LINE",
"520 1120 LINE"
);
}
);
width = 1180;
}
);
unicode = 0070;
},
{
glyphname = thorn;
lastChange = "2017-12-13 06:52:25 +0000";
layers = (
{
layerId = "2087CE79-2284-4DA6-8543-529C0FCE662A";
paths = (
{
closed = 1;
nodes = (
"339 524 LINE",
"746 524 LINE",
"746 843 LINE",
"746 956 LINE",
"339 956 LINE"
);
},
{
closed = 1;
nodes = (
"834 1186 LINE",
"968 1037 LINE",
"968 842 LINE",
"968 433 LINE",
"834 285 LINE",
"339 285 LINE",
"339 1 LINE",
"100 1 LINE",
"100 1401 LINE",
"339 1401 LINE",
"339 1186 LINE"
);
}
);
width = 1068;
}
);
unicode = 00FE;
},
{
glyphname = q;
lastChange = "2017-12-12 20:11:10 +0000";
layers = (
{
layerId = "2087CE79-2284-4DA6-8543-529C0FCE662A";
paths = (
{
closed = 1;
nodes = (
"380 -280 LINE",
"660 -280 LINE",
"660 0 LINE",
"716 0 LINE",
"940 224 LINE",
"940 1176 LINE",
"716 1400 LINE",
"324 1400 LINE",
"100 1176 LINE",
"100 224 LINE",
"324 0 LINE",
"380 0 LINE"
);
},
{
closed = 1;
nodes = (
"660 1120 LINE",
"660 280 LINE",
"380 280 LINE",
"380 1120 LINE"
);
}
);
width = 1040;
}
);
unicode = 0071;
},
{
glyphname = r;
lastChange = "2017-12-12 20:11:16 +0000";
layers = (
{
layerId = "2087CE79-2284-4DA6-8543-529C0FCE662A";
paths = (
{
closed = 1;
nodes = (
"640 280 LINE",
"520 280 LINE",
"520 560 LINE",
"800 560 LINE",
"800 280 LINE",
"680 280 LINE",
"680 0 LINE",
"1220 0 LINE",
"1220 280 LINE",
"1080 280 LINE",
"1080 616 LINE",
"996 700 LINE",
"1080 784 LINE",
"1080 1176 LINE",
"856 1400 LINE",
"100 1400 LINE",
"100 1120 LINE",
"240 1120 LINE",
"240 280 LINE",
"100 280 LINE",
"100 0 LINE",
"640 0 LINE"
);
},
{
closed = 1;
nodes = (
"800 1120 LINE",
"800 840 LINE",
"520 840 LINE",
"520 1120 LINE"
);
}
);
width = 1320;
}
);
unicode = 0072;
},
{
glyphname = s;
lastChange = "2017-12-12 20:11:19 +0000";
layers = (
{
layerId = "2087CE79-2284-4DA6-8543-529C0FCE662A";
paths = (
{
closed = 1;
nodes = (
"324 0 LINE",
"716 0 LINE",
"940 224 LINE",
"940 616 LINE",
"712 840 LINE",
"380 840 LINE",
"380 1120 LINE",
"660 1120 LINE",
"660 980 LINE",
"940 980 LINE",
"940 1176 LINE",
"716 1400 LINE",
"324 1400 LINE",
"100 1176 LINE",
"100 784 LINE",
"324 560 LINE",
"660 560 LINE",
"660 280 LINE",
"380 280 LINE",
"380 420 LINE",
"100 420 LINE",
"100 224 LINE"
);
}
);
width = 1040;
}
);
unicode = 0073;
},
{
glyphname = sdotbelow;
lastChange = "2017-12-14 11:16:08 +0000";
layers = (
{
components = (
{
name = dotbelowcomb;
transform = "{1, 0, 0, 1, 173, 0}";
}
);
layerId = "2087CE79-2284-4DA6-8543-529C0FCE662A";
paths = (
{
closed = 1;
nodes = (
"324 0 LINE",
"716 0 LINE",
"940 224 LINE",
"940 616 LINE",
"712 840 LINE",
"380 840 LINE",
"380 1120 LINE",
"660 1120 LINE",
"660 980 LINE",
"940 980 LINE",
"940 1176 LINE",
"716 1400 LINE",
"324 1400 LINE",
"100 1176 LINE",
"100 784 LINE",
"324 560 LINE",
"660 560 LINE",
"660 280 LINE",
"380 280 LINE",
"380 420 LINE",
"100 420 LINE",
"100 224 LINE"
);
}
);
width = 1040;
}
);
unicode = 1E63;
},
{
glyphname = germandbls;
lastChange = "2017-12-13 07:06:41 +0000";
layers = (
{
layerId = "2087CE79-2284-4DA6-8543-529C0FCE662A";
paths = (
{
closed = 1;
nodes = (
"966 1186 LINE",
"558 1186 LINE",
"558 0 LINE",
"269 0 LINE",
"269 4 LINE",
"100 4 LINE",
"100 224 LINE",
"269 224 LINE",
"269 1182 LINE",
"448 1396 LINE",
"558 1396 LINE",
"1113 1396 LINE",
"1247 1248 LINE",
"1247 835 LINE",
"1113 696 LINE",
"1247 559 LINE",
"1247 151 LINE",
"1113 3 LINE",
"663 3 LINE",
"663 222 LINE",
"966 222 LINE",
"966 551 LINE",
"775 551 LINE",
"775 850 LINE",
"966 850 LINE"
);
}
);
width = 1347;
}
);
unicode = 00DF;
},
{
glyphname = t;
lastChange = "2017-12-12 20:11:22 +0000";
layers = (
{
layerId = "2087CE79-2284-4DA6-8543-529C0FCE662A";
paths = (
{
closed = 1;
nodes = (
"940 280 LINE",
"800 280 LINE",
"800 1120 LINE",
"940 1120 LINE",
"940 980 LINE",
"1220 980 LINE",
"1220 1400 LINE",
"100 1400 LINE",
"100 980 LINE",
"380 980 LINE",
"380 1120 LINE",
"520 1120 LINE",
"520 280 LINE",
"380 280 LINE",
"380 0 LINE",
"940 0 LINE"
);
}
);
width = 1320;
}
);
unicode = 0074;
},
{
glyphname = u;
lastChange = "2017-12-12 20:11:25 +0000";
layers = (
{
layerId = "2087CE79-2284-4DA6-8543-529C0FCE662A";
paths = (
{
closed = 1;
nodes = (
"240 1120 LINE",
"240 224 LINE",
"464 0 LINE",
"856 0 LINE",
"1080 224 LINE",
"1080 1120 LINE",
"1220 1120 LINE",
"1220 1400 LINE",
"680 1400 LINE",
"680 1120 LINE",
"800 1120 LINE",
"800 280 LINE",
"520 280 LINE",
"520 1120 LINE",
"640 1120 LINE",
"640 1400 LINE",
"100 1400 LINE",
"100 1120 LINE"
);
}
);
width = 1320;
}
);
unicode = 0075;
},
{
glyphname = ubar;
lastChange = "2017-12-13 01:53:42 +0000";
layers = (
{
components = (
{
name = U;
}
);
layerId = "2087CE79-2284-4DA6-8543-529C0FCE662A";
paths = (
{
closed = 1;
nodes = (
"113 573 LINE",
"1217 573 LINE",
"1217 820 LINE",
"113 820 LINE"
);
}
);
width = 1320;
}
);
unicode = 0289;
},
{
glyphname = ubreve;
lastChange = "2017-12-14 09:57:28 +0000";
layers = (
{
components = (
{
name = brevecomb;
transform = "{1, 0, 0, 1, 11, 0}";
}
);
layerId = "2087CE79-2284-4DA6-8543-529C0FCE662A";
paths = (
{
closed = 1;
nodes = (
"240 1120 LINE",
"240 224 LINE",
"464 0 LINE",
"856 0 LINE",
"1080 224 LINE",
"1080 1120 LINE",
"1220 1120 LINE",
"1220 1400 LINE",
"680 1400 LINE",
"680 1120 LINE",
"800 1120 LINE",
"800 280 LINE",
"520 280 LINE",
"520 1120 LINE",
"640 1120 LINE",
"640 1400 LINE",
"100 1400 LINE",
"100 1120 LINE"
);
}
);
width = 1320;
}
);
unicode = 016D;
},
{
glyphname = uhorn;
lastChange = "2017-12-13 01:16:16 +0000";
layers = (
{
components = (
{
name = u;
}
);
layerId = "2087CE79-2284-4DA6-8543-529C0FCE662A";
paths = (
{
closed = 1;
nodes = (
"1219 1400 LINE",
"1219 1230 LINE",
"1377 1230 LINE",
"1429 1400 LINE",
"1486 1600 LINE",
"1336 1600 LINE",
"1291 1400 LINE"
);
}
);
width = 1586;
}
);
unicode = 01B0;
},
{
glyphname = v;
lastChange = "2017-12-12 20:11:28 +0000";
layers = (
{
layerId = "2087CE79-2284-4DA6-8543-529C0FCE662A";
paths = (
{
closed = 1;
nodes = (
"240 1120 LINE",
"520 0 LINE",
"800 0 LINE",
"1080 1120 LINE",
"1220 1120 LINE",
"1220 1400 LINE",
"680 1400 LINE",
"680 1120 LINE",
"800 1120 LINE",
"660 560 LINE",
"520 1120 LINE",
"640 1120 LINE",
"640 1400 LINE",
"100 1400 LINE",
"100 1120 LINE"
);
}
);
width = 1320;
}
);
unicode = 0076;
},
{
glyphname = w;
lastChange = "2017-12-12 20:11:31 +0000";
layers = (
{
layerId = "2087CE79-2284-4DA6-8543-529C0FCE662A";
paths = (
{
closed = 1;
nodes = (
"380 280 LINE",
"240 280 LINE",
"240 0 LINE",
"780 0 LINE",
"780 280 LINE",
"660 280 LINE",
"800 560 LINE",
"940 280 LINE",
"820 280 LINE",
"820 0 LINE",
"1360 0 LINE",
"1360 280 LINE",
"1220 280 LINE",
"1360 1120 LINE",
"1500 1120 LINE",
"1500 1400 LINE",
"940 1400 LINE",
"940 1120 LINE",
"1080 1120 LINE",
"1008 700 LINE",
"800 1120 LINE",
"592 700 LINE",
"520 1120 LINE",
"660 1120 LINE",
"660 1400 LINE",
"100 1400 LINE",
"100 1120 LINE",
"240 1120 LINE"
);
}
);
width = 1600;
}
);
unicode = 0077;
},
{
glyphname = x;
lastChange = "2017-12-12 20:11:35 +0000";
layers = (
{
layerId = "2087CE79-2284-4DA6-8543-529C0FCE662A";
paths = (
{
closed = 1;
nodes = (
"520 700 LINE",
"240 280 LINE",
"100 280 LINE",
"100 0 LINE",
"640 0 LINE",
"640 280 LINE",
"520 280 LINE",
"660 490 LINE",
"800 280 LINE",
"680 280 LINE",
"680 0 LINE",
"1220 0 LINE",
"1220 280 LINE",
"1080 280 LINE",
"800 700 LINE",
"1080 1120 LINE",
"1220 1120 LINE",
"1220 1400 LINE",
"680 1400 LINE",
"680 1120 LINE",
"800 1120 LINE",
"660 910 LINE",
"520 1120 LINE",
"640 1120 LINE",
"640 1400 LINE",
"100 1400 LINE",
"100 1120 LINE",
"240 1120 LINE"
);
}
);
width = 1320;
}
);
unicode = 0078;
},
{
glyphname = y;
lastChange = "2017-12-12 20:11:33 +0000";
layers = (
{
layerId = "2087CE79-2284-4DA6-8543-529C0FCE662A";
paths = (
{
closed = 1;
nodes = (
"520 700 LINE",
"520 280 LINE",
"380 280 LINE",
"380 0 LINE",
"940 0 LINE",
"940 280 LINE",
"800 280 LINE",
"800 700 LINE",
"1080 1120 LINE",
"1220 1120 LINE",
"1220 1400 LINE",
"680 1400 LINE",
"680 1120 LINE",
"800 1120 LINE",
"660 910 LINE",
"520 1120 LINE",
"640 1120 LINE",
"640 1400 LINE",
"100 1400 LINE",
"100 1120 LINE",
"240 1120 LINE"
);
}
);
width = 1320;
}
);
unicode = 0079;
},
{
glyphname = z;
lastChange = "2017-12-12 20:11:41 +0000";
layers = (
{
layerId = "2087CE79-2284-4DA6-8543-529C0FCE662A";
paths = (
{
closed = 1;
nodes = (
"380 1120 LINE",
"740 1120 LINE",
"100 280 LINE",
"100 0 LINE",
"1080 0 LINE",
"1080 420 LINE",
"800 420 LINE",
"800 280 LINE",
"440 280 LINE",
"1080 1120 LINE",
"1080 1400 LINE",
"100 1400 LINE",
"100 980 LINE",
"380 980 LINE"
);
}
);
width = 1180;
}
);
unicode = 007A;
},
{
glyphname = ij.NLD;
lastChange = "2017-12-14 01:00:29 +0000";
layers = (
{
layerId = "2087CE79-2284-4DA6-8543-529C0FCE662A";
paths = (
{
closed = 1;
nodes = (
"564 756 LINE",
"564 470 LINE",
"100 470 LINE",
"100 756 LINE",
"201 756 LINE",
"201 1118 LINE",
"100 1118 LINE",
"100 1404 LINE",
"564 1404 LINE",
"564 1118 LINE",
"476 1118 LINE",
"476 756 LINE"
);
},
{
closed = 1;
nodes = (
"479 420 LINE",
"479 280 LINE",
"759 280 LINE",
"759 1120 LINE",
"619 1120 LINE",
"619 1400 LINE",
"1179 1400 LINE",
"1179 1120 LINE",
"1039 1120 LINE",
"1039 224 LINE",
"815 0 LINE",
"423 0 LINE",
"199 224 LINE",
"199 420 LINE"
);
}
);
width = 1279;
}
);
},
{
glyphname = idotless.TRK;
lastChange = "2017-12-14 00:57:38 +0000";
layers = (
{
layerId = "2087CE79-2284-4DA6-8543-529C0FCE662A";
paths = (
{
closed = 1;
nodes = (
"640 280 LINE",
"520 280 LINE",
"520 1120 LINE",
"520 1400 LINE",
"240 1400 LINE",
"240 1120 LINE",
"240 280 LINE",
"100 280 LINE",
"100 0 LINE",
"640 0 LINE"
);
}
);
width = 740;
}
);
},
{
glyphname = iacute_j.loclNLD;
lastChange = "2017-12-14 01:04:44 +0000";
layers = (
{
components = (
{
name = acutecomb;
transform = "{1, 0, 0, 1, -274, 0}";
},
{
name = acutecomb;
transform = "{1, 0, 0, 1, 263, 0}";
}
);
layerId = "2087CE79-2284-4DA6-8543-529C0FCE662A";
paths = (
{
closed = 1;
nodes = (
"564 756 LINE",
"564 470 LINE",
"100 470 LINE",
"100 756 LINE",
"201 756 LINE",
"201 1118 LINE",
"100 1118 LINE",
"100 1404 LINE",
"564 1404 LINE",
"564 1118 LINE",
"476 1118 LINE",
"476 756 LINE"
);
},
{
closed = 1;
nodes = (
"479 420 LINE",
"479 280 LINE",
"759 280 LINE",
"759 1120 LINE",
"619 1120 LINE",
"619 1400 LINE",
"1179 1400 LINE",
"1179 1120 LINE",
"1039 1120 LINE",
"1039 224 LINE",
"815 0 LINE",
"423 0 LINE",
"199 224 LINE",
"199 420 LINE"
);
}
);
width = 1279;
}
);
},
{
glyphname = idotless.loclTRK;
lastChange = "2017-12-14 06:19:33 +0000";
layers = (
{
layerId = "2087CE79-2284-4DA6-8543-529C0FCE662A";
paths = (
{
closed = 1;
nodes = (
"640 280 LINE",
"520 280 LINE",
"520 1120 LINE",
"520 1400 LINE",
"240 1400 LINE",
"240 1120 LINE",
"240 280 LINE",
"100 280 LINE",
"100 0 LINE",
"640 0 LINE"
);
}
);
width = 740;
}
);
},
{
glyphname = E_T.liga;
lastChange = "2017-12-14 01:09:41 +0000";
layers = (
{
layerId = "2087CE79-2284-4DA6-8543-529C0FCE662A";
paths = (
{
closed = 1;
nodes = (
"2007 1400 LINE",
"2007 980 LINE",
"1727 980 LINE",
"1727 1120 LINE",
"1587 1120 LINE",
"1587 280 LINE",
"1727 280 LINE",
"1727 0 LINE",
"1167 0 LINE",
"1167 280 LINE",
"1307 280 LINE",
"1307 1120 LINE",
"520 1120 LINE",
"520 840 LINE",
"800 840 LINE",
"800 560 LINE",
"520 560 LINE",
"520 280 LINE",
"800 280 LINE",
"800 420 LINE",
"1080 420 LINE",
"1080 0 LINE",
"100 0 LINE",
"100 280 LINE",
"240 280 LINE",
"240 1120 LINE",
"100 1120 LINE",
"100 1400 LINE"
);
}
);
width = 2107;
}
);
},
{
glyphname = e_t.liga;
lastChange = "2017-12-14 01:09:32 +0000";
layers = (
{
layerId = "2087CE79-2284-4DA6-8543-529C0FCE662A";
paths = (
{
closed = 1;
nodes = (
"2007 1400 LINE",
"2007 980 LINE",
"1727 980 LINE",
"1727 1120 LINE",
"1587 1120 LINE",
"1587 280 LINE",
"1727 280 LINE",
"1727 0 LINE",
"1167 0 LINE",
"1167 280 LINE",
"1307 280 LINE",
"1307 1120 LINE",
"520 1120 LINE",
"520 840 LINE",
"800 840 LINE",
"800 560 LINE",
"520 560 LINE",
"520 280 LINE",
"800 280 LINE",
"800 420 LINE",
"1080 420 LINE",
"1080 0 LINE",
"100 0 LINE",
"100 280 LINE",
"240 280 LINE",
"240 1120 LINE",
"100 1120 LINE",
"100 1400 LINE"
);
}
);
width = 2107;
}
);
},
{
glyphname = clickalveolar;
lastChange = "2017-12-13 07:23:30 +0000";
layers = (
{
layerId = "2087CE79-2284-4DA6-8543-529C0FCE662A";
paths = (
{
closed = 1;
nodes = (
"444 832 LINE",
"100 832 LINE",
"100 1107 LINE",
"444 1107 LINE",
"444 1638 LINE",
"719 1638 LINE",
"719 1107 LINE",
"1064 1107 LINE",
"1064 832 LINE",
"719 832 LINE",
"719 555 LINE",
"1064 555 LINE",
"1064 280 LINE",
"719 280 LINE",
"719 -269 LINE",
"444 -269 LINE",
"444 280 LINE",
"100 280 LINE",
"100 555 LINE",
"444 555 LINE"
);
}
);
width = 1164;
}
);
unicode = 01C2;
},
{
glyphname = clickdental;
lastChange = "2017-12-13 07:23:59 +0000";
layers = (
{
layerId = "2087CE79-2284-4DA6-8543-529C0FCE662A";
paths = (
{
closed = 1;
nodes = (
"100 1638 LINE",
"375 1638 LINE",
"375 -269 LINE",
"100 -269 LINE"
);
}
);
width = 475;
}
);
unicode = 01C0;
},
{
glyphname = clicklateral;
lastChange = "2017-12-13 07:24:19 +0000";
layers = (
{
layerId = "2087CE79-2284-4DA6-8543-529C0FCE662A";
paths = (
{
closed = 1;
nodes = (
"100 1638 LINE",
"375 1638 LINE",
"375 -269 LINE",
"100 -269 LINE"
);
},
{
closed = 1;
nodes = (
"537 1638 LINE",
"812 1638 LINE",
"812 -269 LINE",
"537 -269 LINE"
);
}
);
width = 912;
}
);
unicode = 01C1;
},
{
glyphname = clickretroflex;
lastChange = "2017-12-13 07:25:04 +0000";
layers = (
{
layerId = "2087CE79-2284-4DA6-8543-529C0FCE662A";
paths = (
{
closed = 1;
nodes = (
"100 1638 LINE",
"375 1638 LINE",
"375 381 LINE",
"100 381 LINE"
);
},
{
closed = 1;
nodes = (
"100 178 LINE",
"375 178 LINE",
"375 -89 LINE",
"100 -89 LINE"
);
}
);
width = 600;
}
);
unicode = 01C3;
},
{
glyphname = "Be-cy";
lastChange = "2017-12-13 07:31:58 +0000";
layers = (
{
layerId = "2087CE79-2284-4DA6-8543-529C0FCE662A";
paths = (
{
closed = 1;
nodes = (
"527 286 LINE",
"799 286 LINE",
"799 507 LINE",
"527 507 LINE"
);
},
{
closed = 1;
nodes = (
"860 783 LINE",
"1118 593 LINE",
"1118 231 LINE",
"860 0 LINE",
"104 0 LINE",
"104 286 LINE",
"246 286 LINE",
"246 1120 LINE",
"100 1120 LINE",
"100 1406 LINE",
"1117 1406 LINE",
"1118 1406 LINE",
"1118 939 LINE",
"799 939 LINE",
"799 1120 LINE",
"527 1120 LINE",
"527 782 LINE"
);
}
);
width = 1218;
}
);
unicode = 0411;
},
{
glyphname = "Ge-cy";
lastChange = "2017-12-13 09:56:37 +0000";
layers = (
{
layerId = "2087CE79-2284-4DA6-8543-529C0FCE662A";
paths = (
{
closed = 1;
nodes = (
"933 1131 LINE",
"933 997 LINE",
"933 996 LINE",
"934 996 LINE",
"1209 996 LINE",
"1209 997 LINE",
"1209 1410 LINE",
"1209 1411 LINE",
"101 1411 LINE",
"101 1407 LINE",
"101 1131 LINE",
"268 1131 LINE",
"268 275 LINE",
"268 276 LINE",
"103 276 LINE",
"102 276 LINE",
"102 275 LINE",
"102 0 LINE",
"102 -1 LINE",
"103 -1 LINE",
"723 0 LINE",
"723 276 LINE",
"543 276 LINE",
"544 275 LINE",
"544 1131 LINE",
"543 1131 LINE",
"934 1131 LINE"
);
}
);
width = 1309;
}
);
unicode = 0413;
},
{
glyphname = "Gje-cy";
lastChange = "2017-12-14 10:05:27 +0000";
layers = (
{
components = (
{
name = acute;
transform = "{1, 0, 0, 1, 484, 9}";
}
);
layerId = "2087CE79-2284-4DA6-8543-529C0FCE662A";
paths = (
{
closed = 1;
nodes = (
"933 1131 LINE",
"933 997 LINE",
"933 996 LINE",
"934 996 LINE",
"1209 996 LINE",
"1209 1410 LINE",
"1209 1411 LINE",
"101 1411 LINE",
"101 1407 LINE",
"101 1131 LINE",
"268 1131 LINE",
"268 275 LINE",
"268 276 LINE",
"103 276 LINE",
"102 276 LINE",
"102 275 LINE",
"102 0 LINE",
"102 -1 LINE",
"103 -1 LINE",
"723 -1 LINE",
"723 276 LINE",
"543 276 LINE",
"544 275 LINE",
"544 1131 LINE",
"543 1131 LINE",
"934 1131 LINE"
);
}
);
width = 1308;
}
);
unicode = 0403;
},
{
glyphname = "Gheupturn-cy";
lastChange = "2017-12-14 10:06:11 +0000";
layers = (
{
layerId = "2087CE79-2284-4DA6-8543-529C0FCE662A";
paths = (
{
closed = 1;
nodes = (
"933 1131 LINE",
"1209 1131 LINE",
"1209 1621 LINE",
"921 1621 LINE",
"921 1411 LINE",
"101 1411 LINE",
"101 1407 LINE",
"101 1131 LINE",
"268 1131 LINE",
"268 275 LINE",
"268 276 LINE",
"103 276 LINE",
"102 276 LINE",
"102 275 LINE",
"102 0 LINE",
"102 -1 LINE",
"103 -1 LINE",
"723 -1 LINE",
"723 276 LINE",
"543 276 LINE",
"544 275 LINE",
"544 1131 LINE",
"543 1131 LINE",
"934 1131 LINE"
);
}
);
width = 600;
}
);
unicode = 0490;
},
{
glyphname = "De-cy";
lastChange = "2017-12-13 07:44:04 +0000";
layers = (
{
layerId = "2087CE79-2284-4DA6-8543-529C0FCE662A";
paths = (
{
closed = 1;
nodes = (
"1489 273 LINE",
"1489 -274 LINE",
"1214 -274 LINE",
"1214 -2 LINE",
"375 -2 LINE",
"375 -274 LINE",
"100 -274 LINE",
"100 -2 LINE",
"100 273 LINE",
"296 273 LINE",
"296 1132 LINE",
"433 1265 LINE",
"568 1396 LINE",
"568 1397 LINE",
"569 1397 LINE",
"571 1399 LINE",
"571 1397 LINE",
"1489 1397 LINE",
"1489 1122 LINE",
"1272 1122 LINE",
"1272 273 LINE"
);
},
{
closed = 1;
nodes = (
"997 1122 LINE",
"571 1122 LINE",
"571 273 LINE",
"997 273 LINE"
);
}
);
width = 1589;
}
);
unicode = 0414;
},
{
glyphname = "Zhe-cy";
lastChange = "2017-12-13 07:57:07 +0000";
layers = (
{
layerId = "2087CE79-2284-4DA6-8543-529C0FCE662A";
paths = (
{
closed = 1;
nodes = (
"1091 366 LINE",
"1091 280 LINE",
"1224 280 LINE",
"1224 0 LINE",
"1104 0 LINE",
"824 0 LINE",
"684 0 LINE",
"684 280 LINE",
"816 280 LINE",
"816 368 LINE",
"691 522 LINE",
"505 280 LINE",
"640 280 LINE",
"640 0 LINE",
"520 0 LINE",
"240 0 LINE",
"100 0 LINE",
"100 280 LINE",
"209 280 LINE",
"530 721 LINE",
"210 1116 LINE",
"100 1116 LINE",
"100 1396 LINE",
"640 1396 LINE",
"640 1116 LINE",
"520 1116 LINE",
"511 1116 LINE",
"816 728 LINE",
"816 1114 LINE",
"684 1114 LINE",
"684 1394 LINE",
"1224 1394 LINE",
"1224 1114 LINE",
"1104 1114 LINE",
"1091 1114 LINE",
"1091 726 LINE",
"1398 1116 LINE",
"1270 1116 LINE",
"1270 1396 LINE",
"1810 1396 LINE",
"1810 1116 LINE",
"1696 1116 LINE",
"1385 730 LINE",
"1713 280 LINE",
"1810 280 LINE",
"1810 0 LINE",
"1690 0 LINE",
"1410 0 LINE",
"1270 0 LINE",
"1270 280 LINE",
"1417 280 LINE",
"1225 531 LINE"
);
}
);
width = 1910;
}
);
unicode = 0416;
},
{
glyphname = "Ze-cy";
lastChange = "2017-12-13 09:47:25 +0000";
layers = (
{
layerId = "2087CE79-2284-4DA6-8543-529C0FCE662A";
paths = (
{
closed = 1;
nodes = (
"380 1120 LINE",
"840 1120 LINE",
"840 840 LINE",
"436 840 LINE",
"362 700 LINE",
"438 560 LINE",
"840 560 LINE",
"840 280 LINE",
"380 280 LINE",
"380 420 LINE",
"100 420 LINE",
"100 224 LINE",
"324 0 LINE",
"896 0 LINE",
"1120 224 LINE",
"1120 616 LINE",
"1036 700 LINE",
"1120 784 LINE",
"1120 1176 LINE",
"896 1400 LINE",
"324 1400 LINE",
"100 1176 LINE",
"100 980 LINE",
"380 980 LINE"
);
}
);
width = 1220;
}
);
unicode = 0417;
},
{
glyphname = "Ii-cy";
lastChange = "2017-12-13 08:02:26 +0000";
layers = (
{
layerId = "2087CE79-2284-4DA6-8543-529C0FCE662A";
paths = (
{
closed = 1;
nodes = (
"1360 0 LINE",
"1360 280 LINE",
"1220 280 LINE",
"1220 1120 LINE",
"1360 1120 LINE",
"1360 1400 LINE",
"940 1400 LINE",
"520 600 LINE",
"520 1120 LINE",
"660 1120 LINE",
"660 1400 LINE",
"100 1400 LINE",
"100 1120 LINE",
"240 1120 LINE",
"240 0 LINE",
"520 0 LINE",
"940 800 LINE",
"940 280 LINE",
"800 280 LINE",
"800 0 LINE"
);
}
);
width = 1460;
}
);
unicode = 0418;
},
{
glyphname = "Iishort-cy";
lastChange = "2017-12-13 08:02:57 +0000";
layers = (
{
components = (
{
name = breve;
transform = "{1, 0, 0, 1, 127, 42}";
}
);
layerId = "2087CE79-2284-4DA6-8543-529C0FCE662A";
paths = (
{
closed = 1;
nodes = (
"1360 0 LINE",
"1360 280 LINE",
"1220 280 LINE",
"1220 1120 LINE",
"1360 1120 LINE",
"1360 1400 LINE",
"940 1400 LINE",
"520 600 LINE",
"520 1120 LINE",
"660 1120 LINE",
"660 1400 LINE",
"100 1400 LINE",
"100 1120 LINE",
"240 1120 LINE",
"240 0 LINE",
"520 0 LINE",
"940 800 LINE",
"940 280 LINE",
"800 280 LINE",
"800 0 LINE"
);
}
);
width = 1460;
}
);
unicode = 0419;
},
{
glyphname = "El-cy";
lastChange = "2017-12-13 09:06:42 +0000";
layers = (
{
layerId = "2087CE79-2284-4DA6-8543-529C0FCE662A";
paths = (
{
closed = 1;
nodes = (
"430 1135 LINE",
"702 1406 LINE",
"1467 1406 LINE",
"1467 1131 LINE",
"1287 1131 LINE",
"1287 275 LINE",
"1467 275 LINE",
"1467 0 LINE",
"847 0 LINE",
"847 275 LINE",
"1012 275 LINE",
"1012 1131 LINE",
"703 1131 LINE",
"705 275 LINE",
"430 0 LINE",
"100 0 LINE",
"100 275 LINE",
"430 275 LINE"
);
}
);
width = 1567;
}
);
unicode = 041B;
},
{
glyphname = "Pe-cy";
lastChange = "2017-12-13 05:17:39 +0000";
layers = (
{
layerId = "2087CE79-2284-4DA6-8543-529C0FCE662A";
paths = (
{
closed = 1;
nodes = (
"1450 1400 LINE",
"1450 1120 LINE",
"1310 1120 LINE",
"1310 280 LINE",
"1450 280 LINE",
"1450 0 LINE",
"910 0 LINE",
"910 280 LINE",
"1030 280 LINE",
"1030 1120 LINE",
"910 1120 LINE",
"520 1120 LINE",
"520 280 LINE",
"640 280 LINE",
"640 0 LINE",
"100 0 LINE",
"100 280 LINE",
"240 280 LINE",
"240 1120 LINE",
"100 1120 LINE",
"100 1400 LINE",
"910 1400 LINE"
);
}
);
width = 1550;
}
);
unicode = 041F;
},
{
glyphname = "U-cy";
lastChange = "2017-12-13 09:13:53 +0000";
layers = (
{
layerId = "2087CE79-2284-4DA6-8543-529C0FCE662A";
paths = (
{
closed = 1;
nodes = (
"1298 280 LINE",
"1032 -2 LINE",
"544 -3 LINE",
"281 275 LINE",
"281 501 LINE",
"556 501 LINE",
"556 275 LINE",
"1018 275 LINE",
"1018 594 LINE",
"502 594 LINE",
"278 818 LINE",
"278 1140 LINE",
"100 1140 LINE",
"100 1406 LINE",
"735 1406 LINE",
"735 1140 LINE",
"558 1140 LINE",
"558 874 LINE",
"1018 874 LINE",
"1018 1140 LINE",
"822 1140 LINE",
"822 1406 LINE",
"1457 1406 LINE",
"1457 1140 LINE",
"1298 1140 LINE"
);
}
);
width = 1557;
}
);
unicode = 0423;
},
{
glyphname = "Ushort-cy";
lastChange = "2017-12-13 09:14:49 +0000";
layers = (
{
components = (
{
name = breve;
transform = "{1, 0, 0, 1, 127, 42}";
}
);
layerId = "2087CE79-2284-4DA6-8543-529C0FCE662A";
paths = (
{
closed = 1;
nodes = (
"1298 280 LINE",
"1032 -2 LINE",
"544 -3 LINE",
"281 275 LINE",
"281 501 LINE",
"556 501 LINE",
"556 275 LINE",
"1018 275 LINE",
"1018 594 LINE",
"502 594 LINE",
"278 818 LINE",
"278 1140 LINE",
"100 1140 LINE",
"100 1406 LINE",
"735 1406 LINE",
"735 1140 LINE",
"558 1140 LINE",
"558 874 LINE",
"1018 874 LINE",
"1018 1140 LINE",
"822 1140 LINE",
"822 1406 LINE",
"1457 1406 LINE",
"1457 1140 LINE",
"1298 1140 LINE"
);
}
);
width = 1557;
}
);
unicode = 040E;
},
{
glyphname = "Ef-cy";
lastChange = "2017-12-13 09:25:49 +0000";
layers = (
{
layerId = "2087CE79-2284-4DA6-8543-529C0FCE662A";
paths = (
{
closed = 1;
nodes = (
"375 772 LINE",
"1062 772 LINE",
"1062 625 LINE",
"375 625 LINE"
);
},
{
closed = 1;
nodes = (
"373 360 LINE",
"1059 360 LINE",
"1335 633 LINE",
"1337 633 LINE",
"1337 774 LINE",
"1334 774 LINE",
"1062 1047 LINE",
"371 1047 LINE",
"102 774 LINE",
"100 774 LINE",
"100 633 LINE",
"101 633 LINE"
);
},
{
closed = 1;
nodes = (
"972 0 LINE",
"972 280 LINE",
"852 280 LINE",
"852 1134 LINE",
"971 1134 LINE",
"972 1400 LINE",
"433 1400 LINE",
"433 1134 LINE",
"572 1134 LINE",
"572 280 LINE",
"432 280 LINE",
"432 0 LINE"
);
}
);
width = 1437;
}
);
unicode = 0424;
},
{
glyphname = "Che-cy";
lastChange = "2017-12-13 09:16:00 +0000";
layers = (
{
layerId = "2087CE79-2284-4DA6-8543-529C0FCE662A";
paths = (
{
closed = 1;
nodes = (
"822 1137 LINE",
"822 1403 LINE",
"1457 1403 LINE",
"1457 1137 LINE",
"1298 1137 LINE",
"1298 266 LINE",
"1457 266 LINE",
"1457 0 LINE",
"822 0 LINE",
"822 266 LINE",
"1018 266 LINE",
"1018 268 LINE",
"1018 415 LINE",
"502 415 LINE",
"278 639 LINE",
"278 1137 LINE",
"100 1137 LINE",
"100 1403 LINE",
"735 1403 LINE",
"735 1137 LINE",
"558 1137 LINE",
"558 695 LINE",
"1018 695 LINE",
"1018 1137 LINE"
);
}
);
width = 1557;
}
);
unicode = 0427;
},
{
glyphname = "Tse-cy";
lastChange = "2017-12-13 09:28:52 +0000";
layers = (
{
layerId = "2087CE79-2284-4DA6-8543-529C0FCE662A";
paths = (
{
closed = 1;
nodes = (
"1375 0 LINE",
"1375 280 LINE",
"1235 280 LINE",
"1235 1120 LINE",
"1375 1120 LINE",
"1375 1400 LINE",
"835 1400 LINE",
"835 1120 LINE",
"955 1120 LINE",
"955 280 LINE",
"910 280 LINE",
"520 280 LINE",
"520 1120 LINE",
"640 1120 LINE",
"640 1400 LINE",
"100 1400 LINE",
"100 1120 LINE",
"240 1120 LINE",
"240 280 LINE",
"100 280 LINE",
"100 0 LINE",
"910 0 LINE"
);
},
{
closed = 1;
nodes = (
"1650 280 LINE",
"1650 0 LINE",
"1513 -233 LINE",
"1375 -233 LINE",
"1375 280 LINE"
);
}
);
width = 1750;
}
);
unicode = 0426;
},
{
glyphname = "Sha-cy";
lastChange = "2017-12-13 09:30:56 +0000";
layers = (
{
layerId = "2087CE79-2284-4DA6-8543-529C0FCE662A";
paths = (
{
closed = 1;
nodes = (
"1235 280 LINE",
"1235 1120 LINE",
"1375 1120 LINE",
"1375 1400 LINE",
"835 1400 LINE",
"835 1120 LINE",
"955 1120 LINE",
"955 280 LINE",
"910 280 LINE",
"520 280 LINE",
"520 1120 LINE",
"640 1120 LINE",
"640 1400 LINE",
"100 1400 LINE",
"100 1120 LINE",
"240 1120 LINE",
"240 280 LINE",
"100 280 LINE",
"100 0 LINE",
"910 0 LINE",
"1375 0 LINE",
"2110 0 LINE",
"2110 280 LINE",
"1970 280 LINE",
"1970 1120 LINE",
"2110 1120 LINE",
"2110 1400 LINE",
"1570 1400 LINE",
"1570 1120 LINE",
"1690 1120 LINE",
"1690 280 LINE",
"1375 280 LINE"
);
}
);
width = 2210;
}
);
unicode = 0428;
},
{
glyphname = "Shcha-cy";
lastChange = "2017-12-13 09:32:09 +0000";
layers = (
{
layerId = "2087CE79-2284-4DA6-8543-529C0FCE662A";
paths = (
{
closed = 1;
nodes = (
"1235 288 LINE",
"1235 1128 LINE",
"1375 1128 LINE",
"1375 1408 LINE",
"835 1408 LINE",
"835 1128 LINE",
"955 1128 LINE",
"955 288 LINE",
"910 288 LINE",
"520 288 LINE",
"520 1128 LINE",
"640 1128 LINE",
"640 1408 LINE",
"100 1408 LINE",
"100 1128 LINE",
"240 1128 LINE",
"240 288 LINE",
"100 288 LINE",
"100 8 LINE",
"910 8 LINE",
"1375 8 LINE",
"2110 8 LINE",
"2110 288 LINE",
"1970 288 LINE",
"1970 1128 LINE",
"2110 1128 LINE",
"2110 1408 LINE",
"1570 1408 LINE",
"1570 1128 LINE",
"1690 1128 LINE",
"1690 288 LINE",
"1375 288 LINE"
);
},
{
closed = 1;
nodes = (
"2385 287 LINE",
"2385 7 LINE",
"2248 -226 LINE",
"2110 -226 LINE",
"2110 287 LINE"
);
}
);
width = 2485;
}
);
unicode = 0429;
},
{
glyphname = "Dzhe-cy";
lastChange = "2017-12-13 09:32:56 +0000";
layers = (
{
layerId = "2087CE79-2284-4DA6-8543-529C0FCE662A";
paths = (
{
closed = 1;
nodes = (
"1375 0 LINE",
"1375 280 LINE",
"1235 280 LINE",
"1235 1120 LINE",
"1375 1120 LINE",
"1375 1400 LINE",
"835 1400 LINE",
"835 1120 LINE",
"955 1120 LINE",
"955 280 LINE",
"910 280 LINE",
"520 280 LINE",
"520 1120 LINE",
"640 1120 LINE",
"640 1400 LINE",
"100 1400 LINE",
"100 1120 LINE",
"240 1120 LINE",
"240 280 LINE",
"100 280 LINE",
"100 0 LINE",
"910 0 LINE"
);
},
{
closed = 1;
nodes = (
"880 0 LINE",
"880 -343 LINE",
"605 -344 LINE",
"605 0 LINE"
);
}
);
width = 1475;
}
);
unicode = 040F;
},
{
glyphname = "Softsign-cy";
lastChange = "2017-12-13 09:35:51 +0000";
layers = (
{
layerId = "2087CE79-2284-4DA6-8543-529C0FCE662A";
paths = (
{
closed = 1;
nodes = (
"795 772 LINE",
"795 773 LINE",
"947 773 LINE",
"1114 673 LINE",
"1114 238 LINE",
"856 0 LINE",
"100 0 LINE",
"100 286 LINE",
"242 286 LINE",
"242 1406 LINE",
"523 1406 LINE",
"523 772 LINE"
);
},
{
closed = 1;
nodes = (
"523 286 LINE",
"795 286 LINE",
"795 497 LINE",
"523 497 LINE"
);
}
);
width = 1214;
}
);
unicode = 042C;
},
{
glyphname = "Hardsign-cy";
lastChange = "2017-12-13 09:37:19 +0000";
layers = (
{
layerId = "2087CE79-2284-4DA6-8543-529C0FCE662A";
paths = (
{
closed = 1;
nodes = (
"523 286 LINE",
"795 286 LINE",
"795 497 LINE",
"523 497 LINE"
);
},
{
closed = 1;
nodes = (
"100 286 LINE",
"242 286 LINE",
"242 1131 LINE",
"100 1131 LINE",
"100 1406 LINE",
"523 1406 LINE",
"523 772 LINE",
"795 772 LINE",
"795 773 LINE",
"947 773 LINE",
"1114 673 LINE",
"1114 238 LINE",
"856 0 LINE",
"100 0 LINE"
);
}
);
width = 1214;
}
);
unicode = 042A;
},
{
glyphname = "Yeru-cy";
lastChange = "2017-12-13 09:38:11 +0000";
layers = (
{
layerId = "2087CE79-2284-4DA6-8543-529C0FCE662A";
paths = (
{
closed = 1;
nodes = (
"795 772 LINE",
"795 773 LINE",
"947 773 LINE",
"1114 673 LINE",
"1114 238 LINE",
"856 0 LINE",
"100 0 LINE",
"100 286 LINE",
"242 286 LINE",
"242 1406 LINE",
"523 1406 LINE",
"523 772 LINE"
);
},
{
closed = 1;
nodes = (
"523 286 LINE",
"795 286 LINE",
"795 497 LINE",
"523 497 LINE"
);
},
{
closed = 1;
nodes = (
"1489 1410 LINE",
"1489 10 LINE",
"1214 10 LINE",
"1214 1410 LINE"
);
}
);
width = 1589;
}
);
unicode = 042B;
},
{
glyphname = "Lje-cy";
lastChange = "2017-12-13 09:42:40 +0000";
layers = (
{
layerId = "2087CE79-2284-4DA6-8543-529C0FCE662A";
paths = (
{
closed = 1;
nodes = (
"1291 1406 LINE",
"1291 772 LINE",
"1563 772 LINE",
"1715 773 LINE",
"1882 673 LINE",
"1882 238 LINE",
"1624 0 LINE",
"1287 0 LINE",
"847 0 LINE",
"847 275 LINE",
"1010 275 LINE",
"1010 1131 LINE",
"703 1131 LINE",
"705 275 LINE",
"705 272 LINE",
"702 272 LINE",
"430 0 LINE",
"100 0 LINE",
"100 275 LINE",
"430 275 LINE",
"430 1135 LINE",
"702 1406 LINE",
"1012 1406 LINE",
"1287 1406 LINE"
);
},
{
closed = 1;
nodes = (
"1291 286 LINE",
"1563 286 LINE",
"1563 497 LINE",
"1291 497 LINE"
);
}
);
width = 1982;
}
);
unicode = 0409;
},
{
glyphname = "Nje-cy";
lastChange = "2017-12-13 09:46:25 +0000";
layers = (
{
layerId = "2087CE79-2284-4DA6-8543-529C0FCE662A";
paths = (
{
closed = 1;
nodes = (
"1004 777 LINE",
"1004 1410 LINE",
"1285 1410 LINE",
"1285 777 LINE",
"1320 777 LINE",
"1320 776 LINE",
"1557 776 LINE",
"1557 777 LINE",
"1709 777 LINE",
"1876 677 LINE",
"1876 242 LINE",
"1618 4 LINE",
"862 4 LINE",
"862 290 LINE",
"1004 290 LINE",
"1004 500 LINE",
"552 500 LINE",
"552 295 LINE",
"729 295 LINE",
"729 0 LINE",
"100 0 LINE",
"100 295 LINE",
"277 295 LINE",
"277 500 LINE",
"100 500 LINE",
"100 777 LINE",
"277 777 LINE",
"277 1109 LINE",
"100 1109 LINE",
"100 1404 LINE",
"729 1404 LINE",
"729 1109 LINE",
"552 1109 LINE",
"552 777 LINE"
);
},
{
closed = 1;
nodes = (
"1285 290 LINE",
"1557 290 LINE",
"1557 501 LINE",
"1285 501 LINE"
);
}
);
width = 1976;
}
);
unicode = 040A;
},
{
glyphname = "E-cy";
lastChange = "2017-12-14 10:07:05 +0000";
layers = (
{
layerId = "2087CE79-2284-4DA6-8543-529C0FCE662A";
paths = (
{
closed = 1;
nodes = (
"1120 980 LINE",
"1120 1176 LINE",
"896 1400 LINE",
"324 1400 LINE",
"100 1176 LINE",
"100 224 LINE",
"324 0 LINE",
"896 0 LINE",
"1120 224 LINE",
"1120 420 LINE",
"840 420 LINE",
"840 280 LINE",
"380 280 LINE",
"380 560 LINE",
"782 560 LINE",
"784 840 LINE",
"380 840 LINE",
"380 1120 LINE",
"840 1120 LINE",
"840 980 LINE"
);
}
);
width = 1220;
}
);
unicode = 0404;
},
{
glyphname = "Ereversed-cy";
lastChange = "2017-12-13 09:47:48 +0000";
layers = (
{
layerId = "2087CE79-2284-4DA6-8543-529C0FCE662A";
paths = (
{
closed = 1;
nodes = (
"380 1120 LINE",
"840 1120 LINE",
"840 840 LINE",
"256 840 LINE",
"256 700 LINE",
"258 560 LINE",
"840 560 LINE",
"840 280 LINE",
"380 280 LINE",
"380 420 LINE",
"100 420 LINE",
"100 224 LINE",
"100 0 LINE",
"896 0 LINE",
"1120 224 LINE",
"1120 616 LINE",
"1036 700 LINE",
"1120 784 LINE",
"1120 1176 LINE",
"896 1400 LINE",
"100 1400 LINE",
"100 1176 LINE",
"100 980 LINE",
"380 980 LINE"
);
}
);
width = 1220;
}
);
unicode = 042D;
},
{
glyphname = "I-cy";
lastChange = "2017-12-13 09:48:23 +0000";
layers = (
{
layerId = "2087CE79-2284-4DA6-8543-529C0FCE662A";
paths = (
{
closed = 1;
nodes = (
"640 280 LINE",
"520 280 LINE",
"520 1120 LINE",
"640 1120 LINE",
"640 1400 LINE",
"100 1400 LINE",
"100 1120 LINE",
"240 1120 LINE",
"240 280 LINE",
"100 280 LINE",
"100 0 LINE",
"640 0 LINE"
);
}
);
width = 740;
}
);
unicode = 0406;
},
{
glyphname = "Tshe-cy";
lastChange = "2017-12-13 09:51:04 +0000";
layers = (
{
layerId = "2087CE79-2284-4DA6-8543-529C0FCE662A";
paths = (
{
closed = 1;
nodes = (
"885 266 LINE",
"885 0 LINE",
"250 0 LINE",
"250 266 LINE",
"409 266 LINE",
"409 1137 LINE",
"100 1137 LINE",
"100 1403 LINE",
"1005 1403 LINE",
"1005 1137 LINE",
"689 1137 LINE",
"689 1136 LINE",
"689 898 LINE",
"1205 898 LINE",
"1429 674 LINE",
"1429 266 LINE",
"1607 266 LINE",
"1607 0 LINE",
"972 0 LINE",
"972 266 LINE",
"1149 266 LINE",
"1149 618 LINE",
"689 618 LINE",
"689 266 LINE"
);
}
);
width = 1707;
}
);
unicode = 040B;
},
{
glyphname = "Iu-cy";
lastChange = "2017-12-13 09:53:50 +0000";
layers = (
{
layerId = "2087CE79-2284-4DA6-8543-529C0FCE662A";
paths = (
{
closed = 1;
nodes = (
"567 563 LINE",
"567 279 LINE",
"759 279 LINE",
"759 4 LINE",
"567 4 LINE",
"567 0 LINE",
"292 0 LINE",
"292 4 LINE",
"100 4 LINE",
"100 279 LINE",
"292 279 LINE",
"292 1138 LINE",
"100 1138 LINE",
"100 1413 LINE",
"759 1413 LINE",
"759 1138 LINE",
"567 1138 LINE",
"567 838 LINE",
"965 838 LINE",
"965 1179 LINE",
"1189 1403 LINE",
"1761 1403 LINE",
"1985 1179 LINE",
"1985 227 LINE",
"1761 3 LINE",
"1189 3 LINE",
"965 227 LINE",
"965 563 LINE"
);
},
{
closed = 1;
nodes = (
"1245 283 LINE",
"1705 283 LINE",
"1705 1123 LINE",
"1245 1123 LINE"
);
}
);
width = 2085;
}
);
unicode = 042E;
},
{
glyphname = "Ia-cy";
lastChange = "2017-12-13 09:17:01 +0000";
layers = (
{
layerId = "2087CE79-2284-4DA6-8543-529C0FCE662A";
paths = (
{
closed = 1;
nodes = (
"1220 0 LINE",
"1220 280 LINE",
"1080 280 LINE",
"1080 1120 LINE",
"1220 1120 LINE",
"1220 1400 LINE",
"464 1400 LINE",
"240 1176 LINE",
"240 784 LINE",
"324 700 LINE",
"240 616 LINE",
"240 280 LINE",
"100 280 LINE",
"100 0 LINE",
"640 0 LINE",
"640 280 LINE",
"520 280 LINE",
"520 560 LINE",
"800 560 LINE",
"800 280 LINE",
"680 280 LINE",
"680 0 LINE"
);
},
{
closed = 1;
nodes = (
"800 840 LINE",
"520 840 LINE",
"520 1120 LINE",
"800 1120 LINE"
);
}
);
width = 1320;
}
);
unicode = 042F;
},
{
glyphname = "Dje-cy";
lastChange = "2017-12-13 09:55:52 +0000";
layers = (
{
layerId = "2087CE79-2284-4DA6-8543-529C0FCE662A";
paths = (
{
closed = 1;
nodes = (
"409 1137 LINE",
"100 1137 LINE",
"100 1403 LINE",
"1005 1403 LINE",
"1005 1137 LINE",
"689 1137 LINE",
"689 1136 LINE",
"689 898 LINE",
"1325 898 LINE",
"1549 674 LINE",
"1549 263 LINE",
"1270 0 LINE",
"980 0 LINE",
"980 263 LINE",
"1269 263 LINE",
"1269 618 LINE",
"689 618 LINE",
"689 266 LINE",
"885 266 LINE",
"885 0 LINE",
"250 0 LINE",
"250 266 LINE",
"409 266 LINE"
);
}
);
width = 1649;
}
);
unicode = 0402;
},
{
glyphname = "Yat-cy";
lastChange = "2017-12-14 10:09:42 +0000";
layers = (
{
guideLines = (
{
angle = 270;
position = "{100, 1320}";
}
);
layerId = "2087CE79-2284-4DA6-8543-529C0FCE662A";
paths = (
{
closed = 1;
nodes = (
"525 286 LINE",
"797 286 LINE",
"797 497 LINE",
"525 497 LINE"
);
},
{
closed = 1;
nodes = (
"100 1272 LINE",
"244 1272 LINE",
"244 1406 LINE",
"525 1406 LINE",
"525 1272 LINE",
"757 1272 LINE",
"757 1058 LINE",
"525 1058 LINE",
"525 772 LINE",
"797 772 LINE",
"797 773 LINE",
"949 773 LINE",
"1116 673 LINE",
"1116 238 LINE",
"858 0 LINE",
"102 0 LINE",
"102 286 LINE",
"244 286 LINE",
"244 1058 LINE",
"100 1058 LINE"
);
}
);
width = 1216;
}
);
unicode = 0462;
},
{
glyphname = "Fita-cy";
lastChange = "2017-12-14 10:21:40 +0000";
layers = (
{
layerId = "2087CE79-2284-4DA6-8543-529C0FCE662A";
paths = (
{
closed = 1;
nodes = (
"324 0 LINE",
"716 0 LINE",
"940 224 LINE",
"940 1176 LINE",
"716 1400 LINE",
"324 1400 LINE",
"100 1176 LINE",
"100 224 LINE"
);
},
{
closed = 1;
nodes = (
"380 707 LINE",
"424 707 LINE",
"424 646 LINE",
"537 521 LINE",
"660 521 LINE",
"660 280 LINE",
"380 280 LINE"
);
},
{
closed = 1;
nodes = (
"380 1120 LINE",
"660 1120 LINE",
"660 660 LINE",
"610 660 LINE",
"610 713 LINE",
"497 845 LINE",
"380 845 LINE"
);
}
);
width = 1040;
}
);
unicode = 0472;
},
{
glyphname = "Izhitsa-cy";
lastChange = "2017-12-14 10:23:05 +0000";
layers = (
{
layerId = "2087CE79-2284-4DA6-8543-529C0FCE662A";
paths = (
{
closed = 1;
nodes = (
"240 1120 LINE",
"520 0 LINE",
"800 0 LINE",
"1080 1120 LINE",
"1220 1120 LINE",
"1220 1400 LINE",
"680 1400 LINE",
"680 1120 LINE",
"800 1120 LINE",
"660 560 LINE",
"520 1120 LINE",
"640 1120 LINE",
"640 1400 LINE",
"100 1400 LINE",
"100 1120 LINE"
);
},
{
closed = 1;
nodes = (
"1495 1400 LINE",
"1495 1120 LINE",
"1358 887 LINE",
"1220 887 LINE",
"1220 1400 LINE"
);
}
);
width = 1595;
}
);
unicode = 0474;
},
{
glyphname = "Ghestroke-cy";
lastChange = "2017-12-13 09:57:41 +0000";
layers = (
{
layerId = "2087CE79-2284-4DA6-8543-529C0FCE662A";
paths = (
{
closed = 1;
nodes = (
"268 1131 LINE",
"268 791 LINE",
"103 791 LINE",
"103 525 LINE",
"268 525 LINE",
"268 276 LINE",
"102 276 LINE",
"102 -1 LINE",
"723 0 LINE",
"723 276 LINE",
"544 276 LINE",
"544 525 LINE",
"738 525 LINE",
"738 791 LINE",
"544 791 LINE",
"544 1131 LINE",
"933 1131 LINE",
"933 996 LINE",
"1209 996 LINE",
"1209 1411 LINE",
"101 1411 LINE",
"101 1131 LINE"
);
}
);
width = 1309;
}
);
unicode = 0492;
},
{
glyphname = "Zhedescender-cy";
lastChange = "2017-12-14 10:19:22 +0000";
layers = (
{
layerId = "2087CE79-2284-4DA6-8543-529C0FCE662A";
paths = (
{
closed = 1;
nodes = (
"100 280 LINE",
"209 280 LINE",
"530 721 LINE",
"210 1116 LINE",
"100 1116 LINE",
"100 1396 LINE",
"640 1396 LINE",
"640 1116 LINE",
"511 1116 LINE",
"816 728 LINE",
"816 1114 LINE",
"684 1114 LINE",
"684 1394 LINE",
"1224 1394 LINE",
"1224 1114 LINE",
"1091 1114 LINE",
"1091 726 LINE",
"1398 1116 LINE",
"1270 1116 LINE",
"1270 1396 LINE",
"1810 1396 LINE",
"1810 1116 LINE",
"1696 1116 LINE",
"1385 730 LINE",
"1713 280 LINE",
"2080 280 LINE",
"2080 0 LINE",
"1943 -233 LINE",
"1805 -233 LINE",
"1805 0 LINE",
"1270 0 LINE",
"1270 280 LINE",
"1417 280 LINE",
"1225 531 LINE",
"1091 366 LINE",
"1091 280 LINE",
"1224 280 LINE",
"1224 0 LINE",
"684 0 LINE",
"684 280 LINE",
"816 280 LINE",
"816 368 LINE",
"691 522 LINE",
"505 280 LINE",
"640 280 LINE",
"640 0 LINE",
"100 0 LINE"
);
}
);
width = 2180;
}
);
unicode = 0496;
},
{
glyphname = "Kadescender-cy";
lastChange = "2017-12-13 09:58:30 +0000";
layers = (
{
components = (
{
name = K;
}
);
layerId = "2087CE79-2284-4DA6-8543-529C0FCE662A";
paths = (
{
closed = 1;
nodes = (
"1217 -233 LINE",
"1355 -233 LINE",
"1492 0 LINE",
"1492 280 LINE",
"1217 280 LINE"
);
}
);
width = 1592;
}
);
unicode = 049A;
},
{
glyphname = "Kastroke-cy";
lastChange = "2017-12-13 10:00:20 +0000";
layers = (
{
layerId = "2087CE79-2284-4DA6-8543-529C0FCE662A";
paths = (
{
closed = 1;
nodes = (
"685 280 LINE",
"565 280 LINE",
"565 400 LINE",
"649 512 LINE",
"829 280 LINE",
"725 280 LINE",
"725 0 LINE",
"1265 0 LINE",
"1265 280 LINE",
"1153 280 LINE",
"829 704 LINE",
"1153 1120 LINE",
"1265 1120 LINE",
"1265 1400 LINE",
"725 1400 LINE",
"725 1120 LINE",
"845 1120 LINE",
"565 748 LINE",
"565 985 LINE",
"685 985 LINE",
"685 1265 LINE",
"560 1265 LINE",
"560 1400 LINE",
"269 1400 LINE",
"269 1265 LINE",
"100 1265 LINE",
"100 985 LINE",
"285 985 LINE",
"285 280 LINE",
"145 280 LINE",
"145 0 LINE",
"685 0 LINE"
);
}
);
width = 1365;
}
);
unicode = 049E;
},
{
glyphname = "Endescender-cy";
lastChange = "2017-12-14 10:13:42 +0000";
layers = (
{
layerId = "2087CE79-2284-4DA6-8543-529C0FCE662A";
paths = (
{
closed = 1;
nodes = (
"640 0 LINE",
"640 280 LINE",
"520 280 LINE",
"520 560 LINE",
"800 560 LINE",
"800 280 LINE",
"680 280 LINE",
"680 0 LINE",
"1207 0 LINE",
"1207 -233 LINE",
"1345 -233 LINE",
"1482 0 LINE",
"1482 280 LINE",
"1080 280 LINE",
"1080 1120 LINE",
"1220 1120 LINE",
"1220 1400 LINE",
"680 1400 LINE",
"680 1120 LINE",
"800 1120 LINE",
"800 840 LINE",
"520 840 LINE",
"520 1120 LINE",
"640 1120 LINE",
"640 1400 LINE",
"100 1400 LINE",
"100 1120 LINE",
"240 1120 LINE",
"240 280 LINE",
"100 280 LINE",
"100 0 LINE"
);
}
);
width = 1582;
}
);
unicode = 04A2;
},
{
glyphname = "Pedescender-cy";
lastChange = "2017-12-13 10:02:48 +0000";
layers = (
{
layerId = "2087CE79-2284-4DA6-8543-529C0FCE662A";
paths = (
{
closed = 1;
nodes = (
"1450 1400 LINE",
"1450 1120 LINE",
"1310 1120 LINE",
"1310 280 LINE",
"1450 280 LINE",
"1450 0 LINE",
"910 0 LINE",
"910 280 LINE",
"1030 280 LINE",
"1030 1120 LINE",
"910 1120 LINE",
"520 1120 LINE",
"520 280 LINE",
"640 280 LINE",
"640 0 LINE",
"100 0 LINE",
"100 280 LINE",
"240 280 LINE",
"240 1120 LINE",
"100 1120 LINE",
"100 1400 LINE",
"910 1400 LINE"
);
},
{
closed = 1;
nodes = (
"1452 -233 LINE",
"1590 -233 LINE",
"1727 0 LINE",
"1727 280 LINE",
"1452 280 LINE"
);
}
);
width = 1827;
}
);
unicode = 0524;
},
{
glyphname = "Haabkhasian-cy";
lastChange = "2017-12-13 10:19:57 +0000";
layers = (
{
layerId = "2087CE79-2284-4DA6-8543-529C0FCE662A";
paths = (
{
closed = 1;
nodes = (
"1644 801 LINE",
"1644 496 LINE",
"1335 496 LINE",
"1335 277 LINE",
"1060 0 LINE",
"1060 2 LINE",
"1059 0 LINE",
"373 0 LINE",
"102 273 LINE",
"100 273 LINE",
"100 1400 LINE",
"375 1400 LINE",
"375 275 LINE",
"1060 275 LINE",
"1060 496 LINE",
"830 496 LINE",
"577 670 LINE",
"577 1011 LINE",
"850 1236 LINE",
"850 1238 LINE",
"1064 1238 LINE",
"1335 963 LINE",
"1333 1013 LINE",
"1335 962 LINE",
"1335 801 LINE"
);
},
{
closed = 1;
nodes = (
"1060 923 LINE",
"852 923 LINE",
"852 760 LINE",
"1060 761 LINE"
);
}
);
width = 1744;
}
);
unicode = 04A8;
},
{
glyphname = "Tedescender-cy";
lastChange = "2017-12-13 10:03:24 +0000";
layers = (
{
components = (
{
name = T;
}
);
layerId = "2087CE79-2284-4DA6-8543-529C0FCE662A";
paths = (
{
closed = 1;
nodes = (
"937 -233 LINE",
"1075 -233 LINE",
"1212 0 LINE",
"1212 280 LINE",
"937 280 LINE"
);
}
);
width = 1320;
}
);
unicode = 04AC;
},
{
glyphname = "Ustrait-cy";
lastChange = "2017-12-14 10:16:55 +0000";
layers = (
{
layerId = "2087CE79-2284-4DA6-8543-529C0FCE662A";
paths = (
{
closed = 1;
nodes = (
"520 700 LINE",
"520 280 LINE",
"380 280 LINE",
"380 0 LINE",
"940 0 LINE",
"940 280 LINE",
"800 280 LINE",
"800 700 LINE",
"1080 1120 LINE",
"1220 1120 LINE",
"1220 1400 LINE",
"680 1400 LINE",
"680 1120 LINE",
"800 1120 LINE",
"660 910 LINE",
"520 1120 LINE",
"640 1120 LINE",
"640 1400 LINE",
"100 1400 LINE",
"100 1120 LINE",
"240 1120 LINE"
);
}
);
width = 1320;
}
);
unicode = 04AE;
},
{
glyphname = "Ustraitstroke-cy";
lastChange = "2017-12-14 10:17:52 +0000";
layers = (
{
layerId = "2087CE79-2284-4DA6-8543-529C0FCE662A";
paths = (
{
closed = 1;
nodes = (
"240 1120 LINE",
"520 700 LINE",
"520 631 LINE",
"115 631 LINE",
"115 417 LINE",
"520 417 LINE",
"520 280 LINE",
"380 280 LINE",
"380 0 LINE",
"940 0 LINE",
"940 280 LINE",
"800 280 LINE",
"800 417 LINE",
"1176 417 LINE",
"1176 631 LINE",
"800 631 LINE",
"800 700 LINE",
"1080 1120 LINE",
"1220 1120 LINE",
"1220 1400 LINE",
"680 1400 LINE",
"680 1120 LINE",
"800 1120 LINE",
"660 910 LINE",
"520 1120 LINE",
"640 1120 LINE",
"640 1400 LINE",
"100 1400 LINE",
"100 1120 LINE"
);
}
);
width = 1320;
}
);
unicode = 04B0;
},
{
glyphname = "Hadescender-cy";
lastChange = "2017-12-13 10:04:11 +0000";
layers = (
{
components = (
{
name = X;
}
);
layerId = "2087CE79-2284-4DA6-8543-529C0FCE662A";
paths = (
{
closed = 1;
nodes = (
"1212 -233 LINE",
"1350 -233 LINE",
"1487 0 LINE",
"1487 280 LINE",
"1212 280 LINE"
);
}
);
width = 1320;
}
);
unicode = 04B2;
},
{
glyphname = "Tetse-cy";
lastChange = "2017-12-13 10:06:58 +0000";
layers = (
{
layerId = "2087CE79-2284-4DA6-8543-529C0FCE662A";
paths = (
{
closed = 1;
nodes = (
"1855 3 LINE",
"1855 283 LINE",
"1715 283 LINE",
"1715 1123 LINE",
"1855 1123 LINE",
"1855 1403 LINE",
"1315 1403 LINE",
"1315 1123 LINE",
"1435 1123 LINE",
"1435 283 LINE",
"1390 283 LINE",
"745 283 LINE",
"745 1123 LINE",
"1150 1123 LINE",
"1150 1403 LINE",
"100 1403 LINE",
"100 1123 LINE",
"465 1123 LINE",
"465 283 LINE",
"325 283 LINE",
"325 3 LINE",
"1390 3 LINE"
);
},
{
closed = 1;
nodes = (
"2130 283 LINE",
"2130 3 LINE",
"1993 -230 LINE",
"1855 -230 LINE",
"1855 283 LINE"
);
}
);
width = 2230;
}
);
unicode = 04B4;
},
{
glyphname = "Chedescender-cy";
lastChange = "2017-12-13 10:07:36 +0000";
layers = (
{
layerId = "2087CE79-2284-4DA6-8543-529C0FCE662A";
paths = (
{
closed = 1;
nodes = (
"822 1137 LINE",
"822 1403 LINE",
"1457 1403 LINE",
"1457 1137 LINE",
"1298 1137 LINE",
"1298 266 LINE",
"1457 266 LINE",
"1457 0 LINE",
"822 0 LINE",
"822 266 LINE",
"1018 266 LINE",
"1018 268 LINE",
"1018 415 LINE",
"502 415 LINE",
"278 639 LINE",
"278 1137 LINE",
"100 1137 LINE",
"100 1403 LINE",
"735 1403 LINE",
"735 1137 LINE",
"558 1137 LINE",
"558 695 LINE",
"1018 695 LINE",
"1018 1137 LINE"
);
},
{
closed = 1;
nodes = (
"1732 266 LINE",
"1732 -14 LINE",
"1595 -247 LINE",
"1457 -247 LINE",
"1457 266 LINE"
);
}
);
width = 1832;
}
);
unicode = 04B6;
},
{
glyphname = "Shha-cy";
lastChange = "2017-12-14 10:15:54 +0000";
layers = (
{
layerId = "2087CE79-2284-4DA6-8543-529C0FCE662A";
paths = (
{
closed = 1;
nodes = (
"735 266 LINE",
"735 0 LINE",
"100 0 LINE",
"100 266 LINE",
"259 266 LINE",
"259 1137 LINE",
"100 1137 LINE",
"100 1403 LINE",
"735 1403 LINE",
"735 1137 LINE",
"539 1137 LINE",
"539 1135 LINE",
"539 988 LINE",
"1055 988 LINE",
"1279 764 LINE",
"1279 266 LINE",
"1457 266 LINE",
"1457 0 LINE",
"822 0 LINE",
"822 266 LINE",
"999 266 LINE",
"999 708 LINE",
"539 708 LINE",
"539 266 LINE"
);
}
);
width = 1557;
}
);
unicode = 04BA;
},
{
glyphname = "Cheabkhasian-cy";
lastChange = "2017-12-13 10:30:08 +0000";
layers = (
{
layerId = "2087CE79-2284-4DA6-8543-529C0FCE662A";
paths = (
{
closed = 1;
nodes = (
"1282 1120 LINE",
"1280 1120 LINE",
"820 1120 LINE",
"820 840 LINE",
"1282 839 LINE"
);
},
{
closed = 1;
nodes = (
"1560 560 LINE",
"820 560 LINE",
"820 280 LINE",
"1280 280 LINE",
"1560 280 LINE",
"1560 224 LINE",
"1336 0 LINE",
"764 0 LINE",
"540 224 LINE",
"540 561 LINE",
"270 561 LINE",
"100 700 LINE",
"100 836 LINE",
"540 836 LINE",
"540 1176 LINE",
"764 1400 LINE",
"1336 1400 LINE",
"1560 1176 LINE"
);
}
);
width = 1660;
}
);
unicode = 04BC;
},
{
glyphname = "Chedescenderabkhasian-cy";
lastChange = "2017-12-13 10:31:09 +0000";
layers = (
{
layerId = "2087CE79-2284-4DA6-8543-529C0FCE662A";
paths = (
{
closed = 1;
nodes = (
"1282 1120 LINE",
"1280 1120 LINE",
"820 1120 LINE",
"820 840 LINE",
"1282 839 LINE"
);
},
{
closed = 1;
nodes = (
"100 836 LINE",
"540 836 LINE",
"540 1176 LINE",
"764 1400 LINE",
"1336 1400 LINE",
"1560 1176 LINE",
"1560 560 LINE",
"820 560 LINE",
"820 280 LINE",
"1560 280 LINE",
"1560 224 LINE",
"1336 0 LINE",
"1195 0 LINE",
"1195 -343 LINE",
"920 -344 LINE",
"920 0 LINE",
"764 0 LINE",
"540 224 LINE",
"540 561 LINE",
"270 561 LINE",
"100 700 LINE"
);
}
);
width = 1660;
}
);
unicode = 04BE;
},
{
glyphname = "Palochka-cy";
lastChange = "2017-12-13 10:33:21 +0000";
layers = (
{
layerId = "2087CE79-2284-4DA6-8543-529C0FCE662A";
paths = (
{
closed = 1;
nodes = (
"380 280 LINE",
"380 1120 LINE",
"380 1400 LINE",
"100 1400 LINE",
"100 1120 LINE",
"100 280 LINE",
"100 0 LINE",
"380 0 LINE"
);
}
);
width = 480;
}
);
unicode = 04C0;
},
{
glyphname = "Schwa-cy";
lastChange = "2017-12-13 10:34:01 +0000";
layers = (
{
layerId = "2087CE79-2284-4DA6-8543-529C0FCE662A";
paths = (
{
closed = 1;
nodes = (
"378 280 LINE",
"380 280 LINE",
"840 280 LINE",
"840 560 LINE",
"378 561 LINE"
);
},
{
closed = 1;
nodes = (
"100 840 LINE",
"840 840 LINE",
"840 1120 LINE",
"380 1120 LINE",
"100 1120 LINE",
"100 1176 LINE",
"324 1400 LINE",
"896 1400 LINE",
"1120 1176 LINE",
"1120 224 LINE",
"896 0 LINE",
"324 0 LINE",
"100 224 LINE"
);
}
);
width = 1220;
}
);
unicode = 04D8;
},
{
glyphname = "Dzeabkhasian-cy";
lastChange = "2017-12-13 10:35:50 +0000";
layers = (
{
layerId = "2087CE79-2284-4DA6-8543-529C0FCE662A";
paths = (
{
closed = 1;
nodes = (
"810 1120 LINE",
"580 557 LINE",
"840 557 LINE",
"840 280 LINE",
"380 280 LINE",
"380 420 LINE",
"100 420 LINE",
"100 224 LINE",
"324 0 LINE",
"896 0 LINE",
"1120 224 LINE",
"1120 661 LINE",
"1036 745 LINE",
"929 745 LINE",
"1120 1176 LINE",
"896 1400 LINE",
"249 1400 LINE",
"249 1120 LINE"
);
}
);
width = 1220;
}
);
unicode = 04E0;
},
{
glyphname = "Obarred-cy";
lastChange = "2017-12-14 09:06:49 +0000";
layers = (
{
layerId = "2087CE79-2284-4DA6-8543-529C0FCE662A";
paths = (
{
closed = 1;
nodes = (
"324 0 LINE",
"986 0 LINE",
"1210 224 LINE",
"1210 1176 LINE",
"986 1400 LINE",
"324 1400 LINE",
"100 1176 LINE",
"100 224 LINE"
);
},
{
closed = 1;
nodes = (
"380 563 LINE",
"930 563 LINE",
"930 280 LINE",
"380 280 LINE"
);
},
{
closed = 1;
nodes = (
"380 1120 LINE",
"930 1120 LINE",
"930 838 LINE",
"380 838 LINE"
);
}
);
width = 1310;
}
);
unicode = 04E8;
},
{
glyphname = "Gedescender-cy";
lastChange = "2017-12-13 10:25:59 +0000";
layers = (
{
layerId = "2087CE79-2284-4DA6-8543-529C0FCE662A";
paths = (
{
closed = 1;
nodes = (
"933 1131 LINE",
"933 997 LINE",
"933 996 LINE",
"934 996 LINE",
"1209 996 LINE",
"1209 997 LINE",
"1209 1410 LINE",
"1209 1411 LINE",
"101 1411 LINE",
"101 1407 LINE",
"101 1131 LINE",
"268 1131 LINE",
"268 275 LINE",
"268 276 LINE",
"103 276 LINE",
"102 276 LINE",
"102 275 LINE",
"102 0 LINE",
"102 -1 LINE",
"103 -1 LINE",
"723 0 LINE",
"723 276 LINE",
"543 276 LINE",
"544 275 LINE",
"544 1131 LINE",
"543 1131 LINE",
"934 1131 LINE"
);
},
{
closed = 1;
nodes = (
"706 -237 LINE",
"844 -237 LINE",
"981 -4 LINE",
"981 276 LINE",
"706 276 LINE"
);
}
);
width = 1309;
}
);
unicode = 04F6;
},
{
glyphname = "We-cy";
lastChange = "2017-12-14 10:31:19 +0000";
layers = (
{
layerId = "2087CE79-2284-4DA6-8543-529C0FCE662A";
paths = (
{
closed = 1;
nodes = (
"380 280 LINE",
"240 280 LINE",
"240 0 LINE",
"780 0 LINE",
"780 280 LINE",
"660 280 LINE",
"800 560 LINE",
"940 280 LINE",
"820 280 LINE",
"820 0 LINE",
"1360 0 LINE",
"1360 280 LINE",
"1220 280 LINE",
"1360 1120 LINE",
"1500 1120 LINE",
"1500 1400 LINE",
"940 1400 LINE",
"940 1120 LINE",
"1080 1120 LINE",
"1008 700 LINE",
"800 1120 LINE",
"592 700 LINE",
"520 1120 LINE",
"660 1120 LINE",
"660 1400 LINE",
"100 1400 LINE",
"100 1120 LINE",
"240 1120 LINE"
);
}
);
width = 1600;
}
);
unicode = 051C;
},
{
glyphname = "be-cy";
lastChange = "2017-12-13 07:44:40 +0000";
layers = (
{
layerId = "2087CE79-2284-4DA6-8543-529C0FCE662A";
paths = (
{
closed = 1;
nodes = (
"527 286 LINE",
"799 286 LINE",
"799 507 LINE",
"527 507 LINE"
);
},
{
closed = 1;
nodes = (
"860 783 LINE",
"1118 593 LINE",
"1118 231 LINE",
"860 0 LINE",
"104 0 LINE",
"104 286 LINE",
"246 286 LINE",
"246 1120 LINE",
"100 1120 LINE",
"100 1406 LINE",
"1117 1406 LINE",
"1118 1406 LINE",
"1118 939 LINE",
"799 939 LINE",
"799 1120 LINE",
"527 1120 LINE",
"527 782 LINE"
);
}
);
width = 1218;
}
);
unicode = 0431;
},
{
glyphname = "ge-cy";
lastChange = "2017-12-13 07:44:58 +0000";
layers = (
{
layerId = "2087CE79-2284-4DA6-8543-529C0FCE662A";
paths = (
{
closed = 1;
nodes = (
"933 1131 LINE",
"933 997 LINE",
"933 996 LINE",
"934 996 LINE",
"1209 996 LINE",
"1209 996 LINE",
"1209 997 LINE",
"1209 1410 LINE",
"1209 1411 LINE",
"1209 1411 LINE",
"101 1411 LINE",
"101 1407 LINE",
"101 1131 LINE",
"101 1131 LINE",
"101 1131 LINE",
"268 1131 LINE",
"268 1131 LINE",
"268 275 LINE",
"268 276 LINE",
"103 276 LINE",
"102 276 LINE",
"102 275 LINE",
"102 0 LINE",
"102 -1 LINE",
"103 -1 LINE",
"723 -1 LINE",
"723 -1 LINE",
"723 0 LINE",
"723 275 LINE",
"723 276 LINE",
"723 276 LINE",
"543 276 LINE",
"544 275 LINE",
"544 1131 LINE",
"543 1131 LINE",
"934 1131 LINE"
);
}
);
width = 1309;
}
);
unicode = 0433;
},
{
glyphname = "gje-cy";
lastChange = "2017-12-13 07:45:11 +0000";
layers = (
{
components = (
{
name = acute;
transform = "{1, 0, 0, 1, 484, 9}";
}
);
layerId = "2087CE79-2284-4DA6-8543-529C0FCE662A";
paths = (
{
closed = 1;
nodes = (
"933 1131 LINE",
"933 997 LINE",
"933 996 LINE",
"934 996 LINE",
"1209 996 LINE",
"1209 996 LINE",
"1209 997 LINE",
"1209 1410 LINE",
"1209 1411 LINE",
"1209 1411 LINE",
"101 1411 LINE",
"101 1407 LINE",
"101 1131 LINE",
"101 1131 LINE",
"101 1131 LINE",
"268 1131 LINE",
"268 1131 LINE",
"268 275 LINE",
"268 276 LINE",
"103 276 LINE",
"102 276 LINE",
"102 275 LINE",
"102 0 LINE",
"102 -1 LINE",
"103 -1 LINE",
"723 -1 LINE",
"723 -1 LINE",
"723 0 LINE",
"723 275 LINE",
"723 276 LINE",
"723 276 LINE",
"543 276 LINE",
"544 275 LINE",
"544 1131 LINE",
"543 1131 LINE",
"934 1131 LINE"
);
}
);
width = 1309;
}
);
unicode = 0453;
},
{
glyphname = "gheupturn-cy";
lastChange = "2017-12-14 10:06:29 +0000";
layers = (
{
layerId = "2087CE79-2284-4DA6-8543-529C0FCE662A";
paths = (
{
closed = 1;
nodes = (
"933 1131 LINE",
"1209 1131 LINE",
"1209 1621 LINE",
"921 1621 LINE",
"921 1411 LINE",
"101 1411 LINE",
"101 1407 LINE",
"101 1131 LINE",
"268 1131 LINE",
"268 275 LINE",
"268 276 LINE",
"103 276 LINE",
"102 276 LINE",
"102 275 LINE",
"102 0 LINE",
"102 -1 LINE",
"103 -1 LINE",
"723 -1 LINE",
"723 276 LINE",
"543 276 LINE",
"544 275 LINE",
"544 1131 LINE",
"543 1131 LINE",
"934 1131 LINE"
);
}
);
width = 1309;
}
);
unicode = 0491;
},
{
glyphname = "de-cy";
lastChange = "2017-12-13 07:45:23 +0000";
layers = (
{
layerId = "2087CE79-2284-4DA6-8543-529C0FCE662A";
paths = (
{
closed = 1;
nodes = (
"1489 273 LINE",
"1489 -274 LINE",
"1214 -274 LINE",
"1214 -2 LINE",
"375 -2 LINE",
"375 -274 LINE",
"100 -274 LINE",
"100 -2 LINE",
"100 273 LINE",
"296 273 LINE",
"296 1132 LINE",
"433 1265 LINE",
"568 1396 LINE",
"568 1397 LINE",
"569 1397 LINE",
"571 1399 LINE",
"571 1397 LINE",
"1489 1397 LINE",
"1489 1122 LINE",
"1272 1122 LINE",
"1272 273 LINE"
);
},
{
closed = 1;
nodes = (
"997 1122 LINE",
"571 1122 LINE",
"571 273 LINE",
"997 273 LINE"
);
}
);
width = 1589;
}
);
unicode = 0434;
},
{
glyphname = "zhe-cy";
lastChange = "2017-12-13 07:57:21 +0000";
layers = (
{
layerId = "2087CE79-2284-4DA6-8543-529C0FCE662A";
paths = (
{
closed = 1;
nodes = (
"1091 366 LINE",
"1091 280 LINE",
"1224 280 LINE",
"1224 0 LINE",
"1104 0 LINE",
"824 0 LINE",
"684 0 LINE",
"684 280 LINE",
"816 280 LINE",
"816 368 LINE",
"691 522 LINE",
"505 280 LINE",
"640 280 LINE",
"640 0 LINE",
"520 0 LINE",
"240 0 LINE",
"100 0 LINE",
"100 280 LINE",
"209 280 LINE",
"530 721 LINE",
"210 1116 LINE",
"100 1116 LINE",
"100 1396 LINE",
"640 1396 LINE",
"640 1116 LINE",
"520 1116 LINE",
"511 1116 LINE",
"816 728 LINE",
"816 1114 LINE",
"684 1114 LINE",
"684 1394 LINE",
"1224 1394 LINE",
"1224 1114 LINE",
"1104 1114 LINE",
"1091 1114 LINE",
"1091 726 LINE",
"1398 1116 LINE",
"1270 1116 LINE",
"1270 1396 LINE",
"1810 1396 LINE",
"1810 1116 LINE",
"1696 1116 LINE",
"1385 730 LINE",
"1713 280 LINE",
"1810 280 LINE",
"1810 0 LINE",
"1690 0 LINE",
"1410 0 LINE",
"1270 0 LINE",
"1270 280 LINE",
"1417 280 LINE",
"1225 531 LINE"
);
}
);
width = 1910;
}
);
unicode = 0436;
},
{
glyphname = "ze-cy";
lastChange = "2017-12-13 08:01:56 +0000";
layers = (
{
layerId = "2087CE79-2284-4DA6-8543-529C0FCE662A";
paths = (
{
closed = 1;
nodes = (
"380 1120 LINE",
"840 1120 LINE",
"840 840 LINE",
"576 840 LINE",
"502 700 LINE",
"578 560 LINE",
"840 560 LINE",
"840 280 LINE",
"380 280 LINE",
"380 420 LINE",
"100 420 LINE",
"100 224 LINE",
"324 0 LINE",
"896 0 LINE",
"1120 224 LINE",
"1120 616 LINE",
"1036 700 LINE",
"1120 784 LINE",
"1120 1176 LINE",
"896 1400 LINE",
"324 1400 LINE",
"100 1176 LINE",
"100 980 LINE",
"380 980 LINE"
);
}
);
width = 1220;
}
);
unicode = 0437;
},
{
glyphname = "ii-cy";
lastChange = "2017-12-13 08:03:14 +0000";
layers = (
{
layerId = "2087CE79-2284-4DA6-8543-529C0FCE662A";
paths = (
{
closed = 1;
nodes = (
"1360 0 LINE",
"1360 280 LINE",
"1220 280 LINE",
"1220 1120 LINE",
"1360 1120 LINE",
"1360 1400 LINE",
"940 1400 LINE",
"520 600 LINE",
"520 1120 LINE",
"660 1120 LINE",
"660 1400 LINE",
"100 1400 LINE",
"100 1120 LINE",
"240 1120 LINE",
"240 0 LINE",
"520 0 LINE",
"940 800 LINE",
"940 280 LINE",
"800 280 LINE",
"800 0 LINE"
);
}
);
width = 1460;
}
);
unicode = 0438;
},
{
glyphname = "iishort-cy";
lastChange = "2017-12-13 08:03:27 +0000";
layers = (
{
components = (
{
name = breve;
transform = "{1, 0, 0, 1, 127, 42}";
}
);
layerId = "2087CE79-2284-4DA6-8543-529C0FCE662A";
paths = (
{
closed = 1;
nodes = (
"1360 0 LINE",
"1360 280 LINE",
"1220 280 LINE",
"1220 1120 LINE",
"1360 1120 LINE",
"1360 1400 LINE",
"940 1400 LINE",
"520 600 LINE",
"520 1120 LINE",
"660 1120 LINE",
"660 1400 LINE",
"100 1400 LINE",
"100 1120 LINE",
"240 1120 LINE",
"240 0 LINE",
"520 0 LINE",
"940 800 LINE",
"940 280 LINE",
"800 280 LINE",
"800 0 LINE"
);
}
);
width = 1460;
}
);
unicode = 0439;
},
{
glyphname = "el-cy";
lastChange = "2017-12-13 09:07:03 +0000";
layers = (
{
layerId = "2087CE79-2284-4DA6-8543-529C0FCE662A";
paths = (
{
closed = 1;
nodes = (
"430 1135 LINE",
"702 1406 LINE",
"1467 1406 LINE",
"1467 1131 LINE",
"1287 1131 LINE",
"1287 275 LINE",
"1467 275 LINE",
"1467 0 LINE",
"847 0 LINE",
"847 275 LINE",
"1012 275 LINE",
"1012 1131 LINE",
"703 1131 LINE",
"705 275 LINE",
"430 0 LINE",
"100 0 LINE",
"100 275 LINE",
"430 275 LINE"
);
}
);
width = 1567;
}
);
unicode = 043B;
},
{
glyphname = "pe-cy";
lastChange = "2017-12-13 05:17:51 +0000";
layers = (
{
layerId = "2087CE79-2284-4DA6-8543-529C0FCE662A";
paths = (
{
closed = 1;
nodes = (
"1450 1400 LINE",
"1450 1120 LINE",
"1310 1120 LINE",
"1310 280 LINE",
"1450 280 LINE",
"1450 0 LINE",
"910 0 LINE",
"910 280 LINE",
"1030 280 LINE",
"1030 1120 LINE",
"910 1120 LINE",
"520 1120 LINE",
"520 280 LINE",
"640 280 LINE",
"640 0 LINE",
"100 0 LINE",
"100 280 LINE",
"240 280 LINE",
"240 1120 LINE",
"100 1120 LINE",
"100 1400 LINE",
"910 1400 LINE"
);
}
);
width = 1550;
}
);
unicode = 043F;
},
{
glyphname = "u-cy";
lastChange = "2017-12-13 09:14:23 +0000";
layers = (
{
layerId = "2087CE79-2284-4DA6-8543-529C0FCE662A";
paths = (
{
closed = 1;
nodes = (
"1298 280 LINE",
"1032 -2 LINE",
"544 -3 LINE",
"281 275 LINE",
"281 501 LINE",
"556 501 LINE",
"556 275 LINE",
"1018 275 LINE",
"1018 594 LINE",
"502 594 LINE",
"278 818 LINE",
"278 1140 LINE",
"100 1140 LINE",
"100 1406 LINE",
"735 1406 LINE",
"735 1140 LINE",
"558 1140 LINE",
"558 874 LINE",
"1018 874 LINE",
"1018 1140 LINE",
"822 1140 LINE",
"822 1406 LINE",
"1457 1406 LINE",
"1457 1140 LINE",
"1298 1140 LINE"
);
}
);
width = 1557;
}
);
unicode = 0443;
},
{
glyphname = "ushort-cy";
lastChange = "2017-12-13 09:14:56 +0000";
layers = (
{
components = (
{
name = breve;
transform = "{1, 0, 0, 1, 127, 42}";
}
);
layerId = "2087CE79-2284-4DA6-8543-529C0FCE662A";
paths = (
{
closed = 1;
nodes = (
"1298 280 LINE",
"1032 -2 LINE",
"544 -3 LINE",
"281 275 LINE",
"281 501 LINE",
"556 501 LINE",
"556 275 LINE",
"1018 275 LINE",
"1018 594 LINE",
"502 594 LINE",
"278 818 LINE",
"278 1140 LINE",
"100 1140 LINE",
"100 1406 LINE",
"735 1406 LINE",
"735 1140 LINE",
"558 1140 LINE",
"558 874 LINE",
"1018 874 LINE",
"1018 1140 LINE",
"822 1140 LINE",
"822 1406 LINE",
"1457 1406 LINE",
"1457 1140 LINE",
"1298 1140 LINE"
);
}
);
width = 1557;
}
);
unicode = 045E;
},
{
glyphname = "ef-cy";
lastChange = "2017-12-13 09:29:09 +0000";
layers = (
{
layerId = "2087CE79-2284-4DA6-8543-529C0FCE662A";
paths = (
{
closed = 1;
nodes = (
"375 772 LINE",
"1062 772 LINE",
"1062 625 LINE",
"375 625 LINE"
);
},
{
closed = 1;
nodes = (
"373 360 LINE",
"1059 360 LINE",
"1335 633 LINE",
"1337 633 LINE",
"1337 774 LINE",
"1334 774 LINE",
"1062 1047 LINE",
"371 1047 LINE",
"102 774 LINE",
"100 774 LINE",
"100 633 LINE",
"101 633 LINE"
);
},
{
closed = 1;
nodes = (
"972 0 LINE",
"972 280 LINE",
"852 280 LINE",
"852 1134 LINE",
"971 1134 LINE",
"972 1400 LINE",
"433 1400 LINE",
"433 1134 LINE",
"572 1134 LINE",
"572 280 LINE",
"432 280 LINE",
"432 0 LINE"
);
}
);
width = 1437;
}
);
unicode = 0444;
},
{
glyphname = "che-cy";
lastChange = "2017-12-13 09:16:24 +0000";
layers = (
{
layerId = "2087CE79-2284-4DA6-8543-529C0FCE662A";
paths = (
{
closed = 1;
nodes = (
"822 1137 LINE",
"822 1403 LINE",
"1457 1403 LINE",
"1457 1137 LINE",
"1298 1137 LINE",
"1298 266 LINE",
"1457 266 LINE",
"1457 0 LINE",
"822 0 LINE",
"822 266 LINE",
"1018 266 LINE",
"1018 268 LINE",
"1018 415 LINE",
"502 415 LINE",
"278 639 LINE",
"278 1137 LINE",
"100 1137 LINE",
"100 1403 LINE",
"735 1403 LINE",
"735 1137 LINE",
"558 1137 LINE",
"558 695 LINE",
"1018 695 LINE",
"1018 1137 LINE"
);
}
);
width = 1557;
}
);
unicode = 0447;
},
{
glyphname = "tse-cy";
lastChange = "2017-12-13 09:33:18 +0000";
layers = (
{
layerId = "2087CE79-2284-4DA6-8543-529C0FCE662A";
paths = (
{
closed = 1;
nodes = (
"1375 0 LINE",
"1375 280 LINE",
"1235 280 LINE",
"1235 1120 LINE",
"1375 1120 LINE",
"1375 1400 LINE",
"835 1400 LINE",
"835 1120 LINE",
"955 1120 LINE",
"955 280 LINE",
"910 280 LINE",
"520 280 LINE",
"520 1120 LINE",
"640 1120 LINE",
"640 1400 LINE",
"100 1400 LINE",
"100 1120 LINE",
"240 1120 LINE",
"240 280 LINE",
"100 280 LINE",
"100 0 LINE",
"910 0 LINE"
);
},
{
closed = 1;
nodes = (
"1650 280 LINE",
"1650 0 LINE",
"1513 -233 LINE",
"1375 -233 LINE",
"1375 280 LINE"
);
}
);
width = 1750;
}
);
unicode = 0446;
},
{
glyphname = "sha-cy";
lastChange = "2017-12-13 09:33:30 +0000";
layers = (
{
layerId = "2087CE79-2284-4DA6-8543-529C0FCE662A";
paths = (
{
closed = 1;
nodes = (
"1235 280 LINE",
"1235 1120 LINE",
"1375 1120 LINE",
"1375 1400 LINE",
"835 1400 LINE",
"835 1120 LINE",
"955 1120 LINE",
"955 280 LINE",
"910 280 LINE",
"520 280 LINE",
"520 1120 LINE",
"640 1120 LINE",
"640 1400 LINE",
"100 1400 LINE",
"100 1120 LINE",
"240 1120 LINE",
"240 280 LINE",
"100 280 LINE",
"100 0 LINE",
"910 0 LINE",
"1375 0 LINE",
"2110 0 LINE",
"2110 280 LINE",
"1970 280 LINE",
"1970 1120 LINE",
"2110 1120 LINE",
"2110 1400 LINE",
"1570 1400 LINE",
"1570 1120 LINE",
"1690 1120 LINE",
"1690 280 LINE",
"1375 280 LINE"
);
}
);
width = 2210;
}
);
unicode = 0448;
},
{
glyphname = "shcha-cy";
lastChange = "2017-12-13 09:33:42 +0000";
layers = (
{
layerId = "2087CE79-2284-4DA6-8543-529C0FCE662A";
paths = (
{
closed = 1;
nodes = (
"1235 288 LINE",
"1235 1128 LINE",
"1375 1128 LINE",
"1375 1408 LINE",
"835 1408 LINE",
"835 1128 LINE",
"955 1128 LINE",
"955 288 LINE",
"910 288 LINE",
"520 288 LINE",
"520 1128 LINE",
"640 1128 LINE",
"640 1408 LINE",
"100 1408 LINE",
"100 1128 LINE",
"240 1128 LINE",
"240 288 LINE",
"100 288 LINE",
"100 8 LINE",
"910 8 LINE",
"1375 8 LINE",
"2110 8 LINE",
"2110 288 LINE",
"1970 288 LINE",
"1970 1128 LINE",
"2110 1128 LINE",
"2110 1408 LINE",
"1570 1408 LINE",
"1570 1128 LINE",
"1690 1128 LINE",
"1690 288 LINE",
"1375 288 LINE"
);
},
{
closed = 1;
nodes = (
"2385 287 LINE",
"2385 7 LINE",
"2248 -226 LINE",
"2110 -226 LINE",
"2110 287 LINE"
);
}
);
width = 2485;
}
);
unicode = 0449;
},
{
glyphname = "dzhe-cy";
lastChange = "2017-12-13 09:33:54 +0000";
layers = (
{
layerId = "2087CE79-2284-4DA6-8543-529C0FCE662A";
paths = (
{
closed = 1;
nodes = (
"1375 0 LINE",
"1375 280 LINE",
"1235 280 LINE",
"1235 1120 LINE",
"1375 1120 LINE",
"1375 1400 LINE",
"835 1400 LINE",
"835 1120 LINE",
"955 1120 LINE",
"955 280 LINE",
"910 280 LINE",
"520 280 LINE",
"520 1120 LINE",
"640 1120 LINE",
"640 1400 LINE",
"100 1400 LINE",
"100 1120 LINE",
"240 1120 LINE",
"240 280 LINE",
"100 280 LINE",
"100 0 LINE",
"910 0 LINE"
);
},
{
closed = 1;
nodes = (
"880 0 LINE",
"880 -343 LINE",
"605 -344 LINE",
"605 0 LINE"
);
}
);
width = 1475;
}
);
unicode = 045F;
},
{
glyphname = "softsign-cy";
lastChange = "2017-12-13 09:41:43 +0000";
layers = (
{
layerId = "2087CE79-2284-4DA6-8543-529C0FCE662A";
paths = (
{
closed = 1;
nodes = (
"795 772 LINE",
"795 773 LINE",
"947 773 LINE",
"1114 673 LINE",
"1114 238 LINE",
"856 0 LINE",
"100 0 LINE",
"100 286 LINE",
"242 286 LINE",
"242 1406 LINE",
"523 1406 LINE",
"523 772 LINE"
);
},
{
closed = 1;
nodes = (
"523 286 LINE",
"795 286 LINE",
"795 497 LINE",
"523 497 LINE"
);
}
);
width = 1214;
}
);
unicode = 044C;
},
{
glyphname = "hardsign-cy";
lastChange = "2017-12-13 09:41:55 +0000";
layers = (
{
layerId = "2087CE79-2284-4DA6-8543-529C0FCE662A";
paths = (
{
closed = 1;
nodes = (
"523 286 LINE",
"795 286 LINE",
"795 497 LINE",
"523 497 LINE"
);
},
{
closed = 1;
nodes = (
"100 286 LINE",
"242 286 LINE",
"242 1131 LINE",
"100 1131 LINE",
"100 1406 LINE",
"523 1406 LINE",
"523 772 LINE",
"795 772 LINE",
"795 773 LINE",
"947 773 LINE",
"1114 673 LINE",
"1114 238 LINE",
"856 0 LINE",
"100 0 LINE"
);
}
);
width = 1214;
}
);
unicode = 044A;
},
{
glyphname = "yeru-cy";
lastChange = "2017-12-13 09:42:06 +0000";
layers = (
{
layerId = "2087CE79-2284-4DA6-8543-529C0FCE662A";
paths = (
{
closed = 1;
nodes = (
"795 772 LINE",
"795 773 LINE",
"947 773 LINE",
"1114 673 LINE",
"1114 238 LINE",
"856 0 LINE",
"100 0 LINE",
"100 286 LINE",
"242 286 LINE",
"242 1406 LINE",
"523 1406 LINE",
"523 772 LINE"
);
},
{
closed = 1;
nodes = (
"523 286 LINE",
"795 286 LINE",
"795 497 LINE",
"523 497 LINE"
);
},
{
closed = 1;
nodes = (
"1489 1410 LINE",
"1489 10 LINE",
"1214 10 LINE",
"1214 1410 LINE"
);
}
);
width = 1589;
}
);
unicode = 044B;
},
{
glyphname = "lje-cy";
lastChange = "2017-12-13 09:42:28 +0000";
layers = (
{
layerId = "2087CE79-2284-4DA6-8543-529C0FCE662A";
paths = (
{
closed = 1;
nodes = (
"1291 1406 LINE",
"1291 772 LINE",
"1563 772 LINE",
"1715 773 LINE",
"1882 673 LINE",
"1882 238 LINE",
"1624 0 LINE",
"1287 0 LINE",
"847 0 LINE",
"847 275 LINE",
"1010 275 LINE",
"1010 1131 LINE",
"703 1131 LINE",
"705 275 LINE",
"430 0 LINE",
"100 0 LINE",
"100 275 LINE",
"430 275 LINE",
"430 1135 LINE",
"702 1406 LINE",
"1012 1406 LINE",
"1287 1406 LINE"
);
},
{
closed = 1;
nodes = (
"1291 286 LINE",
"1563 286 LINE",
"1563 497 LINE",
"1291 497 LINE"
);
}
);
width = 1982;
}
);
unicode = 0459;
},
{
glyphname = "nje-cy";
lastChange = "2017-12-13 09:46:44 +0000";
layers = (
{
layerId = "2087CE79-2284-4DA6-8543-529C0FCE662A";
paths = (
{
closed = 1;
nodes = (
"1004 777 LINE",
"1004 1410 LINE",
"1285 1410 LINE",
"1285 777 LINE",
"1320 777 LINE",
"1320 776 LINE",
"1557 776 LINE",
"1557 777 LINE",
"1709 777 LINE",
"1876 677 LINE",
"1876 242 LINE",
"1618 4 LINE",
"862 4 LINE",
"862 290 LINE",
"1004 290 LINE",
"1004 500 LINE",
"552 500 LINE",
"552 295 LINE",
"729 295 LINE",
"729 0 LINE",
"100 0 LINE",
"100 295 LINE",
"277 295 LINE",
"277 500 LINE",
"100 500 LINE",
"100 777 LINE",
"277 777 LINE",
"277 1109 LINE",
"100 1109 LINE",
"100 1404 LINE",
"729 1404 LINE",
"729 1109 LINE",
"552 1109 LINE",
"552 777 LINE"
);
},
{
closed = 1;
nodes = (
"1285 290 LINE",
"1557 290 LINE",
"1557 501 LINE",
"1285 501 LINE"
);
}
);
width = 1976;
}
);
unicode = 045A;
},
{
glyphname = "e-cy";
lastChange = "2017-12-14 10:07:14 +0000";
layers = (
{
layerId = "2087CE79-2284-4DA6-8543-529C0FCE662A";
paths = (
{
closed = 1;
nodes = (
"1120 980 LINE",
"1120 1176 LINE",
"896 1400 LINE",
"324 1400 LINE",
"100 1176 LINE",
"100 224 LINE",
"324 0 LINE",
"896 0 LINE",
"1120 224 LINE",
"1120 420 LINE",
"840 420 LINE",
"840 280 LINE",
"380 280 LINE",
"380 560 LINE",
"782 560 LINE",
"784 840 LINE",
"380 840 LINE",
"380 1120 LINE",
"840 1120 LINE",
"840 980 LINE"
);
}
);
width = 1220;
}
);
unicode = 0454;
},
{
glyphname = "ereversed-cy";
lastChange = "2017-12-13 09:48:03 +0000";
layers = (
{
layerId = "2087CE79-2284-4DA6-8543-529C0FCE662A";
paths = (
{
closed = 1;
nodes = (
"380 1120 LINE",
"840 1120 LINE",
"840 840 LINE",
"256 840 LINE",
"256 700 LINE",
"258 560 LINE",
"840 560 LINE",
"840 280 LINE",
"380 280 LINE",
"380 420 LINE",
"100 420 LINE",
"100 224 LINE",
"100 0 LINE",
"896 0 LINE",
"1120 224 LINE",
"1120 616 LINE",
"1036 700 LINE",
"1120 784 LINE",
"1120 1176 LINE",
"896 1400 LINE",
"100 1400 LINE",
"100 1176 LINE",
"100 980 LINE",
"380 980 LINE"
);
}
);
width = 1220;
}
);
unicode = 044D;
},
{
glyphname = "i-cy";
lastChange = "2017-12-13 09:48:32 +0000";
layers = (
{
layerId = "2087CE79-2284-4DA6-8543-529C0FCE662A";
paths = (
{
closed = 1;
nodes = (
"640 280 LINE",
"520 280 LINE",
"520 1120 LINE",
"640 1120 LINE",
"640 1400 LINE",
"100 1400 LINE",
"100 1120 LINE",
"240 1120 LINE",
"240 280 LINE",
"100 280 LINE",
"100 0 LINE",
"640 0 LINE"
);
}
);
width = 740;
}
);
unicode = 0456;
},
{
glyphname = "tshe-cy";
lastChange = "2017-12-13 09:51:13 +0000";
layers = (
{
layerId = "2087CE79-2284-4DA6-8543-529C0FCE662A";
paths = (
{
closed = 1;
nodes = (
"885 266 LINE",
"885 0 LINE",
"250 0 LINE",
"250 266 LINE",
"409 266 LINE",
"409 1137 LINE",
"100 1137 LINE",
"100 1403 LINE",
"1005 1403 LINE",
"1005 1137 LINE",
"689 1137 LINE",
"689 1136 LINE",
"689 898 LINE",
"1205 898 LINE",
"1429 674 LINE",
"1429 266 LINE",
"1607 266 LINE",
"1607 0 LINE",
"972 0 LINE",
"972 266 LINE",
"1149 266 LINE",
"1149 618 LINE",
"689 618 LINE",
"689 266 LINE"
);
}
);
width = 1707;
}
);
unicode = 045B;
},
{
glyphname = "iu-cy";
lastChange = "2017-12-13 09:54:01 +0000";
layers = (
{
layerId = "2087CE79-2284-4DA6-8543-529C0FCE662A";
paths = (
{
closed = 1;
nodes = (
"567 563 LINE",
"567 279 LINE",
"759 279 LINE",
"759 4 LINE",
"567 4 LINE",
"567 0 LINE",
"292 0 LINE",
"292 4 LINE",
"100 4 LINE",
"100 279 LINE",
"292 279 LINE",
"292 1138 LINE",
"100 1138 LINE",
"100 1413 LINE",
"759 1413 LINE",
"759 1138 LINE",
"567 1138 LINE",
"567 838 LINE",
"965 838 LINE",
"965 1179 LINE",
"1189 1403 LINE",
"1761 1403 LINE",
"1985 1179 LINE",
"1985 227 LINE",
"1761 3 LINE",
"1189 3 LINE",
"965 227 LINE",
"965 563 LINE"
);
},
{
closed = 1;
nodes = (
"1245 283 LINE",
"1705 283 LINE",
"1705 1123 LINE",
"1245 1123 LINE"
);
}
);
width = 2085;
}
);
unicode = 044E;
},
{
glyphname = "ia-cy";
lastChange = "2017-12-13 09:17:14 +0000";
layers = (
{
layerId = "2087CE79-2284-4DA6-8543-529C0FCE662A";
paths = (
{
closed = 1;
nodes = (
"1220 0 LINE",
"1220 280 LINE",
"1080 280 LINE",
"1080 1120 LINE",
"1220 1120 LINE",
"1220 1400 LINE",
"464 1400 LINE",
"240 1176 LINE",
"240 784 LINE",
"324 700 LINE",
"240 616 LINE",
"240 280 LINE",
"100 280 LINE",
"100 0 LINE",
"640 0 LINE",
"640 280 LINE",
"520 280 LINE",
"520 560 LINE",
"800 560 LINE",
"800 280 LINE",
"680 280 LINE",
"680 0 LINE"
);
},
{
closed = 1;
nodes = (
"800 840 LINE",
"520 840 LINE",
"520 1120 LINE",
"800 1120 LINE"
);
}
);
width = 1320;
}
);
unicode = 044F;
},
{
glyphname = "dje-cy";
lastChange = "2017-12-13 09:56:02 +0000";
layers = (
{
layerId = "2087CE79-2284-4DA6-8543-529C0FCE662A";
paths = (
{
closed = 1;
nodes = (
"409 1137 LINE",
"100 1137 LINE",
"100 1403 LINE",
"1005 1403 LINE",
"1005 1137 LINE",
"689 1137 LINE",
"689 1136 LINE",
"689 898 LINE",
"1325 898 LINE",
"1549 674 LINE",
"1549 263 LINE",
"1270 0 LINE",
"980 0 LINE",
"980 263 LINE",
"1269 263 LINE",
"1269 618 LINE",
"689 618 LINE",
"689 266 LINE",
"885 266 LINE",
"885 0 LINE",
"250 0 LINE",
"250 266 LINE",
"409 266 LINE"
);
}
);
width = 1649;
}
);
unicode = 0452;
},
{
glyphname = "yat-cy";
lastChange = "2017-12-14 10:09:59 +0000";
layers = (
{
layerId = "2087CE79-2284-4DA6-8543-529C0FCE662A";
paths = (
{
closed = 1;
nodes = (
"525 286 LINE",
"797 286 LINE",
"797 497 LINE",
"525 497 LINE"
);
},
{
closed = 1;
nodes = (
"100 1272 LINE",
"244 1272 LINE",
"244 1406 LINE",
"525 1406 LINE",
"525 1272 LINE",
"757 1272 LINE",
"757 1058 LINE",
"525 1058 LINE",
"525 772 LINE",
"797 772 LINE",
"797 773 LINE",
"949 773 LINE",
"1116 673 LINE",
"1116 238 LINE",
"858 0 LINE",
"102 0 LINE",
"102 286 LINE",
"244 286 LINE",
"244 1058 LINE",
"100 1058 LINE"
);
}
);
width = 1216;
}
);
unicode = 0463;
},
{
glyphname = "fita-cy";
lastChange = "2017-12-14 10:21:53 +0000";
layers = (
{
layerId = "2087CE79-2284-4DA6-8543-529C0FCE662A";
paths = (
{
closed = 1;
nodes = (
"324 0 LINE",
"716 0 LINE",
"940 224 LINE",
"940 1176 LINE",
"716 1400 LINE",
"324 1400 LINE",
"100 1176 LINE",
"100 224 LINE"
);
},
{
closed = 1;
nodes = (
"380 707 LINE",
"424 707 LINE",
"424 646 LINE",
"537 521 LINE",
"660 521 LINE",
"660 280 LINE",
"380 280 LINE"
);
},
{
closed = 1;
nodes = (
"380 1120 LINE",
"660 1120 LINE",
"660 660 LINE",
"610 660 LINE",
"610 713 LINE",
"497 845 LINE",
"380 845 LINE"
);
}
);
width = 1040;
}
);
unicode = 0473;
},
{
glyphname = "izhitsa-cy";
lastChange = "2017-12-14 10:23:14 +0000";
layers = (
{
layerId = "2087CE79-2284-4DA6-8543-529C0FCE662A";
paths = (
{
closed = 1;
nodes = (
"240 1120 LINE",
"520 0 LINE",
"800 0 LINE",
"1080 1120 LINE",
"1220 1120 LINE",
"1220 1400 LINE",
"680 1400 LINE",
"680 1120 LINE",
"800 1120 LINE",
"660 560 LINE",
"520 1120 LINE",
"640 1120 LINE",
"640 1400 LINE",
"100 1400 LINE",
"100 1120 LINE"
);
},
{
closed = 1;
nodes = (
"1495 1400 LINE",
"1495 1120 LINE",
"1358 887 LINE",
"1220 887 LINE",
"1220 1400 LINE"
);
}
);
width = 1595;
}
);
unicode = 0475;
},
{
glyphname = "ghestroke-cy";
lastChange = "2017-12-13 09:57:52 +0000";
layers = (
{
layerId = "2087CE79-2284-4DA6-8543-529C0FCE662A";
paths = (
{
closed = 1;
nodes = (
"268 1131 LINE",
"268 791 LINE",
"103 791 LINE",
"103 525 LINE",
"268 525 LINE",
"268 276 LINE",
"102 276 LINE",
"102 -1 LINE",
"723 0 LINE",
"723 276 LINE",
"544 276 LINE",
"544 525 LINE",
"738 525 LINE",
"738 791 LINE",
"544 791 LINE",
"544 1131 LINE",
"933 1131 LINE",
"933 996 LINE",
"1209 996 LINE",
"1209 1411 LINE",
"101 1411 LINE",
"101 1131 LINE"
);
}
);
width = 1309;
}
);
unicode = 0493;
},
{
glyphname = "zhedescender-cy";
lastChange = "2017-12-14 10:19:32 +0000";
layers = (
{
layerId = "2087CE79-2284-4DA6-8543-529C0FCE662A";
paths = (
{
closed = 1;
nodes = (
"100 280 LINE",
"209 280 LINE",
"530 721 LINE",
"210 1116 LINE",
"100 1116 LINE",
"100 1396 LINE",
"640 1396 LINE",
"640 1116 LINE",
"511 1116 LINE",
"816 728 LINE",
"816 1114 LINE",
"684 1114 LINE",
"684 1394 LINE",
"1224 1394 LINE",
"1224 1114 LINE",
"1091 1114 LINE",
"1091 726 LINE",
"1398 1116 LINE",
"1270 1116 LINE",
"1270 1396 LINE",
"1810 1396 LINE",
"1810 1116 LINE",
"1696 1116 LINE",
"1385 730 LINE",
"1713 280 LINE",
"2080 280 LINE",
"2080 0 LINE",
"1943 -233 LINE",
"1805 -233 LINE",
"1805 0 LINE",
"1270 0 LINE",
"1270 280 LINE",
"1417 280 LINE",
"1225 531 LINE",
"1091 366 LINE",
"1091 280 LINE",
"1224 280 LINE",
"1224 0 LINE",
"684 0 LINE",
"684 280 LINE",
"816 280 LINE",
"816 368 LINE",
"691 522 LINE",
"505 280 LINE",
"640 280 LINE",
"640 0 LINE",
"100 0 LINE"
);
}
);
width = 2180;
}
);
unicode = 0497;
},
{
glyphname = "kadescender-cy";
lastChange = "2017-12-13 09:58:43 +0000";
layers = (
{
components = (
{
name = K;
}
);
layerId = "2087CE79-2284-4DA6-8543-529C0FCE662A";
paths = (
{
closed = 1;
nodes = (
"1217 -233 LINE",
"1355 -233 LINE",
"1492 0 LINE",
"1492 280 LINE",
"1217 280 LINE"
);
}
);
width = 1592;
}
);
unicode = 049B;
},
{
glyphname = "kastroke-cy";
lastChange = "2017-12-13 10:00:29 +0000";
layers = (
{
layerId = "2087CE79-2284-4DA6-8543-529C0FCE662A";
paths = (
{
closed = 1;
nodes = (
"685 280 LINE",
"565 280 LINE",
"565 400 LINE",
"649 512 LINE",
"829 280 LINE",
"725 280 LINE",
"725 0 LINE",
"1265 0 LINE",
"1265 280 LINE",
"1153 280 LINE",
"829 704 LINE",
"1153 1120 LINE",
"1265 1120 LINE",
"1265 1400 LINE",
"725 1400 LINE",
"725 1120 LINE",
"845 1120 LINE",
"565 748 LINE",
"565 985 LINE",
"685 985 LINE",
"685 1265 LINE",
"560 1265 LINE",
"560 1400 LINE",
"269 1400 LINE",
"269 1265 LINE",
"100 1265 LINE",
"100 985 LINE",
"285 985 LINE",
"285 280 LINE",
"145 280 LINE",
"145 0 LINE",
"685 0 LINE"
);
}
);
width = 1365;
}
);
unicode = 049F;
},
{
glyphname = "endescender-cy";
lastChange = "2017-12-14 10:13:51 +0000";
layers = (
{
layerId = "2087CE79-2284-4DA6-8543-529C0FCE662A";
paths = (
{
closed = 1;
nodes = (
"640 0 LINE",
"640 280 LINE",
"520 280 LINE",
"520 560 LINE",
"800 560 LINE",
"800 280 LINE",
"680 280 LINE",
"680 0 LINE",
"1207 0 LINE",
"1207 -233 LINE",
"1345 -233 LINE",
"1482 0 LINE",
"1482 280 LINE",
"1080 280 LINE",
"1080 1120 LINE",
"1220 1120 LINE",
"1220 1400 LINE",
"680 1400 LINE",
"680 1120 LINE",
"800 1120 LINE",
"800 840 LINE",
"520 840 LINE",
"520 1120 LINE",
"640 1120 LINE",
"640 1400 LINE",
"100 1400 LINE",
"100 1120 LINE",
"240 1120 LINE",
"240 280 LINE",
"100 280 LINE",
"100 0 LINE"
);
}
);
width = 1582;
}
);
unicode = 04A3;
},
{
glyphname = "pedescender-cy";
lastChange = "2017-12-13 10:03:02 +0000";
layers = (
{
layerId = "2087CE79-2284-4DA6-8543-529C0FCE662A";
paths = (
{
closed = 1;
nodes = (
"1450 1400 LINE",
"1450 1120 LINE",
"1310 1120 LINE",
"1310 280 LINE",
"1450 280 LINE",
"1450 0 LINE",
"910 0 LINE",
"910 280 LINE",
"1030 280 LINE",
"1030 1120 LINE",
"910 1120 LINE",
"520 1120 LINE",
"520 280 LINE",
"640 280 LINE",
"640 0 LINE",
"100 0 LINE",
"100 280 LINE",
"240 280 LINE",
"240 1120 LINE",
"100 1120 LINE",
"100 1400 LINE",
"910 1400 LINE"
);
},
{
closed = 1;
nodes = (
"1452 -233 LINE",
"1590 -233 LINE",
"1727 0 LINE",
"1727 280 LINE",
"1452 280 LINE"
);
}
);
width = 1926;
}
);
unicode = 0525;
},
{
glyphname = "haabkhasian-cy";
lastChange = "2017-12-13 10:19:43 +0000";
layers = (
{
layerId = "2087CE79-2284-4DA6-8543-529C0FCE662A";
paths = (
{
closed = 1;
nodes = (
"1644 801 LINE",
"1644 496 LINE",
"1335 496 LINE",
"1335 277 LINE",
"1060 0 LINE",
"1060 2 LINE",
"1059 0 LINE",
"373 0 LINE",
"102 273 LINE",
"100 273 LINE",
"100 1400 LINE",
"375 1400 LINE",
"375 275 LINE",
"1060 275 LINE",
"1060 496 LINE",
"830 496 LINE",
"577 670 LINE",
"577 1011 LINE",
"850 1236 LINE",
"850 1238 LINE",
"1064 1238 LINE",
"1335 963 LINE",
"1333 1013 LINE",
"1335 962 LINE",
"1335 801 LINE"
);
},
{
closed = 1;
nodes = (
"1060 923 LINE",
"852 923 LINE",
"852 760 LINE",
"1060 761 LINE"
);
}
);
width = 1744;
}
);
unicode = 04A9;
},
{
glyphname = "tedescender-cy";
lastChange = "2017-12-13 10:03:40 +0000";
layers = (
{
components = (
{
name = T;
}
);
layerId = "2087CE79-2284-4DA6-8543-529C0FCE662A";
paths = (
{
closed = 1;
nodes = (
"937 -233 LINE",
"1075 -233 LINE",
"1212 0 LINE",
"1212 280 LINE",
"937 280 LINE"
);
}
);
width = 1320;
}
);
unicode = 04AD;
},
{
glyphname = "ustrait-cy";
lastChange = "2017-12-14 10:17:04 +0000";
layers = (
{
layerId = "2087CE79-2284-4DA6-8543-529C0FCE662A";
paths = (
{
closed = 1;
nodes = (
"520 700 LINE",
"520 280 LINE",
"380 280 LINE",
"380 0 LINE",
"940 0 LINE",
"940 280 LINE",
"800 280 LINE",
"800 700 LINE",
"1080 1120 LINE",
"1220 1120 LINE",
"1220 1400 LINE",
"680 1400 LINE",
"680 1120 LINE",
"800 1120 LINE",
"660 910 LINE",
"520 1120 LINE",
"640 1120 LINE",
"640 1400 LINE",
"100 1400 LINE",
"100 1120 LINE",
"240 1120 LINE"
);
}
);
width = 1320;
}
);
unicode = 04AF;
},
{
glyphname = "ustraitstroke-cy";
lastChange = "2017-12-14 10:18:10 +0000";
layers = (
{
layerId = "2087CE79-2284-4DA6-8543-529C0FCE662A";
paths = (
{
closed = 1;
nodes = (
"240 1120 LINE",
"520 700 LINE",
"520 631 LINE",
"115 631 LINE",
"115 417 LINE",
"520 417 LINE",
"520 280 LINE",
"380 280 LINE",
"380 0 LINE",
"940 0 LINE",
"940 280 LINE",
"800 280 LINE",
"800 417 LINE",
"1176 417 LINE",
"1176 631 LINE",
"800 631 LINE",
"800 700 LINE",
"1080 1120 LINE",
"1220 1120 LINE",
"1220 1400 LINE",
"680 1400 LINE",
"680 1120 LINE",
"800 1120 LINE",
"660 910 LINE",
"520 1120 LINE",
"640 1120 LINE",
"640 1400 LINE",
"100 1400 LINE",
"100 1120 LINE"
);
}
);
width = 1320;
}
);
unicode = 04B1;
},
{
glyphname = "hadescender-cy";
lastChange = "2017-12-13 10:04:24 +0000";
layers = (
{
components = (
{
name = X;
}
);
layerId = "2087CE79-2284-4DA6-8543-529C0FCE662A";
paths = (
{
closed = 1;
nodes = (
"1212 -233 LINE",
"1350 -233 LINE",
"1487 0 LINE",
"1487 280 LINE",
"1212 280 LINE"
);
}
);
width = 1587;
}
);
unicode = 04B3;
},
{
glyphname = "tetse-cy";
lastChange = "2017-12-13 10:07:06 +0000";
layers = (
{
layerId = "2087CE79-2284-4DA6-8543-529C0FCE662A";
paths = (
{
closed = 1;
nodes = (
"1855 3 LINE",
"1855 283 LINE",
"1715 283 LINE",
"1715 1123 LINE",
"1855 1123 LINE",
"1855 1403 LINE",
"1315 1403 LINE",
"1315 1123 LINE",
"1435 1123 LINE",
"1435 283 LINE",
"1390 283 LINE",
"745 283 LINE",
"745 1123 LINE",
"1150 1123 LINE",
"1150 1403 LINE",
"100 1403 LINE",
"100 1123 LINE",
"465 1123 LINE",
"465 283 LINE",
"325 283 LINE",
"325 3 LINE",
"1390 3 LINE"
);
},
{
closed = 1;
nodes = (
"2130 283 LINE",
"2130 3 LINE",
"1993 -230 LINE",
"1855 -230 LINE",
"1855 283 LINE"
);
}
);
width = 2230;
}
);
unicode = 04B5;
},
{
glyphname = "chedescender-cy";
lastChange = "2017-12-13 10:07:47 +0000";
layers = (
{
layerId = "2087CE79-2284-4DA6-8543-529C0FCE662A";
paths = (
{
closed = 1;
nodes = (
"822 1137 LINE",
"822 1403 LINE",
"1457 1403 LINE",
"1457 1137 LINE",
"1298 1137 LINE",
"1298 266 LINE",
"1457 266 LINE",
"1457 0 LINE",
"822 0 LINE",
"822 266 LINE",
"1018 266 LINE",
"1018 268 LINE",
"1018 415 LINE",
"502 415 LINE",
"278 639 LINE",
"278 1137 LINE",
"100 1137 LINE",
"100 1403 LINE",
"735 1403 LINE",
"735 1137 LINE",
"558 1137 LINE",
"558 695 LINE",
"1018 695 LINE",
"1018 1137 LINE"
);
},
{
closed = 1;
nodes = (
"1732 266 LINE",
"1732 -14 LINE",
"1595 -247 LINE",
"1457 -247 LINE",
"1457 266 LINE"
);
}
);
width = 1832;
}
);
unicode = 04B7;
},
{
glyphname = "cheabkhasian-cy";
lastChange = "2017-12-13 10:30:23 +0000";
layers = (
{
layerId = "2087CE79-2284-4DA6-8543-529C0FCE662A";
paths = (
{
closed = 1;
nodes = (
"1282 1120 LINE",
"1280 1120 LINE",
"820 1120 LINE",
"820 840 LINE",
"1282 839 LINE"
);
},
{
closed = 1;
nodes = (
"1560 560 LINE",
"820 560 LINE",
"820 280 LINE",
"1280 280 LINE",
"1560 280 LINE",
"1560 224 LINE",
"1336 0 LINE",
"764 0 LINE",
"540 224 LINE",
"540 561 LINE",
"270 561 LINE",
"100 700 LINE",
"100 836 LINE",
"540 836 LINE",
"540 1176 LINE",
"764 1400 LINE",
"1336 1400 LINE",
"1560 1176 LINE"
);
}
);
width = 1660;
}
);
unicode = 04BD;
},
{
glyphname = "chedescenderabkhasian-cy";
lastChange = "2017-12-13 10:31:20 +0000";
layers = (
{
layerId = "2087CE79-2284-4DA6-8543-529C0FCE662A";
paths = (
{
closed = 1;
nodes = (
"1282 1120 LINE",
"1280 1120 LINE",
"820 1120 LINE",
"820 840 LINE",
"1282 839 LINE"
);
},
{
closed = 1;
nodes = (
"100 836 LINE",
"540 836 LINE",
"540 1176 LINE",
"764 1400 LINE",
"1336 1400 LINE",
"1560 1176 LINE",
"1560 560 LINE",
"820 560 LINE",
"820 280 LINE",
"1560 280 LINE",
"1560 224 LINE",
"1336 0 LINE",
"1195 0 LINE",
"1195 -343 LINE",
"920 -344 LINE",
"920 0 LINE",
"764 0 LINE",
"540 224 LINE",
"540 561 LINE",
"270 561 LINE",
"100 700 LINE"
);
}
);
width = 1660;
}
);
unicode = 04BF;
},
{
glyphname = "palochka-cy";
lastChange = "2017-12-13 10:33:30 +0000";
layers = (
{
layerId = "2087CE79-2284-4DA6-8543-529C0FCE662A";
paths = (
{
closed = 1;
nodes = (
"380 280 LINE",
"380 1120 LINE",
"380 1400 LINE",
"100 1400 LINE",
"100 1120 LINE",
"100 280 LINE",
"100 0 LINE",
"380 0 LINE"
);
}
);
width = 480;
}
);
unicode = 04CF;
},
{
glyphname = "schwa-cy";
lastChange = "2017-12-13 10:34:10 +0000";
layers = (
{
layerId = "2087CE79-2284-4DA6-8543-529C0FCE662A";
paths = (
{
closed = 1;
nodes = (
"378 280 LINE",
"380 280 LINE",
"840 280 LINE",
"840 560 LINE",
"378 561 LINE"
);
},
{
closed = 1;
nodes = (
"100 840 LINE",
"840 840 LINE",
"840 1120 LINE",
"380 1120 LINE",
"100 1120 LINE",
"100 1176 LINE",
"324 1400 LINE",
"896 1400 LINE",
"1120 1176 LINE",
"1120 224 LINE",
"896 0 LINE",
"324 0 LINE",
"100 224 LINE"
);
}
);
width = 1220;
}
);
unicode = 04D9;
},
{
glyphname = "dzeabkhasian-cy";
lastChange = "2017-12-13 10:36:04 +0000";
layers = (
{
layerId = "2087CE79-2284-4DA6-8543-529C0FCE662A";
paths = (
{
closed = 1;
nodes = (
"810 1120 LINE",
"580 557 LINE",
"840 557 LINE",
"840 280 LINE",
"380 280 LINE",
"380 420 LINE",
"100 420 LINE",
"100 224 LINE",
"324 0 LINE",
"896 0 LINE",
"1120 224 LINE",
"1120 661 LINE",
"1036 745 LINE",
"929 745 LINE",
"1120 1176 LINE",
"896 1400 LINE",
"249 1400 LINE",
"249 1120 LINE"
);
}
);
width = 1220;
}
);
unicode = 04E1;
},
{
glyphname = "obarred-cy";
lastChange = "2017-12-14 09:06:56 +0000";
layers = (
{
layerId = "2087CE79-2284-4DA6-8543-529C0FCE662A";
paths = (
{
closed = 1;
nodes = (
"324 0 LINE",
"986 0 LINE",
"1210 224 LINE",
"1210 1176 LINE",
"986 1400 LINE",
"324 1400 LINE",
"100 1176 LINE",
"100 224 LINE"
);
},
{
closed = 1;
nodes = (
"380 563 LINE",
"930 563 LINE",
"930 280 LINE",
"380 280 LINE"
);
},
{
closed = 1;
nodes = (
"380 1120 LINE",
"930 1120 LINE",
"930 838 LINE",
"380 838 LINE"
);
}
);
width = 1310;
}
);
unicode = 04E9;
},
{
glyphname = "gedescender-cy";
lastChange = "2017-12-13 10:26:08 +0000";
layers = (
{
layerId = "2087CE79-2284-4DA6-8543-529C0FCE662A";
paths = (
{
closed = 1;
nodes = (
"933 1131 LINE",
"933 997 LINE",
"933 996 LINE",
"934 996 LINE",
"1209 996 LINE",
"1209 997 LINE",
"1209 1410 LINE",
"1209 1411 LINE",
"101 1411 LINE",
"101 1407 LINE",
"101 1131 LINE",
"268 1131 LINE",
"268 275 LINE",
"268 276 LINE",
"103 276 LINE",
"102 276 LINE",
"102 275 LINE",
"102 0 LINE",
"102 -1 LINE",
"103 -1 LINE",
"723 0 LINE",
"723 276 LINE",
"543 276 LINE",
"544 275 LINE",
"544 1131 LINE",
"543 1131 LINE",
"934 1131 LINE"
);
},
{
closed = 1;
nodes = (
"706 -237 LINE",
"844 -237 LINE",
"981 -4 LINE",
"981 276 LINE",
"706 276 LINE"
);
}
);
width = 1309;
}
);
unicode = 04F7;
},
{
glyphname = "we-cy";
lastChange = "2017-12-14 10:31:27 +0000";
layers = (
{
layerId = "2087CE79-2284-4DA6-8543-529C0FCE662A";
paths = (
{
closed = 1;
nodes = (
"380 280 LINE",
"240 280 LINE",
"240 0 LINE",
"780 0 LINE",
"780 280 LINE",
"660 280 LINE",
"800 560 LINE",
"940 280 LINE",
"820 280 LINE",
"820 0 LINE",
"1360 0 LINE",
"1360 280 LINE",
"1220 280 LINE",
"1360 1120 LINE",
"1500 1120 LINE",
"1500 1400 LINE",
"940 1400 LINE",
"940 1120 LINE",
"1080 1120 LINE",
"1008 700 LINE",
"800 1120 LINE",
"592 700 LINE",
"520 1120 LINE",
"660 1120 LINE",
"660 1400 LINE",
"100 1400 LINE",
"100 1120 LINE",
"240 1120 LINE"
);
}
);
width = 1600;
}
);
unicode = 051D;
},
{
glyphname = Delta;
lastChange = "2017-12-13 10:40:42 +0000";
layers = (
{
layerId = "2087CE79-2284-4DA6-8543-529C0FCE662A";
paths = (
{
closed = 1;
nodes = (
"330 1125 LINE",
"330 1400 LINE",
"1003 1400 LINE",
"1003 1125 LINE",
"869 1125 LINE",
"1079 282 LINE",
"1221 282 LINE",
"1221 0 LINE",
"100 0 LINE",
"100 282 LINE",
"241 282 LINE",
"451 1125 LINE"
);
},
{
closed = 1;
nodes = (
"660 840 LINE",
"521 282 LINE",
"799 282 LINE"
);
}
);
width = 1321;
}
);
unicode = 0394;
},
{
glyphname = Theta;
lastChange = "2017-12-14 07:06:52 +0000";
layers = (
{
layerId = "2087CE79-2284-4DA6-8543-529C0FCE662A";
paths = (
{
closed = 1;
nodes = (
"324 0 LINE",
"716 0 LINE",
"940 224 LINE",
"940 1176 LINE",
"716 1400 LINE",
"324 1400 LINE",
"100 1176 LINE",
"100 224 LINE"
);
},
{
closed = 1;
nodes = (
"380 586 LINE",
"660 586 LINE",
"660 280 LINE",
"380 280 LINE"
);
},
{
closed = 1;
nodes = (
"380 1120 LINE",
"660 1120 LINE",
"660 814 LINE",
"380 814 LINE"
);
}
);
width = 1040;
}
);
unicode = 0398;
},
{
glyphname = Lambda;
lastChange = "2017-12-13 10:38:10 +0000";
layers = (
{
layerId = "2087CE79-2284-4DA6-8543-529C0FCE662A";
paths = (
{
closed = 1;
nodes = (
"240 280 LINE",
"520 1400 LINE",
"800 1400 LINE",
"1080 280 LINE",
"1220 280 LINE",
"1220 0 LINE",
"680 0 LINE",
"680 280 LINE",
"800 280 LINE",
"660 840 LINE",
"520 280 LINE",
"640 280 LINE",
"640 0 LINE",
"100 0 LINE",
"100 280 LINE"
);
},
{
closed = 1;
nodes = (
"986 1400 LINE",
"986 1125 LINE",
"313 1125 LINE",
"313 1400 LINE"
);
}
);
width = 1320;
}
);
unicode = 039B;
},
{
glyphname = Xi;
lastChange = "2017-12-13 10:43:58 +0000";
layers = (
{
layerId = "2087CE79-2284-4DA6-8543-529C0FCE662A";
paths = (
{
closed = 1;
nodes = (
"1085 1002 LINE",
"1085 1110 LINE",
"380 1110 LINE",
"380 1002 LINE",
"100 1002 LINE",
"100 1407 LINE",
"380 1405 LINE",
"1085 1405 LINE",
"1365 1407 LINE",
"1365 1002 LINE"
);
},
{
closed = 1;
nodes = (
"1365 0 LINE",
"1085 2 LINE",
"380 2 LINE",
"100 0 LINE",
"100 405 LINE",
"380 405 LINE",
"380 297 LINE",
"1085 297 LINE",
"1085 405 LINE",
"1365 405 LINE"
);
},
{
closed = 1;
nodes = (
"1209 837 LINE",
"1209 562 LINE",
"244 562 LINE",
"244 837 LINE"
);
}
);
width = 1465;
}
);
unicode = 039E;
},
{
glyphname = Pi;
lastChange = "2017-12-13 05:18:14 +0000";
layers = (
{
layerId = "2087CE79-2284-4DA6-8543-529C0FCE662A";
paths = (
{
closed = 1;
nodes = (
"1450 1400 LINE",
"1450 1120 LINE",
"1310 1120 LINE",
"1310 280 LINE",
"1450 280 LINE",
"1450 0 LINE",
"910 0 LINE",
"910 280 LINE",
"1030 280 LINE",
"1030 1120 LINE",
"910 1120 LINE",
"520 1120 LINE",
"520 280 LINE",
"640 280 LINE",
"640 0 LINE",
"100 0 LINE",
"100 280 LINE",
"240 280 LINE",
"240 1120 LINE",
"100 1120 LINE",
"100 1400 LINE",
"910 1400 LINE"
);
}
);
width = 1550;
}
);
unicode = 03A0;
},
{
glyphname = Sigma;
lastChange = "2017-12-13 05:21:45 +0000";
layers = (
{
layerId = "2087CE79-2284-4DA6-8543-529C0FCE662A";
paths = (
{
closed = 1;
nodes = (
"1080 420 LINE",
"800 420 LINE",
"800 280 LINE",
"475 280 LINE",
"755 697 LINE",
"475 1120 LINE",
"800 1120 LINE",
"800 980 LINE",
"1080 980 LINE",
"1080 1400 LINE",
"100 1400 LINE",
"100 1120 LINE",
"195 1120 LINE",
"475 694 LINE",
"195 280 LINE",
"100 280 LINE",
"100 0 LINE",
"1080 0 LINE"
);
}
);
width = 1180;
}
);
unicode = 03A3;
},
{
glyphname = Upsilon;
lastChange = "2017-12-13 10:22:54 +0000";
layers = (
{
layerId = "2087CE79-2284-4DA6-8543-529C0FCE662A";
paths = (
{
closed = 1;
nodes = (
"520 700 LINE",
"520 280 LINE",
"380 280 LINE",
"380 0 LINE",
"940 0 LINE",
"940 280 LINE",
"800 280 LINE",
"800 700 LINE",
"1080 1120 LINE",
"1220 1120 LINE",
"1220 1400 LINE",
"680 1400 LINE",
"680 1120 LINE",
"800 1120 LINE",
"660 910 LINE",
"520 1120 LINE",
"640 1120 LINE",
"640 1400 LINE",
"100 1400 LINE",
"100 1120 LINE",
"240 1120 LINE"
);
}
);
width = 1320;
}
);
unicode = 03A5;
},
{
glyphname = Phi;
lastChange = "2017-12-13 10:23:30 +0000";
layers = (
{
layerId = "2087CE79-2284-4DA6-8543-529C0FCE662A";
paths = (
{
closed = 1;
nodes = (
"375 772 LINE",
"1062 772 LINE",
"1062 625 LINE",
"375 625 LINE"
);
},
{
closed = 1;
nodes = (
"373 360 LINE",
"1059 360 LINE",
"1335 633 LINE",
"1337 633 LINE",
"1337 774 LINE",
"1334 774 LINE",
"1062 1047 LINE",
"371 1047 LINE",
"102 774 LINE",
"100 774 LINE",
"100 633 LINE",
"101 633 LINE"
);
},
{
closed = 1;
nodes = (
"972 0 LINE",
"972 280 LINE",
"852 280 LINE",
"852 1134 LINE",
"971 1134 LINE",
"972 1400 LINE",
"433 1400 LINE",
"433 1134 LINE",
"572 1134 LINE",
"572 280 LINE",
"432 280 LINE",
"432 0 LINE"
);
}
);
width = 1437;
}
);
unicode = 03A6;
},
{
glyphname = Psi;
lastChange = "2017-12-13 10:48:04 +0000";
layers = (
{
layerId = "2087CE79-2284-4DA6-8543-529C0FCE662A";
paths = (
{
closed = 1;
nodes = (
"822 1136 LINE",
"822 1402 LINE",
"1457 1402 LINE",
"1457 1136 LINE",
"1298 1136 LINE",
"1298 773 LINE",
"1758 773 LINE",
"1758 1139 LINE",
"1545 1139 LINE",
"1545 1405 LINE",
"2180 1405 LINE",
"2180 1139 LINE",
"2038 1139 LINE",
"2038 717 LINE",
"1814 493 LINE",
"1298 493 LINE",
"1298 266 LINE",
"1457 266 LINE",
"1457 0 LINE",
"822 0 LINE",
"822 266 LINE",
"1018 266 LINE",
"1018 267 LINE",
"1018 490 LINE",
"502 490 LINE",
"278 714 LINE",
"278 1136 LINE",
"100 1136 LINE",
"100 1402 LINE",
"735 1402 LINE",
"735 1136 LINE",
"558 1136 LINE",
"558 770 LINE",
"1018 770 LINE",
"1018 1136 LINE"
);
}
);
width = 2280;
}
);
unicode = 03A8;
},
{
glyphname = Omega;
lastChange = "2017-12-13 10:56:32 +0000";
layers = (
{
layerId = "2087CE79-2284-4DA6-8543-529C0FCE662A";
paths = (
{
closed = 1;
nodes = (
"1132 1402 LINE",
"1356 1178 LINE",
"1356 1006 LINE",
"1356 648 LINE",
"1132 424 LINE",
"1043 424 LINE",
"1043 282 LINE",
"1341 282 LINE",
"1341 2 LINE",
"987 2 LINE",
"763 226 LINE",
"763 424 LINE",
"763 704 LINE",
"1076 704 LINE",
"1076 1006 LINE",
"1076 1122 LINE",
"843 1122 LINE",
"380 1122 LINE",
"380 1005 LINE",
"380 703 LINE",
"693 703 LINE",
"693 423 LINE",
"693 224 LINE",
"469 0 LINE",
"115 0 LINE",
"115 280 LINE",
"413 280 LINE",
"413 423 LINE",
"324 423 LINE",
"100 647 LINE",
"100 1005 LINE",
"100 1178 LINE",
"324 1402 LINE",
"843 1402 LINE"
);
}
);
width = 1456;
}
);
unicode = 03A9;
},
{
glyphname = Alphatonos;
lastChange = "2017-12-13 11:05:29 +0000";
layers = (
{
components = (
{
name = Alpha;
transform = "{1, 0, 0, 1, 153, 0}";
}
);
layerId = "2087CE79-2284-4DA6-8543-529C0FCE662A";
paths = (
{
closed = 1;
nodes = (
"375 888 LINE",
"237 888 LINE",
"100 1121 LINE",
"100 1401 LINE",
"375 1401 LINE"
);
}
);
width = 1473;
}
);
unicode = 0386;
},
{
glyphname = Epsilontonos;
lastChange = "2017-12-13 11:05:20 +0000";
layers = (
{
components = (
{
name = Epsilon;
transform = "{1, 0, 0, 1, 374, 0}";
}
);
layerId = "2087CE79-2284-4DA6-8543-529C0FCE662A";
paths = (
{
closed = 1;
nodes = (
"375 888 LINE",
"237 888 LINE",
"100 1121 LINE",
"100 1401 LINE",
"375 1401 LINE"
);
}
);
width = 1554;
}
);
unicode = 0388;
},
{
glyphname = Etatonos;
lastChange = "2017-12-13 11:05:43 +0000";
layers = (
{
components = (
{
name = Eta;
transform = "{1, 0, 0, 1, 377, 0}";
}
);
layerId = "2087CE79-2284-4DA6-8543-529C0FCE662A";
paths = (
{
closed = 1;
nodes = (
"375 888 LINE",
"237 888 LINE",
"100 1121 LINE",
"100 1401 LINE",
"375 1401 LINE"
);
}
);
width = 1697;
}
);
unicode = 0389;
},
{
glyphname = Iotatonos;
lastChange = "2017-12-13 11:05:56 +0000";
layers = (
{
components = (
{
name = Iota;
transform = "{1, 0, 0, 1, 374, 0}";
}
);
layerId = "2087CE79-2284-4DA6-8543-529C0FCE662A";
paths = (
{
closed = 1;
nodes = (
"375 888 LINE",
"237 888 LINE",
"100 1121 LINE",
"100 1401 LINE",
"375 1401 LINE"
);
}
);
width = 1114;
}
);
unicode = 038A;
},
{
glyphname = Omicrontonos;
lastChange = "2017-12-13 11:06:09 +0000";
layers = (
{
components = (
{
name = Omicron;
transform = "{1, 0, 0, 1, 373, 0}";
}
);
layerId = "2087CE79-2284-4DA6-8543-529C0FCE662A";
paths = (
{
closed = 1;
nodes = (
"375 881 LINE",
"237 881 LINE",
"100 1114 LINE",
"100 1394 LINE",
"375 1394 LINE"
);
}
);
width = 1413;
}
);
unicode = 038C;
},
{
glyphname = Upsilontonos;
lastChange = "2017-12-13 11:06:21 +0000";
layers = (
{
components = (
{
name = Upsilon;
transform = "{1, 0, 0, 1, 370, 0}";
}
);
layerId = "2087CE79-2284-4DA6-8543-529C0FCE662A";
paths = (
{
closed = 1;
nodes = (
"375 888 LINE",
"237 888 LINE",
"100 1121 LINE",
"100 1401 LINE",
"375 1401 LINE"
);
}
);
width = 1690;
}
);
unicode = 038E;
},
{
glyphname = Omegatonos;
lastChange = "2017-12-13 11:06:34 +0000";
layers = (
{
components = (
{
name = Omega;
transform = "{1, 0, 0, 1, 374, 0}";
}
);
layerId = "2087CE79-2284-4DA6-8543-529C0FCE662A";
paths = (
{
closed = 1;
nodes = (
"375 880 LINE",
"237 880 LINE",
"100 1113 LINE",
"100 1393 LINE",
"375 1393 LINE"
);
}
);
width = 1830;
}
);
unicode = 038F;
},
{
glyphname = Heta;
lastChange = "2017-12-29 10:34:39 +0000";
layers = (
{
layerId = "2087CE79-2284-4DA6-8543-529C0FCE662A";
paths = (
{
closed = 1;
nodes = (
"640 0 LINE",
"640 280 LINE",
"520 280 LINE",
"520 609 LINE",
"900 609 LINE",
"900 791 LINE",
"520 791 LINE",
"520 1120 LINE",
"640 1120 LINE",
"640 1400 LINE",
"100 1400 LINE",
"100 1120 LINE",
"240 1120 LINE",
"240 280 LINE",
"100 280 LINE",
"100 0 LINE"
);
}
);
width = 1000;
}
);
unicode = 0370;
},
{
glyphname = Archaicsampi;
lastChange = "2017-12-29 10:33:56 +0000";
layers = (
{
layerId = "2087CE79-2284-4DA6-8543-529C0FCE662A";
paths = (
{
closed = 1;
nodes = (
"940 280 LINE",
"800 370 LINE",
"800 1120 LINE",
"940 980 LINE",
"1220 980 LINE",
"1220 1400 LINE",
"100 1400 LINE",
"100 980 LINE",
"380 980 LINE",
"520 1120 LINE",
"520 370 LINE",
"380 280 LINE",
"380 0 LINE",
"940 0 LINE"
);
}
);
width = 1320;
}
);
unicode = 0372;
},
{
glyphname = Pamphyliandigamma;
lastChange = "2017-12-29 10:34:27 +0000";
layers = (
{
layerId = "2087CE79-2284-4DA6-8543-529C0FCE662A";
paths = (
{
closed = 1;
nodes = (
"1360 0 LINE",
"1360 280 LINE",
"1220 280 LINE",
"1220 1120 LINE",
"1360 1120 LINE",
"1360 1400 LINE",
"940 1400 LINE",
"520 600 LINE",
"520 1120 LINE",
"660 1120 LINE",
"660 1400 LINE",
"100 1400 LINE",
"100 1120 LINE",
"240 1120 LINE",
"240 0 LINE",
"520 0 LINE",
"940 800 LINE",
"940 280 LINE",
"800 280 LINE",
"800 0 LINE"
);
}
);
width = 1460;
}
);
unicode = 0376;
},
{
glyphname = Digamma;
lastChange = "2017-12-29 10:36:47 +0000";
layers = (
{
layerId = "2087CE79-2284-4DA6-8543-529C0FCE662A";
paths = (
{
closed = 1;
nodes = (
"380 280 LINE",
"380 560 LINE",
"660 560 LINE",
"660 840 LINE",
"380 840 LINE",
"380 1120 LINE",
"660 1120 LINE",
"940 1120 LINE",
"940 1400 LINE",
"100 1400 LINE",
"100 1120 LINE",
"100 280 LINE",
"100 0 LINE",
"380 0 LINE"
);
}
);
width = 1040;
}
);
unicode = 03DC;
},
{
glyphname = Koppa;
lastChange = "2017-12-29 10:39:15 +0000";
layers = (
{
layerId = "2087CE79-2284-4DA6-8543-529C0FCE662A";
paths = (
{
closed = 1;
nodes = (
"100 859 LINE",
"635 1454 LINE",
"836 1273 LINE",
"463 859 LINE",
"900 859 LINE",
"900 589 LINE",
"895 589 LINE",
"365 0 LINE",
"164 180 LINE",
"532 589 LINE",
"100 589 LINE"
);
}
);
width = 1000;
}
);
unicode = 03DE;
},
{
glyphname = Sho;
lastChange = "2017-12-29 10:35:58 +0000";
layers = (
{
layerId = "2087CE79-2284-4DA6-8543-529C0FCE662A";
paths = (
{
closed = 1;
nodes = (
"339 524 LINE",
"746 524 LINE",
"746 843 LINE",
"746 956 LINE",
"339 956 LINE"
);
},
{
closed = 1;
nodes = (
"834 1186 LINE",
"968 1037 LINE",
"968 842 LINE",
"968 433 LINE",
"834 285 LINE",
"339 285 LINE",
"339 1 LINE",
"100 1 LINE",
"100 1401 LINE",
"339 1401 LINE",
"339 1186 LINE"
);
}
);
width = 1068;
}
);
unicode = 03F7;
},
{
glyphname = Alphapsilivaria;
lastChange = "2017-12-29 09:13:22 +0000";
layers = (
{
components = (
{
name = Alpha;
transform = "{1, 0, 0, 1, 416, 0}";
}
);
guideLines = (
{
position = "{277, 1125}";
}
);
layerId = "2087CE79-2284-4DA6-8543-529C0FCE662A";
paths = (
{
closed = 1;
nodes = (
"326 1125 LINE",
"326 1333 LINE",
"235 1409 LINE",
"120 1409 LINE",
"120 1283 LINE",
"216 1283 LINE",
"217 1125 LINE"
);
},
{
closed = 1;
nodes = (
"568 1125 LINE",
"381 1309 LINE",
"471 1407 LINE",
"696 1125 LINE"
);
}
);
width = 1736;
}
);
unicode = 1F0A;
},
{
glyphname = Alphadasiavaria;
lastChange = "2017-12-13 11:15:28 +0000";
layers = (
{
components = (
{
name = Alpha;
transform = "{1, 0, 0, 1, 417, 0}";
}
);
layerId = "2087CE79-2284-4DA6-8543-529C0FCE662A";
paths = (
{
closed = 1;
nodes = (
"210 1291 LINE",
"306 1291 LINE",
"306 1417 LINE",
"191 1417 LINE",
"100 1341 LINE",
"100 1133 LINE",
"209 1136 LINE"
);
},
{
closed = 1;
nodes = (
"549 1130 LINE",
"380 1304 LINE",
"470 1402 LINE",
"677 1130 LINE"
);
}
);
width = 1737;
}
);
unicode = 1F0B;
},
{
glyphname = Alphapsilioxia;
lastChange = "2017-12-29 09:13:33 +0000";
layers = (
{
components = (
{
alignment = -1;
name = Alpha;
transform = "{1, 0, 0, 1, 413, 0}";
}
);
guideLines = (
{
position = "{-1404, 1126}";
}
);
layerId = "2087CE79-2284-4DA6-8543-529C0FCE662A";
paths = (
{
closed = 1;
nodes = (
"306 1128 LINE",
"306 1336 LINE",
"215 1412 LINE",
"100 1412 LINE",
"100 1286 LINE",
"196 1286 LINE",
"197 1128 LINE"
);
},
{
closed = 1;
nodes = (
"592 1408 LINE",
"682 1310 LINE",
"495 1126 LINE",
"367 1126 LINE"
);
}
);
width = 1733;
}
);
unicode = 1F0C;
},
{
glyphname = Alphadasiaoxia;
lastChange = "2017-12-29 09:14:29 +0000";
layers = (
{
components = (
{
name = Alpha;
transform = "{1, 0, 0, 1, 327, 0}";
}
);
guideLines = (
{
position = "{-1070, 1128}";
}
);
layerId = "2087CE79-2284-4DA6-8543-529C0FCE662A";
paths = (
{
closed = 1;
nodes = (
"210 1284 LINE",
"306 1284 LINE",
"306 1410 LINE",
"191 1410 LINE",
"100 1334 LINE",
"100 1126 LINE",
"209 1126 LINE"
);
},
{
closed = 1;
nodes = (
"510 1410 LINE",
"600 1312 LINE",
"413 1128 LINE",
"285 1128 LINE"
);
}
);
width = 1647;
}
);
unicode = 1F0D;
},
{
glyphname = Alphapsiliperispomeni;
lastChange = "2017-12-29 09:15:40 +0000";
layers = (
{
components = (
{
name = Alpha;
transform = "{1, 0, 0, 1, 237, 0}";
}
);
guideLines = (
{
position = "{-234, 1124}";
}
);
layerId = "2087CE79-2284-4DA6-8543-529C0FCE662A";
paths = (
{
closed = 1;
nodes = (
"468 1124 LINE",
"468 1332 LINE",
"377 1408 LINE",
"262 1408 LINE",
"262 1282 LINE",
"358 1282 LINE",
"359 1124 LINE"
);
},
{
closed = 1;
nodes = (
"423 1570 LINE",
"502 1570 LINE",
"502 1695 LINE",
"629 1695 LINE",
"629 1560 LINE",
"552 1475 LINE",
"373 1475 LINE",
"296 1560 LINE",
"296 1600 LINE",
"296 1602 LINE",
"216 1602 LINE",
"216 1477 LINE",
"90 1477 LINE",
"90 1605 LINE",
"167 1696 LINE",
"346 1696 LINE",
"423 1606 LINE"
);
}
);
width = 1557;
}
);
unicode = 1F0E;
},
{
glyphname = Alphadasiaperispomeni;
lastChange = "2017-12-29 09:15:32 +0000";
layers = (
{
components = (
{
name = Alpha;
transform = "{1, 0, 0, 1, 243, 0}";
}
);
guideLines = (
{
position = "{209, 1121}";
}
);
layerId = "2087CE79-2284-4DA6-8543-529C0FCE662A";
paths = (
{
closed = 1;
nodes = (
"382 1278 LINE",
"478 1278 LINE",
"478 1404 LINE",
"363 1404 LINE",
"272 1328 LINE",
"272 1120 LINE",
"381 1120 LINE"
);
},
{
closed = 1;
nodes = (
"433 1566 LINE",
"512 1566 LINE",
"512 1691 LINE",
"639 1691 LINE",
"639 1556 LINE",
"562 1471 LINE",
"383 1471 LINE",
"306 1556 LINE",
"306 1596 LINE",
"306 1598 LINE",
"226 1598 LINE",
"226 1473 LINE",
"100 1473 LINE",
"100 1601 LINE",
"177 1692 LINE",
"356 1692 LINE",
"433 1602 LINE"
);
}
);
width = 1563;
}
);
unicode = 1F0F;
},
{
glyphname = Alphavaria;
lastChange = "2017-12-29 09:16:04 +0000";
layers = (
{
components = (
{
name = Alpha;
transform = "{1, 0, 0, 1, 169, 0}";
}
);
layerId = "2087CE79-2284-4DA6-8543-529C0FCE662A";
paths = (
{
closed = 1;
nodes = (
"287 1123 LINE",
"100 1286 LINE",
"190 1384 LINE",
"415 1123 LINE"
);
}
);
width = 1489;
}
);
unicode = 1FBA;
},
{
glyphname = Alphaoxia;
lastChange = "2017-12-29 09:16:46 +0000";
layers = (
{
components = (
{
name = Alpha;
transform = "{1, 0, 0, 1, 145, 0}";
}
);
guideLines = (
{
position = "{-453, 1124}";
}
);
layerId = "2087CE79-2284-4DA6-8543-529C0FCE662A";
paths = (
{
closed = 1;
nodes = (
"325 1385 LINE",
"415 1287 LINE",
"228 1124 LINE",
"100 1124 LINE"
);
}
);
width = 1465;
}
);
unicode = 1FBB;
},
{
glyphname = Alphaprosgegrammeni;
lastChange = "2017-12-29 09:21:47 +0000";
layers = (
{
components = (
{
name = Alpha;
}
);
layerId = "2087CE79-2284-4DA6-8543-529C0FCE662A";
paths = (
{
closed = 1;
nodes = (
"597 -67 LINE",
"597 -272 LINE",
"688 -348 LINE",
"803 -348 LINE",
"803 -222 LINE",
"707 -222 LINE",
"706 -67 LINE"
);
}
);
width = 1320;
}
);
unicode = 1FBC;
},
{
glyphname = Alphapsiliprosgegrammeni;
lastChange = "2017-12-29 10:07:43 +0000";
layers = (
{
components = (
{
name = Alpha;
transform = "{1, 0, 0, 1, 27, 0}";
},
{
name = psili.case;
transform = "{1, 0, 0, 1, 259, -2}";
}
);
layerId = "2087CE79-2284-4DA6-8543-529C0FCE662A";
paths = (
{
closed = 1;
nodes = (
"629 -64 LINE",
"629 -272 LINE",
"720 -348 LINE",
"835 -348 LINE",
"835 -222 LINE",
"739 -222 LINE",
"738 -64 LINE"
);
}
);
width = 1347;
}
);
unicode = 1F88;
},
{
glyphname = Alphadasiaprosgegrammeni;
lastChange = "2017-12-29 10:06:27 +0000";
layers = (
{
components = (
{
name = Alpha;
transform = "{1, 0, 0, 1, 2, 0}";
},
{
name = dasia.case;
transform = "{1, 0, 0, 1, 212, -6}";
}
);
layerId = "2087CE79-2284-4DA6-8543-529C0FCE662A";
paths = (
{
closed = 1;
nodes = (
"604 -64 LINE",
"604 -272 LINE",
"695 -348 LINE",
"810 -348 LINE",
"810 -222 LINE",
"714 -222 LINE",
"713 -64 LINE"
);
}
);
width = 1282;
}
);
unicode = 1F89;
},
{
glyphname = Alphapsilivariaprosgegrammeni;
lastChange = "2017-12-29 10:01:35 +0000";
layers = (
{
components = (
{
name = Alpha;
transform = "{1, 0, 0, 1, 378, 0}";
},
{
name = prosgegrammeni;
transform = "{1, 0, 0, 1, 1689, 0}";
}
);
layerId = "2087CE79-2284-4DA6-8543-529C0FCE662A";
paths = (
{
closed = 1;
nodes = (
"266 1129 LINE",
"266 1337 LINE",
"175 1413 LINE",
"60 1413 LINE",
"60 1287 LINE",
"156 1287 LINE",
"157 1129 LINE"
);
},
{
closed = 1;
nodes = (
"524 1121 LINE",
"337 1305 LINE",
"427 1403 LINE",
"652 1121 LINE"
);
}
);
width = 1658;
}
);
unicode = 1F8A;
},
{
glyphname = Alphadasiavariaprosgegrammeni;
lastChange = "2017-12-29 10:01:42 +0000";
layers = (
{
components = (
{
name = Alpha;
transform = "{1, 0, 0, 1, 351, 0}";
},
{
name = prosgegrammeni;
transform = "{1, 0, 0, 1, 1663, 0}";
}
);
layerId = "2087CE79-2284-4DA6-8543-529C0FCE662A";
paths = (
{
closed = 1;
nodes = (
"170 1284 LINE",
"266 1284 LINE",
"266 1410 LINE",
"151 1410 LINE",
"60 1334 LINE",
"60 1126 LINE",
"169 1126 LINE"
);
},
{
closed = 1;
nodes = (
"503 1123 LINE",
"334 1297 LINE",
"424 1395 LINE",
"631 1123 LINE"
);
}
);
width = 1631;
}
);
unicode = 1F8B;
},
{
glyphname = Alphapsilioxiaprosgegrammeni;
lastChange = "2017-12-29 10:01:47 +0000";
layers = (
{
components = (
{
name = Alpha;
transform = "{1, 0, 0, 1, 392, 0}";
},
{
name = prosgegrammeni;
transform = "{1, 0, 0, 1, 1703, 0}";
}
);
guideLines = (
{
position = "{78, 1123}";
}
);
layerId = "2087CE79-2284-4DA6-8543-529C0FCE662A";
paths = (
{
closed = 1;
nodes = (
"266 1123 LINE",
"266 1331 LINE",
"175 1407 LINE",
"60 1407 LINE",
"60 1281 LINE",
"156 1281 LINE",
"157 1123 LINE"
);
},
{
closed = 1;
nodes = (
"572 1406 LINE",
"662 1308 LINE",
"475 1124 LINE",
"347 1124 LINE"
);
}
);
width = 1672;
}
);
unicode = 1F8C;
},
{
glyphname = Alphadasiaoxiaprosgegrammeni;
lastChange = "2017-12-29 10:01:52 +0000";
layers = (
{
components = (
{
name = Alpha;
transform = "{1, 0, 0, 1, 308, 0}";
},
{
name = prosgegrammeni;
transform = "{1, 0, 0, 1, 1625, 0}";
}
);
guideLines = (
{
position = "{-578, 1121}";
}
);
layerId = "2087CE79-2284-4DA6-8543-529C0FCE662A";
paths = (
{
closed = 1;
nodes = (
"170 1279 LINE",
"266 1279 LINE",
"266 1405 LINE",
"151 1405 LINE",
"60 1329 LINE",
"60 1121 LINE",
"169 1121 LINE"
);
},
{
closed = 1;
nodes = (
"481 1403 LINE",
"571 1305 LINE",
"384 1121 LINE",
"256 1121 LINE"
);
}
);
width = 1588;
}
);
unicode = 1F8D;
},
{
glyphname = Alphapsiliperispomeniprosgegrammeni;
lastChange = "2017-12-29 10:01:58 +0000";
layers = (
{
components = (
{
name = Alpha;
transform = "{1, 0, 0, 1, 195, 0}";
},
{
name = prosgegrammeni;
transform = "{1, 0, 0, 1, 1506, 0}";
}
);
layerId = "2087CE79-2284-4DA6-8543-529C0FCE662A";
paths = (
{
closed = 1;
nodes = (
"418 1123 LINE",
"418 1331 LINE",
"327 1407 LINE",
"212 1407 LINE",
"212 1281 LINE",
"308 1281 LINE",
"309 1123 LINE"
);
},
{
closed = 1;
nodes = (
"373 1569 LINE",
"452 1569 LINE",
"452 1694 LINE",
"579 1694 LINE",
"579 1559 LINE",
"502 1474 LINE",
"323 1474 LINE",
"246 1559 LINE",
"246 1599 LINE",
"246 1601 LINE",
"166 1601 LINE",
"166 1476 LINE",
"40 1476 LINE",
"40 1604 LINE",
"117 1695 LINE",
"296 1695 LINE",
"373 1605 LINE"
);
}
);
width = 1475;
}
);
unicode = 1F8E;
},
{
glyphname = Alphadasiaperispomeniprosgegrammeni;
lastChange = "2017-12-29 10:02:05 +0000";
layers = (
{
components = (
{
name = Alpha;
transform = "{1, 0, 0, 1, 204, 0}";
},
{
name = prosgegrammeni;
transform = "{1, 0, 0, 1, 1512, 0}";
}
);
layerId = "2087CE79-2284-4DA6-8543-529C0FCE662A";
paths = (
{
closed = 1;
nodes = (
"342 1284 LINE",
"438 1284 LINE",
"438 1410 LINE",
"323 1410 LINE",
"232 1334 LINE",
"232 1126 LINE",
"341 1126 LINE"
);
},
{
closed = 1;
nodes = (
"393 1572 LINE",
"472 1572 LINE",
"472 1697 LINE",
"599 1697 LINE",
"599 1562 LINE",
"522 1477 LINE",
"343 1477 LINE",
"266 1562 LINE",
"266 1602 LINE",
"266 1604 LINE",
"186 1604 LINE",
"186 1479 LINE",
"60 1479 LINE",
"60 1607 LINE",
"137 1698 LINE",
"316 1698 LINE",
"393 1608 LINE"
);
}
);
width = 1484;
}
);
unicode = 1F8F;
},
{
glyphname = Epsilonpsili;
lastChange = "2017-12-29 09:29:19 +0000";
layers = (
{
components = (
{
name = Epsilon;
transform = "{1, 0, 0, 1, 222, 0}";
}
);
layerId = "2087CE79-2284-4DA6-8543-529C0FCE662A";
paths = (
{
closed = 1;
nodes = (
"266 1120 LINE",
"266 1328 LINE",
"175 1404 LINE",
"60 1404 LINE",
"60 1278 LINE",
"156 1278 LINE",
"157 1120 LINE"
);
}
);
width = 1362;
}
);
unicode = 1F18;
},
{
glyphname = Epsilondasia;
lastChange = "2017-12-29 09:29:45 +0000";
layers = (
{
components = (
{
name = Epsilon;
transform = "{1, 0, 0, 1, 222, 0}";
}
);
layerId = "2087CE79-2284-4DA6-8543-529C0FCE662A";
paths = (
{
closed = 1;
nodes = (
"170 1275 LINE",
"266 1275 LINE",
"266 1401 LINE",
"151 1401 LINE",
"60 1325 LINE",
"60 1117 LINE",
"169 1117 LINE"
);
}
);
width = 1362;
}
);
unicode = 1F19;
},
{
glyphname = Epsilonpsilivaria;
lastChange = "2017-12-29 09:32:15 +0000";
layers = (
{
components = (
{
name = Epsilon;
transform = "{1, 0, 0, 1, 610, 0}";
}
);
guideLines = (
{
position = "{-408, 1118}";
}
);
layerId = "2087CE79-2284-4DA6-8543-529C0FCE662A";
paths = (
{
closed = 1;
nodes = (
"266 1118 LINE",
"266 1326 LINE",
"175 1402 LINE",
"60 1402 LINE",
"60 1276 LINE",
"156 1276 LINE",
"157 1118 LINE"
);
},
{
closed = 1;
nodes = (
"525 1122 LINE",
"338 1306 LINE",
"428 1404 LINE",
"653 1122 LINE"
);
}
);
width = 1750;
}
);
unicode = 1F1A;
},
{
glyphname = Epsilondasiavaria;
lastChange = "2017-12-29 09:32:06 +0000";
layers = (
{
components = (
{
name = Epsilon;
transform = "{1, 0, 0, 1, 528, 0}";
}
);
guideLines = (
{
position = "{1, 1118}";
}
);
layerId = "2087CE79-2284-4DA6-8543-529C0FCE662A";
paths = (
{
closed = 1;
nodes = (
"50 1276 LINE",
"146 1276 LINE",
"146 1402 LINE",
"31 1402 LINE",
"-60 1326 LINE",
"-60 1118 LINE",
"49 1118 LINE"
);
},
{
closed = 1;
nodes = (
"399 1118 LINE",
"230 1292 LINE",
"320 1390 LINE",
"527 1118 LINE"
);
}
);
width = 1668;
}
);
unicode = 1F1B;
},
{
glyphname = Epsilonpsilioxia;
lastChange = "2017-12-29 09:31:56 +0000";
layers = (
{
components = (
{
name = Epsilon;
transform = "{1, 0, 0, 1, 641, 0}";
}
);
guideLines = (
{
position = "{-29, 1119}";
}
);
layerId = "2087CE79-2284-4DA6-8543-529C0FCE662A";
paths = (
{
closed = 1;
nodes = (
"266 1119 LINE",
"266 1327 LINE",
"175 1403 LINE",
"60 1403 LINE",
"60 1277 LINE",
"156 1277 LINE",
"157 1119 LINE"
);
},
{
closed = 1;
nodes = (
"582 1402 LINE",
"672 1304 LINE",
"485 1120 LINE",
"357 1120 LINE"
);
}
);
width = 1781;
}
);
unicode = 1F1C;
},
{
glyphname = Epsilondasiaoxia;
lastChange = "2017-12-29 09:33:05 +0000";
layers = (
{
components = (
{
name = Epsilon;
transform = "{1, 0, 0, 1, 542, 0}";
}
);
guideLines = (
{
position = "{7, 1121}";
}
);
layerId = "2087CE79-2284-4DA6-8543-529C0FCE662A";
paths = (
{
closed = 1;
nodes = (
"170 1279 LINE",
"266 1279 LINE",
"266 1405 LINE",
"151 1405 LINE",
"60 1329 LINE",
"60 1121 LINE",
"169 1121 LINE"
);
},
{
closed = 1;
nodes = (
"502 1405 LINE",
"592 1307 LINE",
"405 1123 LINE",
"277 1123 LINE"
);
}
);
width = 1682;
}
);
unicode = 1F1D;
},
{
glyphname = Etapsili;
lastChange = "2017-12-29 09:33:55 +0000";
layers = (
{
components = (
{
name = Eta;
transform = "{1, 0, 0, 1, 236, 0}";
}
);
guideLines = (
{
position = "{-64, 1118}";
}
);
layerId = "2087CE79-2284-4DA6-8543-529C0FCE662A";
paths = (
{
closed = 1;
nodes = (
"266 1120 LINE",
"266 1328 LINE",
"175 1404 LINE",
"60 1404 LINE",
"60 1278 LINE",
"156 1278 LINE",
"157 1120 LINE"
);
}
);
width = 1516;
}
);
unicode = 1F28;
},
{
glyphname = Etadasia;
lastChange = "2017-12-29 09:34:17 +0000";
layers = (
{
components = (
{
name = Eta;
transform = "{1, 0, 0, 1, 210, 0}";
}
);
layerId = "2087CE79-2284-4DA6-8543-529C0FCE662A";
paths = (
{
closed = 1;
nodes = (
"170 1275 LINE",
"266 1275 LINE",
"266 1401 LINE",
"151 1401 LINE",
"60 1325 LINE",
"60 1117 LINE",
"169 1117 LINE"
);
}
);
width = 1490;
}
);
unicode = 1F29;
},
{
glyphname = Etapsilivaria;
lastChange = "2017-12-29 09:35:00 +0000";
layers = (
{
components = (
{
name = Eta;
}
);
layerId = "2087CE79-2284-4DA6-8543-529C0FCE662A";
paths = (
{
closed = 1;
nodes = (
"-331 1117 LINE",
"-331 1325 LINE",
"-422 1401 LINE",
"-537 1401 LINE",
"-537 1275 LINE",
"-441 1275 LINE",
"-440 1117 LINE"
);
},
{
closed = 1;
nodes = (
"-83 1119 LINE",
"-270 1303 LINE",
"-180 1401 LINE",
"45 1119 LINE"
);
}
);
width = 1320;
}
);
unicode = 1F2A;
},
{
glyphname = Etadasiavaria;
lastChange = "2017-12-29 09:45:37 +0000";
layers = (
{
components = (
{
name = Eta;
transform = "{1, 0, 0, 1, 588, 0}";
}
);
layerId = "2087CE79-2284-4DA6-8543-529C0FCE662A";
paths = (
{
closed = 1;
nodes = (
"170 1278 LINE",
"266 1278 LINE",
"266 1404 LINE",
"151 1404 LINE",
"60 1328 LINE",
"60 1120 LINE",
"169 1120 LINE"
);
},
{
closed = 1;
nodes = (
"507 1120 LINE",
"338 1294 LINE",
"428 1392 LINE",
"635 1120 LINE"
);
}
);
width = 1868;
}
);
unicode = 1F2B;
},
{
glyphname = Etapsilioxia;
lastChange = "2017-12-29 09:45:48 +0000";
layers = (
{
components = (
{
name = Eta;
transform = "{1, 0, 0, 1, 576, 0}";
}
);
layerId = "2087CE79-2284-4DA6-8543-529C0FCE662A";
paths = (
{
closed = 1;
nodes = (
"266 1122 LINE",
"266 1330 LINE",
"175 1406 LINE",
"60 1406 LINE",
"60 1280 LINE",
"156 1280 LINE",
"157 1122 LINE"
);
},
{
closed = 1;
nodes = (
"552 1406 LINE",
"642 1308 LINE",
"455 1124 LINE",
"327 1124 LINE"
);
}
);
width = 1856;
}
);
unicode = 1F2C;
},
{
glyphname = Etadasiaoxia;
lastChange = "2017-12-29 09:45:57 +0000";
layers = (
{
components = (
{
name = Eta;
transform = "{1, 0, 0, 1, 508, 0}";
}
);
layerId = "2087CE79-2284-4DA6-8543-529C0FCE662A";
paths = (
{
closed = 1;
nodes = (
"170 1279 LINE",
"266 1279 LINE",
"266 1405 LINE",
"151 1405 LINE",
"60 1329 LINE",
"60 1121 LINE",
"169 1121 LINE"
);
},
{
closed = 1;
nodes = (
"487 1403 LINE",
"577 1305 LINE",
"390 1121 LINE",
"262 1121 LINE"
);
}
);
width = 1788;
}
);
unicode = 1F2D;
},
{
glyphname = Etapsiliperispomeni;
lastChange = "2017-12-29 09:46:07 +0000";
layers = (
{
components = (
{
name = Eta;
transform = "{1, 0, 0, 1, 427, 0}";
}
);
layerId = "2087CE79-2284-4DA6-8543-529C0FCE662A";
paths = (
{
closed = 1;
nodes = (
"438 1117 LINE",
"438 1325 LINE",
"347 1401 LINE",
"232 1401 LINE",
"232 1275 LINE",
"328 1275 LINE",
"329 1117 LINE"
);
},
{
closed = 1;
nodes = (
"393 1563 LINE",
"472 1563 LINE",
"472 1688 LINE",
"599 1688 LINE",
"599 1553 LINE",
"522 1468 LINE",
"343 1468 LINE",
"266 1553 LINE",
"266 1593 LINE",
"266 1595 LINE",
"186 1595 LINE",
"186 1470 LINE",
"60 1470 LINE",
"60 1598 LINE",
"137 1689 LINE",
"316 1689 LINE",
"393 1599 LINE"
);
}
);
width = 1707;
}
);
unicode = 1F2E;
},
{
glyphname = Etadasiaperispomeni;
lastChange = "2017-12-29 09:46:19 +0000";
layers = (
{
components = (
{
name = Eta;
transform = "{1, 0, 0, 1, 426, 0}";
}
);
layerId = "2087CE79-2284-4DA6-8543-529C0FCE662A";
paths = (
{
closed = 1;
nodes = (
"342 1281 LINE",
"438 1281 LINE",
"438 1407 LINE",
"323 1407 LINE",
"232 1331 LINE",
"232 1123 LINE",
"341 1123 LINE"
);
},
{
closed = 1;
nodes = (
"393 1569 LINE",
"472 1569 LINE",
"472 1694 LINE",
"599 1694 LINE",
"599 1559 LINE",
"522 1474 LINE",
"343 1474 LINE",
"266 1559 LINE",
"266 1599 LINE",
"266 1601 LINE",
"186 1601 LINE",
"186 1476 LINE",
"60 1476 LINE",
"60 1604 LINE",
"137 1695 LINE",
"316 1695 LINE",
"393 1605 LINE"
);
}
);
width = 1706;
}
);
unicode = 1F2F;
},
{
glyphname = Etapsiliprosgegrammeni;
lastChange = "2017-12-29 09:48:03 +0000";
layers = (
{
components = (
{
name = Eta;
transform = "{1, 0, 0, 1, 241, 0}";
},
{
name = prosgegrammeni;
transform = "{1, 0, 0, 1, 1561, 0}";
}
);
layerId = "2087CE79-2284-4DA6-8543-529C0FCE662A";
paths = (
{
closed = 1;
nodes = (
"266 1123 LINE",
"266 1331 LINE",
"175 1407 LINE",
"60 1407 LINE",
"60 1281 LINE",
"156 1281 LINE",
"157 1123 LINE"
);
}
);
width = 1521;
}
);
unicode = 1F98;
},
{
glyphname = Etadasiaprosgegrammeni;
lastChange = "2017-12-29 09:49:22 +0000";
layers = (
{
components = (
{
name = Eta;
transform = "{1, 0, 0, 1, 210, 0}";
},
{
name = prosgegrammeni;
transform = "{1, 0, 0, 1, 1530, 0}";
}
);
layerId = "2087CE79-2284-4DA6-8543-529C0FCE662A";
paths = (
{
closed = 1;
nodes = (
"170 1282 LINE",
"266 1282 LINE",
"266 1408 LINE",
"151 1408 LINE",
"60 1332 LINE",
"60 1124 LINE",
"169 1124 LINE"
);
}
);
width = 1490;
}
);
unicode = 1F99;
},
{
glyphname = Etapsilivariaprosgegrammeni;
lastChange = "2017-12-29 09:49:59 +0000";
layers = (
{
components = (
{
name = Eta;
transform = "{1, 0, 0, 1, 608, 0}";
},
{
name = prosgegrammeni;
transform = "{1, 0, 0, 1, 1928, 0}";
}
);
layerId = "2087CE79-2284-4DA6-8543-529C0FCE662A";
paths = (
{
closed = 1;
nodes = (
"266 1118 LINE",
"266 1326 LINE",
"175 1402 LINE",
"60 1402 LINE",
"60 1276 LINE",
"156 1276 LINE",
"157 1118 LINE"
);
},
{
closed = 1;
nodes = (
"524 1120 LINE",
"337 1304 LINE",
"427 1402 LINE",
"652 1120 LINE"
);
}
);
width = 1888;
}
);
unicode = 1F9A;
},
{
glyphname = Etadasiavariaprosgegrammeni;
lastChange = "2017-12-29 09:50:15 +0000";
layers = (
{
components = (
{
name = Eta;
transform = "{1, 0, 0, 1, 588, 0}";
},
{
name = prosgegrammeni;
transform = "{1, 0, 0, 1, 1908, 0}";
}
);
layerId = "2087CE79-2284-4DA6-8543-529C0FCE662A";
paths = (
{
closed = 1;
nodes = (
"170 1278 LINE",
"266 1278 LINE",
"266 1404 LINE",
"151 1404 LINE",
"60 1328 LINE",
"60 1120 LINE",
"169 1120 LINE"
);
},
{
closed = 1;
nodes = (
"507 1120 LINE",
"338 1294 LINE",
"428 1392 LINE",
"635 1120 LINE"
);
}
);
width = 1868;
}
);
unicode = 1F9B;
},
{
glyphname = Etapsilioxiaprosgegrammeni;
lastChange = "2017-12-29 09:50:34 +0000";
layers = (
{
components = (
{
name = Eta;
transform = "{1, 0, 0, 1, 576, 0}";
},
{
name = prosgegrammeni;
transform = "{1, 0, 0, 1, 1896, 0}";
}
);
layerId = "2087CE79-2284-4DA6-8543-529C0FCE662A";
paths = (
{
closed = 1;
nodes = (
"266 1122 LINE",
"266 1330 LINE",
"175 1406 LINE",
"60 1406 LINE",
"60 1280 LINE",
"156 1280 LINE",
"157 1122 LINE"
);
},
{
closed = 1;
nodes = (
"552 1406 LINE",
"642 1308 LINE",
"455 1124 LINE",
"327 1124 LINE"
);
}
);
width = 1856;
}
);
unicode = 1F9C;
},
{
glyphname = Etadasiaoxiaprosgegrammeni;
lastChange = "2017-12-29 09:50:43 +0000";
layers = (
{
components = (
{
name = Eta;
transform = "{1, 0, 0, 1, 508, 0}";
},
{
name = prosgegrammeni;
transform = "{1, 0, 0, 1, 1828, 0}";
}
);
layerId = "2087CE79-2284-4DA6-8543-529C0FCE662A";
paths = (
{
closed = 1;
nodes = (
"170 1279 LINE",
"266 1279 LINE",
"266 1405 LINE",
"151 1405 LINE",
"60 1329 LINE",
"60 1121 LINE",
"169 1121 LINE"
);
},
{
closed = 1;
nodes = (
"487 1403 LINE",
"577 1305 LINE",
"390 1121 LINE",
"262 1121 LINE"
);
}
);
width = 1788;
}
);
unicode = 1F9D;
},
{
glyphname = Etapsiliperispomeniprosgegrammeni;
lastChange = "2017-12-29 09:50:52 +0000";
layers = (
{
components = (
{
name = Eta;
transform = "{1, 0, 0, 1, 427, 0}";
},
{
name = prosgegrammeni;
transform = "{1, 0, 0, 1, 1747, 0}";
}
);
layerId = "2087CE79-2284-4DA6-8543-529C0FCE662A";
paths = (
{
closed = 1;
nodes = (
"438 1117 LINE",
"438 1325 LINE",
"347 1401 LINE",
"232 1401 LINE",
"232 1275 LINE",
"328 1275 LINE",
"329 1117 LINE"
);
},
{
closed = 1;
nodes = (
"393 1563 LINE",
"472 1563 LINE",
"472 1688 LINE",
"599 1688 LINE",
"599 1553 LINE",
"522 1468 LINE",
"343 1468 LINE",
"266 1553 LINE",
"266 1593 LINE",
"266 1595 LINE",
"186 1595 LINE",
"186 1470 LINE",
"60 1470 LINE",
"60 1598 LINE",
"137 1689 LINE",
"316 1689 LINE",
"393 1599 LINE"
);
}
);
width = 1707;
}
);
unicode = 1F9E;
},
{
glyphname = Etadasiaperispomeniprosgegrammeni;
lastChange = "2017-12-29 09:51:01 +0000";
layers = (
{
components = (
{
name = Eta;
transform = "{1, 0, 0, 1, 426, 0}";
},
{
name = prosgegrammeni;
transform = "{1, 0, 0, 1, 1746, 0}";
}
);
layerId = "2087CE79-2284-4DA6-8543-529C0FCE662A";
paths = (
{
closed = 1;
nodes = (
"342 1281 LINE",
"438 1281 LINE",
"438 1407 LINE",
"323 1407 LINE",
"232 1331 LINE",
"232 1123 LINE",
"341 1123 LINE"
);
},
{
closed = 1;
nodes = (
"393 1569 LINE",
"472 1569 LINE",
"472 1694 LINE",
"599 1694 LINE",
"599 1559 LINE",
"522 1474 LINE",
"343 1474 LINE",
"266 1559 LINE",
"266 1599 LINE",
"266 1601 LINE",
"186 1601 LINE",
"186 1476 LINE",
"60 1476 LINE",
"60 1604 LINE",
"137 1695 LINE",
"316 1695 LINE",
"393 1605 LINE"
);
}
);
width = 1706;
}
);
unicode = 1F9F;
},
{
glyphname = Iotapsili;
lastChange = "2017-12-29 09:51:13 +0000";
layers = (
{
components = (
{
name = Iota;
transform = "{1, 0, 0, 1, 241, 0}";
}
);
layerId = "2087CE79-2284-4DA6-8543-529C0FCE662A";
paths = (
{
closed = 1;
nodes = (
"266 1123 LINE",
"266 1331 LINE",
"175 1407 LINE",
"60 1407 LINE",
"60 1281 LINE",
"156 1281 LINE",
"157 1123 LINE"
);
}
);
width = 941;
}
);
unicode = 1F38;
},
{
glyphname = Iotadasia;
lastChange = "2017-12-29 09:51:26 +0000";
layers = (
{
components = (
{
name = Iota;
transform = "{1, 0, 0, 1, 210, 0}";
}
);
layerId = "2087CE79-2284-4DA6-8543-529C0FCE662A";
paths = (
{
closed = 1;
nodes = (
"170 1282 LINE",
"266 1282 LINE",
"266 1408 LINE",
"151 1408 LINE",
"60 1332 LINE",
"60 1124 LINE",
"169 1124 LINE"
);
}
);
width = 910;
}
);
unicode = 1F39;
},
{
glyphname = Iotapsilivaria;
lastChange = "2017-12-29 09:51:36 +0000";
layers = (
{
components = (
{
name = Iota;
transform = "{1, 0, 0, 1, 608, 0}";
}
);
layerId = "2087CE79-2284-4DA6-8543-529C0FCE662A";
paths = (
{
closed = 1;
nodes = (
"266 1118 LINE",
"266 1326 LINE",
"175 1402 LINE",
"60 1402 LINE",
"60 1276 LINE",
"156 1276 LINE",
"157 1118 LINE"
);
},
{
closed = 1;
nodes = (
"524 1120 LINE",
"337 1304 LINE",
"427 1402 LINE",
"652 1120 LINE"
);
}
);
width = 1308;
}
);
unicode = 1F3A;
},
{
glyphname = Iotadasiavaria;
lastChange = "2017-12-29 09:51:47 +0000";
layers = (
{
components = (
{
name = Iota;
transform = "{1, 0, 0, 1, 588, 0}";
}
);
layerId = "2087CE79-2284-4DA6-8543-529C0FCE662A";
paths = (
{
closed = 1;
nodes = (
"170 1278 LINE",
"266 1278 LINE",
"266 1404 LINE",
"151 1404 LINE",
"60 1328 LINE",
"60 1120 LINE",
"169 1120 LINE"
);
},
{
closed = 1;
nodes = (
"507 1120 LINE",
"338 1294 LINE",
"428 1392 LINE",
"635 1120 LINE"
);
}
);
width = 1288;
}
);
unicode = 1F3B;
},
{
glyphname = Iotapsilioxia;
lastChange = "2017-12-29 09:52:14 +0000";
layers = (
{
components = (
{
name = Iota;
transform = "{1, 0, 0, 1, 576, 0}";
}
);
layerId = "2087CE79-2284-4DA6-8543-529C0FCE662A";
paths = (
{
closed = 1;
nodes = (
"266 1122 LINE",
"266 1330 LINE",
"175 1406 LINE",
"60 1406 LINE",
"60 1280 LINE",
"156 1280 LINE",
"157 1122 LINE"
);
},
{
closed = 1;
nodes = (
"552 1406 LINE",
"642 1308 LINE",
"455 1124 LINE",
"327 1124 LINE"
);
}
);
width = 1276;
}
);
unicode = 1F3C;
},
{
glyphname = Iotadasiaoxia;
lastChange = "2017-12-29 09:52:23 +0000";
layers = (
{
components = (
{
name = Iota;
transform = "{1, 0, 0, 1, 508, 0}";
}
);
layerId = "2087CE79-2284-4DA6-8543-529C0FCE662A";
paths = (
{
closed = 1;
nodes = (
"170 1279 LINE",
"266 1279 LINE",
"266 1405 LINE",
"151 1405 LINE",
"60 1329 LINE",
"60 1121 LINE",
"169 1121 LINE"
);
},
{
closed = 1;
nodes = (
"487 1403 LINE",
"577 1305 LINE",
"390 1121 LINE",
"262 1121 LINE"
);
}
);
width = 1208;
}
);
unicode = 1F3D;
},
{
glyphname = Iotapsiliperispomeni;
lastChange = "2017-12-29 09:52:33 +0000";
layers = (
{
components = (
{
name = Iota;
transform = "{1, 0, 0, 1, 427, 0}";
}
);
layerId = "2087CE79-2284-4DA6-8543-529C0FCE662A";
paths = (
{
closed = 1;
nodes = (
"438 1117 LINE",
"438 1325 LINE",
"347 1401 LINE",
"232 1401 LINE",
"232 1275 LINE",
"328 1275 LINE",
"329 1117 LINE"
);
},
{
closed = 1;
nodes = (
"393 1563 LINE",
"472 1563 LINE",
"472 1688 LINE",
"599 1688 LINE",
"599 1553 LINE",
"522 1468 LINE",
"343 1468 LINE",
"266 1553 LINE",
"266 1593 LINE",
"266 1595 LINE",
"186 1595 LINE",
"186 1470 LINE",
"60 1470 LINE",
"60 1598 LINE",
"137 1689 LINE",
"316 1689 LINE",
"393 1599 LINE"
);
}
);
width = 1127;
}
);
unicode = 1F3E;
},
{
glyphname = Iotadasiaperispomeni;
lastChange = "2017-12-29 09:52:43 +0000";
layers = (
{
components = (
{
name = Iota;
transform = "{1, 0, 0, 1, 426, 0}";
}
);
layerId = "2087CE79-2284-4DA6-8543-529C0FCE662A";
paths = (
{
closed = 1;
nodes = (
"342 1281 LINE",
"438 1281 LINE",
"438 1407 LINE",
"323 1407 LINE",
"232 1331 LINE",
"232 1123 LINE",
"341 1123 LINE"
);
},
{
closed = 1;
nodes = (
"393 1569 LINE",
"472 1569 LINE",
"472 1694 LINE",
"599 1694 LINE",
"599 1559 LINE",
"522 1474 LINE",
"343 1474 LINE",
"266 1559 LINE",
"266 1599 LINE",
"266 1601 LINE",
"186 1601 LINE",
"186 1476 LINE",
"60 1476 LINE",
"60 1604 LINE",
"137 1695 LINE",
"316 1695 LINE",
"393 1605 LINE"
);
}
);
width = 1126;
}
);
unicode = 1F3F;
},
{
glyphname = Omicronpsili;
lastChange = "2017-12-29 09:53:45 +0000";
layers = (
{
components = (
{
name = Omicron;
transform = "{1, 0, 0, 1, 241, 0}";
}
);
layerId = "2087CE79-2284-4DA6-8543-529C0FCE662A";
paths = (
{
closed = 1;
nodes = (
"266 1174 LINE",
"266 1382 LINE",
"175 1458 LINE",
"60 1458 LINE",
"60 1332 LINE",
"156 1332 LINE",
"157 1174 LINE"
);
}
);
width = 1241;
}
);
unicode = 1F48;
},
{
glyphname = Omicrondasia;
lastChange = "2017-12-29 09:53:58 +0000";
layers = (
{
components = (
{
name = Omicron;
transform = "{1, 0, 0, 1, 210, 0}";
}
);
layerId = "2087CE79-2284-4DA6-8543-529C0FCE662A";
paths = (
{
closed = 1;
nodes = (
"170 1345 LINE",
"266 1345 LINE",
"266 1471 LINE",
"151 1471 LINE",
"60 1395 LINE",
"60 1187 LINE",
"169 1187 LINE"
);
}
);
width = 1210;
}
);
unicode = 1F49;
},
{
glyphname = Omicronpsilivaria;
lastChange = "2017-12-29 09:54:11 +0000";
layers = (
{
components = (
{
name = Omicron;
transform = "{1, 0, 0, 1, 608, 0}";
}
);
layerId = "2087CE79-2284-4DA6-8543-529C0FCE662A";
paths = (
{
closed = 1;
nodes = (
"266 1178 LINE",
"266 1386 LINE",
"175 1462 LINE",
"60 1462 LINE",
"60 1336 LINE",
"156 1336 LINE",
"157 1178 LINE"
);
},
{
closed = 1;
nodes = (
"524 1180 LINE",
"337 1364 LINE",
"427 1462 LINE",
"652 1180 LINE"
);
}
);
width = 1608;
}
);
unicode = 1F4A;
},
{
glyphname = Omicrondasiavaria;
lastChange = "2017-12-29 09:54:30 +0000";
layers = (
{
components = (
{
name = Omicron;
transform = "{1, 0, 0, 1, 588, 0}";
}
);
layerId = "2087CE79-2284-4DA6-8543-529C0FCE662A";
paths = (
{
closed = 1;
nodes = (
"170 1338 LINE",
"266 1338 LINE",
"266 1464 LINE",
"151 1464 LINE",
"60 1388 LINE",
"60 1180 LINE",
"169 1180 LINE"
);
},
{
closed = 1;
nodes = (
"507 1180 LINE",
"338 1354 LINE",
"428 1452 LINE",
"635 1180 LINE"
);
}
);
width = 1588;
}
);
unicode = 1F4B;
},
{
glyphname = Omicronpsilioxia;
lastChange = "2017-12-29 09:54:44 +0000";
layers = (
{
components = (
{
name = Omicron;
transform = "{1, 0, 0, 1, 576, 0}";
}
);
layerId = "2087CE79-2284-4DA6-8543-529C0FCE662A";
paths = (
{
closed = 1;
nodes = (
"266 1172 LINE",
"266 1380 LINE",
"175 1456 LINE",
"60 1456 LINE",
"60 1330 LINE",
"156 1330 LINE",
"157 1172 LINE"
);
},
{
closed = 1;
nodes = (
"552 1456 LINE",
"642 1358 LINE",
"455 1174 LINE",
"327 1174 LINE"
);
}
);
width = 1576;
}
);
unicode = 1F4C;
},
{
glyphname = Omicrondasiaoxia;
lastChange = "2017-12-29 09:55:03 +0000";
layers = (
{
components = (
{
name = Omicron;
transform = "{1, 0, 0, 1, 508, 0}";
}
);
layerId = "2087CE79-2284-4DA6-8543-529C0FCE662A";
paths = (
{
closed = 1;
nodes = (
"170 1339 LINE",
"266 1339 LINE",
"266 1465 LINE",
"151 1465 LINE",
"60 1389 LINE",
"60 1181 LINE",
"169 1181 LINE"
);
},
{
closed = 1;
nodes = (
"487 1463 LINE",
"577 1365 LINE",
"390 1181 LINE",
"262 1181 LINE"
);
}
);
width = 1508;
}
);
unicode = 1F4D;
},
{
glyphname = Rhodasia;
lastChange = "2017-12-29 09:55:34 +0000";
layers = (
{
components = (
{
name = Rho;
transform = "{1, 0, 0, 1, 210, 0}";
}
);
layerId = "2087CE79-2284-4DA6-8543-529C0FCE662A";
paths = (
{
closed = 1;
nodes = (
"170 1275 LINE",
"266 1275 LINE",
"266 1401 LINE",
"151 1401 LINE",
"60 1325 LINE",
"60 1117 LINE",
"169 1117 LINE"
);
}
);
width = 1350;
}
);
unicode = 1FEC;
},
{
glyphname = Upsilondasia;
lastChange = "2017-12-29 09:56:05 +0000";
layers = (
{
components = (
{
name = Upsilon;
transform = "{1, 0, 0, 1, 210, 0}";
}
);
layerId = "2087CE79-2284-4DA6-8543-529C0FCE662A";
paths = (
{
closed = 1;
nodes = (
"170 1274 LINE",
"266 1274 LINE",
"266 1400 LINE",
"151 1400 LINE",
"60 1324 LINE",
"60 1116 LINE",
"169 1116 LINE"
);
}
);
width = 1490;
}
);
unicode = 1F59;
},
{
glyphname = Upsilondasiavaria;
lastChange = "2017-12-29 09:56:18 +0000";
layers = (
{
components = (
{
name = Upsilon;
transform = "{1, 0, 0, 1, 588, 0}";
}
);
layerId = "2087CE79-2284-4DA6-8543-529C0FCE662A";
paths = (
{
closed = 1;
nodes = (
"170 1278 LINE",
"266 1278 LINE",
"266 1404 LINE",
"151 1404 LINE",
"60 1328 LINE",
"60 1120 LINE",
"169 1120 LINE"
);
},
{
closed = 1;
nodes = (
"507 1120 LINE",
"338 1294 LINE",
"428 1392 LINE",
"635 1120 LINE"
);
}
);
width = 1868;
}
);
unicode = 1F5B;
},
{
glyphname = Upsilondasiaoxia;
lastChange = "2017-12-29 09:56:27 +0000";
layers = (
{
components = (
{
name = Upsilon;
transform = "{1, 0, 0, 1, 508, 0}";
}
);
layerId = "2087CE79-2284-4DA6-8543-529C0FCE662A";
paths = (
{
closed = 1;
nodes = (
"170 1279 LINE",
"266 1279 LINE",
"266 1405 LINE",
"151 1405 LINE",
"60 1329 LINE",
"60 1121 LINE",
"169 1121 LINE"
);
},
{
closed = 1;
nodes = (
"487 1403 LINE",
"577 1305 LINE",
"390 1121 LINE",
"262 1121 LINE"
);
}
);
width = 1788;
}
);
unicode = 1F5D;
},
{
glyphname = Upsilondasiaperispomeni;
lastChange = "2017-12-29 09:56:47 +0000";
layers = (
{
components = (
{
name = Upsilon;
transform = "{1, 0, 0, 1, 426, 0}";
}
);
layerId = "2087CE79-2284-4DA6-8543-529C0FCE662A";
paths = (
{
closed = 1;
nodes = (
"342 1277 LINE",
"438 1277 LINE",
"438 1403 LINE",
"323 1403 LINE",
"232 1327 LINE",
"232 1119 LINE",
"341 1119 LINE"
);
},
{
closed = 1;
nodes = (
"393 1565 LINE",
"472 1565 LINE",
"472 1690 LINE",
"599 1690 LINE",
"599 1555 LINE",
"522 1470 LINE",
"343 1470 LINE",
"266 1555 LINE",
"266 1595 LINE",
"266 1597 LINE",
"186 1597 LINE",
"186 1472 LINE",
"60 1472 LINE",
"60 1600 LINE",
"137 1691 LINE",
"316 1691 LINE",
"393 1601 LINE"
);
}
);
width = 1706;
}
);
unicode = 1F5F;
},
{
glyphname = Omegapsiliprosgegrammeni;
lastChange = "2017-12-29 10:05:36 +0000";
layers = (
{
components = (
{
name = Omega;
transform = "{1, 0, 0, 1, 241, 0}";
},
{
name = prosgegrammeni;
transform = "{1, 0, 0, 1, 1612, 0}";
}
);
layerId = "2087CE79-2284-4DA6-8543-529C0FCE662A";
paths = (
{
closed = 1;
nodes = (
"266 1174 LINE",
"266 1382 LINE",
"175 1458 LINE",
"60 1458 LINE",
"60 1332 LINE",
"156 1332 LINE",
"157 1174 LINE"
);
}
);
width = 1727;
}
);
unicode = 1FA8;
},
{
glyphname = Omegadasiaprosgegrammeni;
lastChange = "2017-12-29 09:58:39 +0000";
layers = (
{
components = (
{
name = Omega;
transform = "{1, 0, 0, 1, 210, 0}";
},
{
name = prosgegrammeni;
transform = "{1, 0, 0, 1, 1584, 0}";
}
);
layerId = "2087CE79-2284-4DA6-8543-529C0FCE662A";
paths = (
{
closed = 1;
nodes = (
"170 1332 LINE",
"266 1332 LINE",
"266 1458 LINE",
"151 1458 LINE",
"60 1382 LINE",
"60 1174 LINE",
"169 1174 LINE"
);
}
);
width = 1626;
}
);
unicode = 1FA9;
},
{
glyphname = Omegapsilivariaprosgegrammeni;
lastChange = "2017-12-29 09:58:29 +0000";
layers = (
{
components = (
{
name = Omega;
transform = "{1, 0, 0, 1, 608, 0}";
},
{
name = prosgegrammeni;
transform = "{1, 0, 0, 1, 1994, 0}";
}
);
layerId = "2087CE79-2284-4DA6-8543-529C0FCE662A";
paths = (
{
closed = 1;
nodes = (
"266 1171 LINE",
"266 1379 LINE",
"175 1455 LINE",
"60 1455 LINE",
"60 1329 LINE",
"156 1329 LINE",
"157 1171 LINE"
);
},
{
closed = 1;
nodes = (
"524 1173 LINE",
"337 1357 LINE",
"427 1455 LINE",
"652 1173 LINE"
);
}
);
width = 2024;
}
);
unicode = 1FAA;
},
{
glyphname = Omegadasiavariaprosgegrammeni;
lastChange = "2017-12-29 09:59:05 +0000";
layers = (
{
components = (
{
name = Omega;
transform = "{1, 0, 0, 1, 588, 0}";
},
{
name = prosgegrammeni;
transform = "{1, 0, 0, 1, 1954, 0}";
}
);
layerId = "2087CE79-2284-4DA6-8543-529C0FCE662A";
paths = (
{
closed = 1;
nodes = (
"170 1335 LINE",
"266 1335 LINE",
"266 1461 LINE",
"151 1461 LINE",
"60 1385 LINE",
"60 1177 LINE",
"169 1177 LINE"
);
},
{
closed = 1;
nodes = (
"507 1177 LINE",
"338 1351 LINE",
"428 1449 LINE",
"635 1177 LINE"
);
}
);
width = 2004;
}
);
unicode = 1FAB;
},
{
glyphname = Omegapsilioxiaprosgegrammeni;
lastChange = "2017-12-29 09:59:28 +0000";
layers = (
{
components = (
{
name = Omega;
transform = "{1, 0, 0, 1, 576, 0}";
},
{
name = prosgegrammeni;
transform = "{1, 0, 0, 1, 1952, 0}";
}
);
layerId = "2087CE79-2284-4DA6-8543-529C0FCE662A";
paths = (
{
closed = 1;
nodes = (
"266 1182 LINE",
"266 1390 LINE",
"175 1466 LINE",
"60 1466 LINE",
"60 1340 LINE",
"156 1340 LINE",
"157 1182 LINE"
);
},
{
closed = 1;
nodes = (
"552 1466 LINE",
"642 1368 LINE",
"455 1184 LINE",
"327 1184 LINE"
);
}
);
width = 1992;
}
);
unicode = 1FAC;
},
{
glyphname = Omegadasiaoxiaprosgegrammeni;
lastChange = "2017-12-29 09:59:52 +0000";
layers = (
{
components = (
{
name = Omega;
transform = "{1, 0, 0, 1, 508, 0}";
},
{
name = prosgegrammeni;
transform = "{1, 0, 0, 1, 1894, 0}";
}
);
layerId = "2087CE79-2284-4DA6-8543-529C0FCE662A";
paths = (
{
closed = 1;
nodes = (
"170 1337 LINE",
"266 1337 LINE",
"266 1463 LINE",
"151 1463 LINE",
"60 1387 LINE",
"60 1179 LINE",
"169 1179 LINE"
);
},
{
closed = 1;
nodes = (
"487 1461 LINE",
"577 1363 LINE",
"390 1179 LINE",
"262 1179 LINE"
);
}
);
width = 1924;
}
);
unicode = 1FAD;
},
{
glyphname = Omegapsiliperispomeniprosgegrammeni;
lastChange = "2017-12-29 10:00:16 +0000";
layers = (
{
components = (
{
name = Omega;
transform = "{1, 0, 0, 1, 427, 0}";
},
{
name = prosgegrammeni;
transform = "{1, 0, 0, 1, 1803, 0}";
}
);
layerId = "2087CE79-2284-4DA6-8543-529C0FCE662A";
paths = (
{
closed = 1;
nodes = (
"438 1177 LINE",
"438 1385 LINE",
"347 1461 LINE",
"232 1461 LINE",
"232 1335 LINE",
"328 1335 LINE",
"329 1177 LINE"
);
},
{
closed = 1;
nodes = (
"393 1623 LINE",
"472 1623 LINE",
"472 1748 LINE",
"599 1748 LINE",
"599 1613 LINE",
"522 1528 LINE",
"343 1528 LINE",
"266 1613 LINE",
"266 1653 LINE",
"266 1655 LINE",
"186 1655 LINE",
"186 1530 LINE",
"60 1530 LINE",
"60 1658 LINE",
"137 1749 LINE",
"316 1749 LINE",
"393 1659 LINE"
);
}
);
width = 1843;
}
);
unicode = 1FAE;
},
{
glyphname = Omegadasiaperispomeniprosgegrammeni;
lastChange = "2017-12-29 10:00:41 +0000";
layers = (
{
components = (
{
name = Omega;
transform = "{1, 0, 0, 1, 336, 0}";
},
{
name = prosgegrammeni;
transform = "{1, 0, 0, 1, 1712, 0}";
}
);
layerId = "2087CE79-2284-4DA6-8543-529C0FCE662A";
paths = (
{
closed = 1;
nodes = (
"342 1341 LINE",
"438 1341 LINE",
"438 1467 LINE",
"323 1467 LINE",
"232 1391 LINE",
"232 1183 LINE",
"341 1183 LINE"
);
},
{
closed = 1;
nodes = (
"393 1629 LINE",
"472 1629 LINE",
"472 1754 LINE",
"599 1754 LINE",
"599 1619 LINE",
"522 1534 LINE",
"343 1534 LINE",
"266 1619 LINE",
"266 1659 LINE",
"266 1661 LINE",
"186 1661 LINE",
"186 1536 LINE",
"60 1536 LINE",
"60 1664 LINE",
"137 1755 LINE",
"316 1755 LINE",
"393 1665 LINE"
);
}
);
width = 1752;
}
);
unicode = 1FAF;
},
{
glyphname = Upsilondasiaperispomeni.001;
lastChange = "2017-12-29 10:25:22 +0000";
layers = (
{
components = (
{
name = Upsilon;
transform = "{1, 0, 0, 1, 426, 0}";
}
);
layerId = "2087CE79-2284-4DA6-8543-529C0FCE662A";
paths = (
{
closed = 1;
nodes = (
"342 1277 LINE",
"438 1277 LINE",
"438 1403 LINE",
"323 1403 LINE",
"232 1327 LINE",
"232 1119 LINE",
"341 1119 LINE"
);
},
{
closed = 1;
nodes = (
"393 1565 LINE",
"472 1565 LINE",
"472 1690 LINE",
"599 1690 LINE",
"599 1555 LINE",
"522 1470 LINE",
"343 1470 LINE",
"266 1555 LINE",
"266 1595 LINE",
"266 1597 LINE",
"186 1597 LINE",
"186 1472 LINE",
"60 1472 LINE",
"60 1600 LINE",
"137 1691 LINE",
"316 1691 LINE",
"393 1601 LINE"
);
}
);
width = 1706;
}
);
},
{
glyphname = Psi.ss01;
lastChange = "2017-12-13 10:50:13 +0000";
layers = (
{
layerId = "2087CE79-2284-4DA6-8543-529C0FCE662A";
paths = (
{
closed = 1;
nodes = (
"808 1402 LINE",
"1088 1402 LINE",
"1088 1136 LINE",
"1088 773 LINE",
"1378 773 LINE",
"1378 1139 LINE",
"1165 1139 LINE",
"1165 1405 LINE",
"1800 1405 LINE",
"1800 1139 LINE",
"1658 1139 LINE",
"1658 717 LINE",
"1434 493 LINE",
"1088 493 LINE",
"1088 266 LINE",
"1247 266 LINE",
"1247 0 LINE",
"612 0 LINE",
"612 266 LINE",
"808 266 LINE",
"808 267 LINE",
"808 490 LINE",
"502 490 LINE",
"278 714 LINE",
"278 1136 LINE",
"100 1136 LINE",
"100 1402 LINE",
"735 1402 LINE",
"735 1136 LINE",
"558 1136 LINE",
"558 770 LINE",
"808 770 LINE",
"808 1136 LINE"
);
}
);
width = 1900;
}
);
},
{
glyphname = delta;
lastChange = "2017-12-13 10:40:51 +0000";
layers = (
{
layerId = "2087CE79-2284-4DA6-8543-529C0FCE662A";
paths = (
{
closed = 1;
nodes = (
"330 1125 LINE",
"330 1400 LINE",
"1003 1400 LINE",
"1003 1125 LINE",
"869 1125 LINE",
"1079 282 LINE",
"1221 282 LINE",
"1221 0 LINE",
"100 0 LINE",
"100 282 LINE",
"241 282 LINE",
"451 1125 LINE"
);
},
{
closed = 1;
nodes = (
"660 840 LINE",
"521 282 LINE",
"799 282 LINE"
);
}
);
width = 1321;
}
);
unicode = 03B4;
},
{
glyphname = theta;
lastChange = "2017-12-14 07:07:06 +0000";
layers = (
{
layerId = "2087CE79-2284-4DA6-8543-529C0FCE662A";
paths = (
{
closed = 1;
nodes = (
"324 0 LINE",
"716 0 LINE",
"940 224 LINE",
"940 1176 LINE",
"716 1400 LINE",
"324 1400 LINE",
"100 1176 LINE",
"100 224 LINE"
);
},
{
closed = 1;
nodes = (
"380 586 LINE",
"660 586 LINE",
"660 280 LINE",
"380 280 LINE"
);
},
{
closed = 1;
nodes = (
"380 1120 LINE",
"660 1120 LINE",
"660 814 LINE",
"380 814 LINE"
);
}
);
width = 1040;
}
);
unicode = 03B8;
},
{
glyphname = lambda;
lastChange = "2017-12-13 10:38:21 +0000";
layers = (
{
layerId = "2087CE79-2284-4DA6-8543-529C0FCE662A";
paths = (
{
closed = 1;
nodes = (
"240 280 LINE",
"520 1400 LINE",
"800 1400 LINE",
"1080 280 LINE",
"1220 280 LINE",
"1220 0 LINE",
"680 0 LINE",
"680 280 LINE",
"800 280 LINE",
"660 840 LINE",
"520 280 LINE",
"640 280 LINE",
"640 0 LINE",
"100 0 LINE",
"100 280 LINE"
);
},
{
closed = 1;
nodes = (
"986 1400 LINE",
"986 1125 LINE",
"313 1125 LINE",
"313 1400 LINE"
);
}
);
width = 1320;
}
);
unicode = 03BB;
},
{
glyphname = xi;
lastChange = "2017-12-13 10:44:07 +0000";
layers = (
{
layerId = "2087CE79-2284-4DA6-8543-529C0FCE662A";
paths = (
{
closed = 1;
nodes = (
"1085 1002 LINE",
"1085 1110 LINE",
"380 1110 LINE",
"380 1002 LINE",
"100 1002 LINE",
"100 1407 LINE",
"380 1405 LINE",
"1085 1405 LINE",
"1365 1407 LINE",
"1365 1002 LINE"
);
},
{
closed = 1;
nodes = (
"1365 0 LINE",
"1085 2 LINE",
"380 2 LINE",
"100 0 LINE",
"100 405 LINE",
"380 405 LINE",
"380 297 LINE",
"1085 297 LINE",
"1085 405 LINE",
"1365 405 LINE"
);
},
{
closed = 1;
nodes = (
"1209 837 LINE",
"1209 562 LINE",
"244 562 LINE",
"244 837 LINE"
);
}
);
width = 1465;
}
);
unicode = 03BE;
},
{
glyphname = pi;
lastChange = "2017-12-13 05:18:28 +0000";
layers = (
{
layerId = "2087CE79-2284-4DA6-8543-529C0FCE662A";
paths = (
{
closed = 1;
nodes = (
"1450 1400 LINE",
"1450 1120 LINE",
"1310 1120 LINE",
"1310 280 LINE",
"1450 280 LINE",
"1450 0 LINE",
"910 0 LINE",
"910 280 LINE",
"1030 280 LINE",
"1030 1120 LINE",
"910 1120 LINE",
"520 1120 LINE",
"520 280 LINE",
"640 280 LINE",
"640 0 LINE",
"100 0 LINE",
"100 280 LINE",
"240 280 LINE",
"240 1120 LINE",
"100 1120 LINE",
"100 1400 LINE",
"910 1400 LINE"
);
}
);
width = 1550;
}
);
unicode = 03C0;
},
{
glyphname = sigmafinal;
lastChange = "2017-12-13 05:22:03 +0000";
layers = (
{
layerId = "2087CE79-2284-4DA6-8543-529C0FCE662A";
paths = (
{
closed = 1;
nodes = (
"1080 420 LINE",
"800 420 LINE",
"800 280 LINE",
"475 280 LINE",
"755 697 LINE",
"475 1120 LINE",
"800 1120 LINE",
"800 980 LINE",
"1080 980 LINE",
"1080 1400 LINE",
"100 1400 LINE",
"100 1120 LINE",
"195 1120 LINE",
"475 694 LINE",
"195 280 LINE",
"100 280 LINE",
"100 0 LINE",
"1080 0 LINE"
);
}
);
width = 1180;
}
);
unicode = 03C2;
},
{
glyphname = sigma;
lastChange = "2017-12-13 05:22:18 +0000";
layers = (
{
layerId = "2087CE79-2284-4DA6-8543-529C0FCE662A";
paths = (
{
closed = 1;
nodes = (
"1080 420 LINE",
"800 420 LINE",
"800 280 LINE",
"475 280 LINE",
"755 697 LINE",
"475 1120 LINE",
"800 1120 LINE",
"800 980 LINE",
"1080 980 LINE",
"1080 1400 LINE",
"100 1400 LINE",
"100 1120 LINE",
"195 1120 LINE",
"475 694 LINE",
"195 280 LINE",
"100 280 LINE",
"100 0 LINE",
"1080 0 LINE"
);
}
);
width = 1180;
}
);
unicode = 03C3;
},
{
glyphname = upsilon;
lastChange = "2017-12-13 10:23:02 +0000";
layers = (
{
layerId = "2087CE79-2284-4DA6-8543-529C0FCE662A";
paths = (
{
closed = 1;
nodes = (
"520 700 LINE",
"520 280 LINE",
"380 280 LINE",
"380 0 LINE",
"940 0 LINE",
"940 280 LINE",
"800 280 LINE",
"800 700 LINE",
"1080 1120 LINE",
"1220 1120 LINE",
"1220 1400 LINE",
"680 1400 LINE",
"680 1120 LINE",
"800 1120 LINE",
"660 910 LINE",
"520 1120 LINE",
"640 1120 LINE",
"640 1400 LINE",
"100 1400 LINE",
"100 1120 LINE",
"240 1120 LINE"
);
}
);
width = 1320;
}
);
unicode = 03C5;
},
{
glyphname = phi;
lastChange = "2017-12-13 10:23:41 +0000";
layers = (
{
layerId = "2087CE79-2284-4DA6-8543-529C0FCE662A";
paths = (
{
closed = 1;
nodes = (
"375 772 LINE",
"1062 772 LINE",
"1062 625 LINE",
"375 625 LINE"
);
},
{
closed = 1;
nodes = (
"373 360 LINE",
"1059 360 LINE",
"1335 633 LINE",
"1337 633 LINE",
"1337 774 LINE",
"1334 774 LINE",
"1062 1047 LINE",
"371 1047 LINE",
"102 774 LINE",
"100 774 LINE",
"100 633 LINE",
"101 633 LINE"
);
},
{
closed = 1;
nodes = (
"972 0 LINE",
"972 280 LINE",
"852 280 LINE",
"852 1134 LINE",
"971 1134 LINE",
"972 1400 LINE",
"433 1400 LINE",
"433 1134 LINE",
"572 1134 LINE",
"572 280 LINE",
"432 280 LINE",
"432 0 LINE"
);
}
);
width = 1437;
}
);
unicode = 03C6;
},
{
glyphname = psi;
lastChange = "2017-12-13 10:50:26 +0000";
layers = (
{
layerId = "2087CE79-2284-4DA6-8543-529C0FCE662A";
paths = (
{
closed = 1;
nodes = (
"822 1136 LINE",
"822 1402 LINE",
"1457 1402 LINE",
"1457 1136 LINE",
"1298 1136 LINE",
"1298 773 LINE",
"1758 773 LINE",
"1758 1139 LINE",
"1545 1139 LINE",
"1545 1405 LINE",
"2180 1405 LINE",
"2180 1139 LINE",
"2038 1139 LINE",
"2038 717 LINE",
"1814 493 LINE",
"1298 493 LINE",
"1298 266 LINE",
"1457 266 LINE",
"1457 0 LINE",
"822 0 LINE",
"822 266 LINE",
"1018 266 LINE",
"1018 267 LINE",
"1018 490 LINE",
"502 490 LINE",
"278 714 LINE",
"278 1136 LINE",
"100 1136 LINE",
"100 1402 LINE",
"735 1402 LINE",
"735 1136 LINE",
"558 1136 LINE",
"558 770 LINE",
"1018 770 LINE",
"1018 1136 LINE"
);
}
);
width = 2280;
}
);
unicode = 03C8;
},
{
glyphname = omega;
lastChange = "2017-12-13 10:56:45 +0000";
layers = (
{
layerId = "2087CE79-2284-4DA6-8543-529C0FCE662A";
paths = (
{
closed = 1;
nodes = (
"1132 1402 LINE",
"1356 1178 LINE",
"1356 1006 LINE",
"1356 648 LINE",
"1132 424 LINE",
"1043 424 LINE",
"1043 282 LINE",
"1341 282 LINE",
"1341 2 LINE",
"987 2 LINE",
"763 226 LINE",
"763 424 LINE",
"763 704 LINE",
"1076 704 LINE",
"1076 1006 LINE",
"1076 1122 LINE",
"843 1122 LINE",
"380 1122 LINE",
"380 1005 LINE",
"380 703 LINE",
"693 703 LINE",
"693 423 LINE",
"693 224 LINE",
"469 0 LINE",
"115 0 LINE",
"115 280 LINE",
"413 280 LINE",
"413 423 LINE",
"324 423 LINE",
"100 647 LINE",
"100 1005 LINE",
"100 1178 LINE",
"324 1402 LINE",
"843 1402 LINE"
);
}
);
width = 1456;
}
);
unicode = 03C9;
},
{
glyphname = iotatonos;
lastChange = "2017-12-13 11:07:10 +0000";
layers = (
{
components = (
{
name = iota;
transform = "{1, 0, 0, 1, 378, 0}";
}
);
layerId = "2087CE79-2284-4DA6-8543-529C0FCE662A";
paths = (
{
closed = 1;
nodes = (
"375 888 LINE",
"237 888 LINE",
"100 1121 LINE",
"100 1401 LINE",
"375 1401 LINE"
);
}
);
width = 1118;
}
);
unicode = 03AF;
},
{
glyphname = iotadieresistonos;
lastChange = "2017-12-13 11:09:51 +0000";
layers = (
{
components = (
{
name = iota;
},
{
name = dieresiscomb;
transform = "{1, 0, 0, 1, -222, 0}";
}
);
layerId = "2087CE79-2284-4DA6-8543-529C0FCE662A";
paths = (
{
closed = 1;
nodes = (
"450 1806 LINE",
"312 1806 LINE",
"259 2179 LINE",
"494 2179 LINE"
);
}
);
width = 740;
}
);
unicode = 0390;
},
{
glyphname = upsilontonos;
lastChange = "2017-12-13 11:09:04 +0000";
layers = (
{
components = (
{
name = upsilon;
transform = "{1, 0, 0, 1, 379, 0}";
}
);
layerId = "2087CE79-2284-4DA6-8543-529C0FCE662A";
paths = (
{
closed = 1;
nodes = (
"375 888 LINE",
"237 888 LINE",
"100 1121 LINE",
"100 1401 LINE",
"375 1401 LINE"
);
}
);
width = 1699;
}
);
unicode = 03CD;
},
{
glyphname = upsilondieresistonos;
lastChange = "2017-12-13 11:09:42 +0000";
layers = (
{
components = (
{
name = upsilon;
},
{
name = dieresiscomb;
}
);
layerId = "2087CE79-2284-4DA6-8543-529C0FCE662A";
paths = (
{
closed = 1;
nodes = (
"677 1806 LINE",
"539 1806 LINE",
"486 2179 LINE",
"721 2179 LINE"
);
}
);
width = 1320;
}
);
unicode = 03B0;
},
{
glyphname = omicrontonos;
lastChange = "2017-12-13 11:10:09 +0000";
layers = (
{
components = (
{
name = omicron;
transform = "{1, 0, 0, 1, 368, 0}";
}
);
layerId = "2087CE79-2284-4DA6-8543-529C0FCE662A";
paths = (
{
closed = 1;
nodes = (
"375 875 LINE",
"237 875 LINE",
"100 1108 LINE",
"100 1388 LINE",
"375 1388 LINE"
);
}
);
width = 1408;
}
);
unicode = 03CC;
},
{
glyphname = omegatonos;
lastChange = "2017-12-13 11:10:19 +0000";
layers = (
{
components = (
{
name = omega;
transform = "{1, 0, 0, 1, 377, 0}";
}
);
layerId = "2087CE79-2284-4DA6-8543-529C0FCE662A";
paths = (
{
closed = 1;
nodes = (
"375 895 LINE",
"237 895 LINE",
"100 1128 LINE",
"100 1408 LINE",
"375 1408 LINE"
);
}
);
width = 1833;
}
);
unicode = 03CE;
},
{
glyphname = alphatonos;
lastChange = "2017-12-13 11:10:32 +0000";
layers = (
{
components = (
{
name = alpha;
transform = "{1, 0, 0, 1, 165, 0}";
}
);
layerId = "2087CE79-2284-4DA6-8543-529C0FCE662A";
paths = (
{
closed = 1;
nodes = (
"375 895 LINE",
"237 895 LINE",
"100 1128 LINE",
"100 1408 LINE",
"375 1408 LINE"
);
}
);
width = 1485;
}
);
unicode = 03AC;
},
{
glyphname = epsilontonos;
lastChange = "2017-12-13 11:10:44 +0000";
layers = (
{
components = (
{
name = epsilon;
transform = "{1, 0, 0, 1, 375, 0}";
}
);
layerId = "2087CE79-2284-4DA6-8543-529C0FCE662A";
paths = (
{
closed = 1;
nodes = (
"375 888 LINE",
"237 888 LINE",
"100 1121 LINE",
"100 1401 LINE",
"375 1401 LINE"
);
}
);
width = 1555;
}
);
unicode = 03AD;
},
{
glyphname = etatonos;
lastChange = "2017-12-13 11:10:55 +0000";
layers = (
{
components = (
{
name = eta;
transform = "{1, 0, 0, 1, 372, 0}";
}
);
layerId = "2087CE79-2284-4DA6-8543-529C0FCE662A";
paths = (
{
closed = 1;
nodes = (
"375 888 LINE",
"237 888 LINE",
"100 1121 LINE",
"100 1401 LINE",
"375 1401 LINE"
);
}
);
width = 1692;
}
);
unicode = 03AE;
},
{
glyphname = heta;
lastChange = "2017-12-29 10:34:39 +0000";
layers = (
{
layerId = "2087CE79-2284-4DA6-8543-529C0FCE662A";
paths = (
{
closed = 1;
nodes = (
"640 0 LINE",
"640 280 LINE",
"520 280 LINE",
"520 609 LINE",
"900 609 LINE",
"900 791 LINE",
"520 791 LINE",
"520 1120 LINE",
"640 1120 LINE",
"640 1400 LINE",
"100 1400 LINE",
"100 1120 LINE",
"240 1120 LINE",
"240 280 LINE",
"100 280 LINE",
"100 0 LINE"
);
}
);
width = 1000;
}
);
unicode = 0371;
},
{
glyphname = archaicsampi;
lastChange = "2017-12-29 10:34:39 +0000";
layers = (
{
layerId = "2087CE79-2284-4DA6-8543-529C0FCE662A";
paths = (
{
closed = 1;
nodes = (
"940 280 LINE",
"800 370 LINE",
"800 1120 LINE",
"940 980 LINE",
"1220 980 LINE",
"1220 1400 LINE",
"100 1400 LINE",
"100 980 LINE",
"380 980 LINE",
"520 1120 LINE",
"520 370 LINE",
"380 280 LINE",
"380 0 LINE",
"940 0 LINE"
);
}
);
width = 1320;
}
);
unicode = 0373;
},
{
glyphname = pamphyliandigamma;
lastChange = "2017-12-29 10:34:45 +0000";
layers = (
{
layerId = "2087CE79-2284-4DA6-8543-529C0FCE662A";
paths = (
{
closed = 1;
nodes = (
"1360 0 LINE",
"1360 280 LINE",
"1220 280 LINE",
"1220 1120 LINE",
"1360 1120 LINE",
"1360 1400 LINE",
"940 1400 LINE",
"520 600 LINE",
"520 1120 LINE",
"660 1120 LINE",
"660 1400 LINE",
"100 1400 LINE",
"100 1120 LINE",
"240 1120 LINE",
"240 0 LINE",
"520 0 LINE",
"940 800 LINE",
"940 280 LINE",
"800 280 LINE",
"800 0 LINE"
);
}
);
width = 1460;
}
);
unicode = 0377;
},
{
glyphname = digamma;
lastChange = "2017-12-29 10:37:01 +0000";
layers = (
{
layerId = "2087CE79-2284-4DA6-8543-529C0FCE662A";
paths = (
{
closed = 1;
nodes = (
"380 280 LINE",
"380 560 LINE",
"660 560 LINE",
"660 840 LINE",
"380 840 LINE",
"380 1120 LINE",
"660 1120 LINE",
"940 1120 LINE",
"940 1400 LINE",
"100 1400 LINE",
"100 1120 LINE",
"100 280 LINE",
"100 0 LINE",
"380 0 LINE"
);
}
);
width = 1040;
}
);
unicode = 03DD;
},
{
glyphname = koppa;
lastChange = "2017-12-29 10:39:20 +0000";
layers = (
{
layerId = "2087CE79-2284-4DA6-8543-529C0FCE662A";
paths = (
{
closed = 1;
nodes = (
"100 859 LINE",
"635 1454 LINE",
"836 1273 LINE",
"463 859 LINE",
"900 859 LINE",
"900 589 LINE",
"895 589 LINE",
"365 0 LINE",
"164 180 LINE",
"532 589 LINE",
"100 589 LINE"
);
}
);
width = 600;
}
);
unicode = 03DF;
},
{
glyphname = sho;
lastChange = "2017-12-29 10:36:09 +0000";
layers = (
{
layerId = "2087CE79-2284-4DA6-8543-529C0FCE662A";
paths = (
{
closed = 1;
nodes = (
"339 524 LINE",
"746 524 LINE",
"746 843 LINE",
"746 956 LINE",
"339 956 LINE"
);
},
{
closed = 1;
nodes = (
"834 1186 LINE",
"968 1037 LINE",
"968 842 LINE",
"968 433 LINE",
"834 285 LINE",
"339 285 LINE",
"339 1 LINE",
"100 1 LINE",
"100 1401 LINE",
"339 1401 LINE",
"339 1186 LINE"
);
}
);
width = 1068;
}
);
unicode = 03F8;
},
{
glyphname = alphapsilivaria;
lastChange = "2017-12-29 10:07:01 +0000";
layers = (
{
components = (
{
name = Alpha;
transform = "{1, 0, 0, 1, 416, 0}";
}
);
guideLines = (
{
position = "{277, 1125}";
}
);
layerId = "2087CE79-2284-4DA6-8543-529C0FCE662A";
paths = (
{
closed = 1;
nodes = (
"326 1125 LINE",
"326 1333 LINE",
"235 1409 LINE",
"120 1409 LINE",
"120 1283 LINE",
"216 1283 LINE",
"217 1125 LINE"
);
},
{
closed = 1;
nodes = (
"568 1125 LINE",
"381 1309 LINE",
"471 1407 LINE",
"696 1125 LINE"
);
}
);
width = 1736;
}
);
unicode = 1F02;
},
{
glyphname = alphadasiavaria;
lastChange = "2017-12-29 10:07:01 +0000";
layers = (
{
components = (
{
name = Alpha;
transform = "{1, 0, 0, 1, 417, 0}";
}
);
layerId = "2087CE79-2284-4DA6-8543-529C0FCE662A";
paths = (
{
closed = 1;
nodes = (
"210 1291 LINE",
"306 1291 LINE",
"306 1417 LINE",
"191 1417 LINE",
"100 1341 LINE",
"100 1133 LINE",
"209 1136 LINE"
);
},
{
closed = 1;
nodes = (
"549 1130 LINE",
"380 1304 LINE",
"470 1402 LINE",
"677 1130 LINE"
);
}
);
width = 1737;
}
);
unicode = 1F03;
},
{
glyphname = alphapsilioxia;
lastChange = "2017-12-29 10:07:01 +0000";
layers = (
{
components = (
{
alignment = -1;
name = Alpha;
transform = "{1, 0, 0, 1, 413, 0}";
}
);
guideLines = (
{
position = "{-1404, 1126}";
}
);
layerId = "2087CE79-2284-4DA6-8543-529C0FCE662A";
paths = (
{
closed = 1;
nodes = (
"306 1128 LINE",
"306 1336 LINE",
"215 1412 LINE",
"100 1412 LINE",
"100 1286 LINE",
"196 1286 LINE",
"197 1128 LINE"
);
},
{
closed = 1;
nodes = (
"592 1408 LINE",
"682 1310 LINE",
"495 1126 LINE",
"367 1126 LINE"
);
}
);
width = 1733;
}
);
unicode = 1F04;
},
{
glyphname = alphadasiaoxia;
lastChange = "2017-12-29 10:07:01 +0000";
layers = (
{
components = (
{
name = Alpha;
transform = "{1, 0, 0, 1, 327, 0}";
}
);
guideLines = (
{
position = "{-1070, 1128}";
}
);
layerId = "2087CE79-2284-4DA6-8543-529C0FCE662A";
paths = (
{
closed = 1;
nodes = (
"210 1284 LINE",
"306 1284 LINE",
"306 1410 LINE",
"191 1410 LINE",
"100 1334 LINE",
"100 1126 LINE",
"209 1126 LINE"
);
},
{
closed = 1;
nodes = (
"510 1410 LINE",
"600 1312 LINE",
"413 1128 LINE",
"285 1128 LINE"
);
}
);
width = 1647;
}
);
unicode = 1F05;
},
{
glyphname = alphapsiliperispomeni;
lastChange = "2017-12-29 10:07:01 +0000";
layers = (
{
components = (
{
name = Alpha;
transform = "{1, 0, 0, 1, 237, 0}";
}
);
guideLines = (
{
position = "{-234, 1124}";
}
);
layerId = "2087CE79-2284-4DA6-8543-529C0FCE662A";
paths = (
{
closed = 1;
nodes = (
"468 1124 LINE",
"468 1332 LINE",
"377 1408 LINE",
"262 1408 LINE",
"262 1282 LINE",
"358 1282 LINE",
"359 1124 LINE"
);
},
{
closed = 1;
nodes = (
"423 1570 LINE",
"502 1570 LINE",
"502 1695 LINE",
"629 1695 LINE",
"629 1560 LINE",
"552 1475 LINE",
"373 1475 LINE",
"296 1560 LINE",
"296 1600 LINE",
"296 1602 LINE",
"216 1602 LINE",
"216 1477 LINE",
"90 1477 LINE",
"90 1605 LINE",
"167 1696 LINE",
"346 1696 LINE",
"423 1606 LINE"
);
}
);
width = 1557;
}
);
unicode = 1F06;
},
{
glyphname = alphadasiaperispomeni;
lastChange = "2017-12-29 10:07:01 +0000";
layers = (
{
components = (
{
name = Alpha;
transform = "{1, 0, 0, 1, 243, 0}";
}
);
guideLines = (
{
position = "{209, 1121}";
}
);
layerId = "2087CE79-2284-4DA6-8543-529C0FCE662A";
paths = (
{
closed = 1;
nodes = (
"382 1278 LINE",
"478 1278 LINE",
"478 1404 LINE",
"363 1404 LINE",
"272 1328 LINE",
"272 1120 LINE",
"381 1120 LINE"
);
},
{
closed = 1;
nodes = (
"433 1566 LINE",
"512 1566 LINE",
"512 1691 LINE",
"639 1691 LINE",
"639 1556 LINE",
"562 1471 LINE",
"383 1471 LINE",
"306 1556 LINE",
"306 1596 LINE",
"306 1598 LINE",
"226 1598 LINE",
"226 1473 LINE",
"100 1473 LINE",
"100 1601 LINE",
"177 1692 LINE",
"356 1692 LINE",
"433 1602 LINE"
);
}
);
width = 1563;
}
);
unicode = 1F07;
},
{
glyphname = alphavaria;
lastChange = "2017-12-29 10:07:01 +0000";
layers = (
{
components = (
{
name = Alpha;
transform = "{1, 0, 0, 1, 169, 0}";
}
);
layerId = "2087CE79-2284-4DA6-8543-529C0FCE662A";
paths = (
{
closed = 1;
nodes = (
"287 1123 LINE",
"100 1286 LINE",
"190 1384 LINE",
"415 1123 LINE"
);
}
);
width = 1489;
}
);
unicode = 1F70;
},
{
glyphname = alphaoxia;
lastChange = "2017-12-29 10:07:01 +0000";
layers = (
{
components = (
{
name = Alpha;
transform = "{1, 0, 0, 1, 145, 0}";
}
);
guideLines = (
{
position = "{-453, 1124}";
}
);
layerId = "2087CE79-2284-4DA6-8543-529C0FCE662A";
paths = (
{
closed = 1;
nodes = (
"325 1385 LINE",
"415 1287 LINE",
"228 1124 LINE",
"100 1124 LINE"
);
}
);
width = 1465;
}
);
unicode = 1F71;
},
{
glyphname = alphaypogegrammeni;
lastChange = "2017-12-29 10:07:34 +0000";
layers = (
{
components = (
{
name = Alpha;
}
);
layerId = "2087CE79-2284-4DA6-8543-529C0FCE662A";
paths = (
{
closed = 1;
nodes = (
"597 -67 LINE",
"597 -272 LINE",
"688 -348 LINE",
"803 -348 LINE",
"803 -222 LINE",
"707 -222 LINE",
"706 -67 LINE"
);
}
);
width = 1320;
}
);
unicode = 1FB3;
},
{
glyphname = alphavariaypogegrammeni;
lastChange = "2017-12-29 10:08:47 +0000";
layers = (
{
components = (
{
name = Alpha;
transform = "{1, 0, 0, 1, 27, 0}";
},
{
name = psili.case;
transform = "{1, 0, 0, 1, 259, -2}";
}
);
layerId = "2087CE79-2284-4DA6-8543-529C0FCE662A";
paths = (
{
closed = 1;
nodes = (
"629 -64 LINE",
"629 -272 LINE",
"720 -348 LINE",
"835 -348 LINE",
"835 -222 LINE",
"739 -222 LINE",
"738 -64 LINE"
);
}
);
width = 1347;
}
);
unicode = 1FB2;
},
{
glyphname = alphaoxiaypogegrammeni;
lastChange = "2017-12-29 10:08:47 +0000";
layers = (
{
components = (
{
name = Alpha;
transform = "{1, 0, 0, 1, 2, 0}";
},
{
name = dasia.case;
transform = "{1, 0, 0, 1, 212, -6}";
}
);
layerId = "2087CE79-2284-4DA6-8543-529C0FCE662A";
paths = (
{
closed = 1;
nodes = (
"604 -64 LINE",
"604 -272 LINE",
"695 -348 LINE",
"810 -348 LINE",
"810 -222 LINE",
"714 -222 LINE",
"713 -64 LINE"
);
}
);
width = 1282;
}
);
unicode = 1FB4;
},
{
glyphname = alphapsiliypogegrammeni;
lastChange = "2017-12-29 10:09:34 +0000";
layers = (
{
components = (
{
name = alpha;
transform = "{1, 0, 0, 1, -7, 0}";
},
{
name = ypogegrammeni;
transform = "{1, 0, 0, 1, 1313, 0}";
}
);
layerId = "2087CE79-2284-4DA6-8543-529C0FCE662A";
paths = (
{
closed = 1;
nodes = (
"266 1122 LINE",
"266 1330 LINE",
"175 1406 LINE",
"60 1406 LINE",
"60 1280 LINE",
"156 1280 LINE",
"157 1122 LINE"
);
}
);
width = 1273;
}
);
unicode = 1F80;
},
{
glyphname = alphadasiaypogegrammeni;
lastChange = "2017-12-29 10:09:48 +0000";
layers = (
{
components = (
{
name = alpha;
transform = "{1, 0, 0, 1, -1, 0}";
},
{
name = ypogegrammeni;
transform = "{1, 0, 0, 1, 1319, 0}";
}
);
layerId = "2087CE79-2284-4DA6-8543-529C0FCE662A";
paths = (
{
closed = 1;
nodes = (
"170 1278 LINE",
"266 1278 LINE",
"266 1404 LINE",
"151 1404 LINE",
"60 1328 LINE",
"60 1120 LINE",
"169 1120 LINE"
);
}
);
width = 1279;
}
);
unicode = 1F81;
},
{
glyphname = alphapsilivariaypogegrammeni;
lastChange = "2017-12-29 10:10:35 +0000";
layers = (
{
components = (
{
name = Alpha;
transform = "{1, 0, 0, 1, 378, 0}";
},
{
name = prosgegrammeni;
transform = "{1, 0, 0, 1, 1689, 0}";
}
);
layerId = "2087CE79-2284-4DA6-8543-529C0FCE662A";
paths = (
{
closed = 1;
nodes = (
"266 1129 LINE",
"266 1337 LINE",
"175 1413 LINE",
"60 1413 LINE",
"60 1287 LINE",
"156 1287 LINE",
"157 1129 LINE"
);
},
{
closed = 1;
nodes = (
"524 1121 LINE",
"337 1305 LINE",
"427 1403 LINE",
"652 1121 LINE"
);
}
);
width = 1658;
}
);
unicode = 1F82;
},
{
glyphname = alphadasiavariaypogegrammeni;
lastChange = "2017-12-29 10:10:35 +0000";
layers = (
{
components = (
{
name = Alpha;
transform = "{1, 0, 0, 1, 351, 0}";
},
{
name = prosgegrammeni;
transform = "{1, 0, 0, 1, 1663, 0}";
}
);
layerId = "2087CE79-2284-4DA6-8543-529C0FCE662A";
paths = (
{
closed = 1;
nodes = (
"170 1284 LINE",
"266 1284 LINE",
"266 1410 LINE",
"151 1410 LINE",
"60 1334 LINE",
"60 1126 LINE",
"169 1126 LINE"
);
},
{
closed = 1;
nodes = (
"503 1123 LINE",
"334 1297 LINE",
"424 1395 LINE",
"631 1123 LINE"
);
}
);
width = 1631;
}
);
unicode = 1F83;
},
{
glyphname = alphapsilioxiaypogegrammeni;
lastChange = "2017-12-29 10:10:35 +0000";
layers = (
{
components = (
{
name = Alpha;
transform = "{1, 0, 0, 1, 392, 0}";
},
{
name = prosgegrammeni;
transform = "{1, 0, 0, 1, 1703, 0}";
}
);
guideLines = (
{
position = "{78, 1123}";
}
);
layerId = "2087CE79-2284-4DA6-8543-529C0FCE662A";
paths = (
{
closed = 1;
nodes = (
"266 1123 LINE",
"266 1331 LINE",
"175 1407 LINE",
"60 1407 LINE",
"60 1281 LINE",
"156 1281 LINE",
"157 1123 LINE"
);
},
{
closed = 1;
nodes = (
"572 1406 LINE",
"662 1308 LINE",
"475 1124 LINE",
"347 1124 LINE"
);
}
);
width = 1672;
}
);
unicode = 1F84;
},
{
glyphname = alphadasiaoxiaypogegrammeni;
lastChange = "2017-12-29 10:10:35 +0000";
layers = (
{
components = (
{
name = Alpha;
transform = "{1, 0, 0, 1, 308, 0}";
},
{
name = prosgegrammeni;
transform = "{1, 0, 0, 1, 1625, 0}";
}
);
guideLines = (
{
position = "{-578, 1121}";
}
);
layerId = "2087CE79-2284-4DA6-8543-529C0FCE662A";
paths = (
{
closed = 1;
nodes = (
"170 1279 LINE",
"266 1279 LINE",
"266 1405 LINE",
"151 1405 LINE",
"60 1329 LINE",
"60 1121 LINE",
"169 1121 LINE"
);
},
{
closed = 1;
nodes = (
"481 1403 LINE",
"571 1305 LINE",
"384 1121 LINE",
"256 1121 LINE"
);
}
);
width = 1588;
}
);
unicode = 1F85;
},
{
glyphname = alphapsiliperispomeniypogegrammeni;
lastChange = "2017-12-29 10:11:26 +0000";
layers = (
{
components = (
{
name = Alpha;
transform = "{1, 0, 0, 1, 195, 0}";
},
{
name = prosgegrammeni;
transform = "{1, 0, 0, 1, 1506, 0}";
}
);
layerId = "2087CE79-2284-4DA6-8543-529C0FCE662A";
paths = (
{
closed = 1;
nodes = (
"418 1123 LINE",
"418 1331 LINE",
"327 1407 LINE",
"212 1407 LINE",
"212 1281 LINE",
"308 1281 LINE",
"309 1123 LINE"
);
},
{
closed = 1;
nodes = (
"373 1569 LINE",
"452 1569 LINE",
"452 1694 LINE",
"579 1694 LINE",
"579 1559 LINE",
"502 1474 LINE",
"323 1474 LINE",
"246 1559 LINE",
"246 1599 LINE",
"246 1601 LINE",
"166 1601 LINE",
"166 1476 LINE",
"40 1476 LINE",
"40 1604 LINE",
"117 1695 LINE",
"296 1695 LINE",
"373 1605 LINE"
);
}
);
width = 1475;
}
);
unicode = 1F86;
},
{
glyphname = alphadasiaperispomeniypogegrammeni;
lastChange = "2017-12-29 10:11:26 +0000";
layers = (
{
components = (
{
name = Alpha;
transform = "{1, 0, 0, 1, 204, 0}";
},
{
name = prosgegrammeni;
transform = "{1, 0, 0, 1, 1512, 0}";
}
);
layerId = "2087CE79-2284-4DA6-8543-529C0FCE662A";
paths = (
{
closed = 1;
nodes = (
"342 1284 LINE",
"438 1284 LINE",
"438 1410 LINE",
"323 1410 LINE",
"232 1334 LINE",
"232 1126 LINE",
"341 1126 LINE"
);
},
{
closed = 1;
nodes = (
"393 1572 LINE",
"472 1572 LINE",
"472 1697 LINE",
"599 1697 LINE",
"599 1562 LINE",
"522 1477 LINE",
"343 1477 LINE",
"266 1562 LINE",
"266 1602 LINE",
"266 1604 LINE",
"186 1604 LINE",
"186 1479 LINE",
"60 1479 LINE",
"60 1607 LINE",
"137 1698 LINE",
"316 1698 LINE",
"393 1608 LINE"
);
}
);
width = 1484;
}
);
unicode = 1F87;
},
{
glyphname = epsilonpsili;
lastChange = "2017-12-29 10:12:02 +0000";
layers = (
{
components = (
{
name = Epsilon;
transform = "{1, 0, 0, 1, 222, 0}";
}
);
layerId = "2087CE79-2284-4DA6-8543-529C0FCE662A";
paths = (
{
closed = 1;
nodes = (
"266 1120 LINE",
"266 1328 LINE",
"175 1404 LINE",
"60 1404 LINE",
"60 1278 LINE",
"156 1278 LINE",
"157 1120 LINE"
);
}
);
width = 1362;
}
);
unicode = 1F10;
},
{
glyphname = epsilondasia;
lastChange = "2017-12-29 10:12:02 +0000";
layers = (
{
components = (
{
name = Epsilon;
transform = "{1, 0, 0, 1, 222, 0}";
}
);
layerId = "2087CE79-2284-4DA6-8543-529C0FCE662A";
paths = (
{
closed = 1;
nodes = (
"170 1275 LINE",
"266 1275 LINE",
"266 1401 LINE",
"151 1401 LINE",
"60 1325 LINE",
"60 1117 LINE",
"169 1117 LINE"
);
}
);
width = 1362;
}
);
unicode = 1F11;
},
{
glyphname = epsilonpsilivaria;
lastChange = "2017-12-29 10:12:02 +0000";
layers = (
{
components = (
{
name = Epsilon;
transform = "{1, 0, 0, 1, 610, 0}";
}
);
guideLines = (
{
position = "{-408, 1118}";
}
);
layerId = "2087CE79-2284-4DA6-8543-529C0FCE662A";
paths = (
{
closed = 1;
nodes = (
"266 1118 LINE",
"266 1326 LINE",
"175 1402 LINE",
"60 1402 LINE",
"60 1276 LINE",
"156 1276 LINE",
"157 1118 LINE"
);
},
{
closed = 1;
nodes = (
"525 1122 LINE",
"338 1306 LINE",
"428 1404 LINE",
"653 1122 LINE"
);
}
);
width = 1750;
}
);
unicode = 1F12;
},
{
glyphname = epsilondasiavaria;
lastChange = "2017-12-29 10:12:02 +0000";
layers = (
{
components = (
{
name = Epsilon;
transform = "{1, 0, 0, 1, 528, 0}";
}
);
guideLines = (
{
position = "{1, 1118}";
}
);
layerId = "2087CE79-2284-4DA6-8543-529C0FCE662A";
paths = (
{
closed = 1;
nodes = (
"50 1276 LINE",
"146 1276 LINE",
"146 1402 LINE",
"31 1402 LINE",
"-60 1326 LINE",
"-60 1118 LINE",
"49 1118 LINE"
);
},
{
closed = 1;
nodes = (
"399 1118 LINE",
"230 1292 LINE",
"320 1390 LINE",
"527 1118 LINE"
);
}
);
width = 1668;
}
);
unicode = 1F13;
},
{
glyphname = epsilonpsilioxia;
lastChange = "2017-12-29 10:12:54 +0000";
layers = (
{
components = (
{
name = epsilon;
transform = "{1, 0, 0, 1, 580, 0}";
}
);
guideLines = (
{
position = "{-383, 1119}";
}
);
layerId = "2087CE79-2284-4DA6-8543-529C0FCE662A";
paths = (
{
closed = 1;
nodes = (
"266 1119 LINE",
"266 1327 LINE",
"175 1403 LINE",
"60 1403 LINE",
"60 1277 LINE",
"156 1277 LINE",
"157 1119 LINE"
);
},
{
closed = 1;
nodes = (
"550 1404 LINE",
"640 1306 LINE",
"453 1122 LINE",
"325 1122 LINE"
);
}
);
width = 1720;
}
);
unicode = 1F14;
},
